<svg xmlns="http://www.w3.org/2000/svg" viewBox="0 0 59.62 61.73"><defs><style>.cls-1{fill:#003e59;}</style></defs><title>Asset 8</title><g id="Layer_2" data-name="Layer 2"><g id="Layer_1-2" data-name="Layer 1"><path class="cls-1" d="M59.5,9.43,55.09.61A1.1,1.1,0,0,0,53.61.12h0L44.79,4.53a1.1,1.1,0,0,0,1,2l6.39-3.19-1.75,5A58.83,58.83,0,0,1,0,47.4l.19,2.2A61,61,0,0,0,52.5,9l1.78-5.08,3.25,6.48a1.1,1.1,0,1,0,2-1Z"/><path class="cls-1" d="M8.91,52.91H1.2A1.11,1.11,0,0,0,.09,54v6.61A1.11,1.11,0,0,0,1.2,61.73H8.91A1.11,1.11,0,0,0,10,60.62V54A1.1,1.1,0,0,0,8.91,52.91Zm-1.1,6.61H2.3V55.11H7.81Z"/><path class="cls-1" d="M21,49.6H13.32a1.1,1.1,0,0,0-1.1,1.1v9.92a1.11,1.11,0,0,0,1.1,1.11H21a1.11,1.11,0,0,0,1.1-1.11V50.7A1.1,1.1,0,0,0,21,49.6Zm-1.11,9.92H14.42V51.81h5.51Z"/><path class="cls-1" d="M33.16,44.09H25.45a1.11,1.11,0,0,0-1.11,1.1V60.62a1.11,1.11,0,0,0,1.11,1.11h7.71a1.11,1.11,0,0,0,1.1-1.11V45.19A1.1,1.1,0,0,0,33.16,44.09Zm-1.1,15.43H26.55V46.3h5.51Z"/><path class="cls-1" d="M45.29,36.38H37.57a1.1,1.1,0,0,0-1.1,1.1V60.62a1.11,1.11,0,0,0,1.1,1.11h7.72a1.11,1.11,0,0,0,1.1-1.11V37.48A1.1,1.1,0,0,0,45.29,36.38ZM44.18,59.52H38.67V38.58h5.51Z"/><path class="cls-1" d="M57.41,20.94H49.7a1.11,1.11,0,0,0-1.11,1.11V60.62a1.11,1.11,0,0,0,1.11,1.11h7.71a1.11,1.11,0,0,0,1.1-1.11V22.05A1.11,1.11,0,0,0,57.41,20.94Zm-1.1,38.58H50.8V23.15h5.51Z"/><polygon class="cls-1" points="5.4 32.55 6.65 35.09 9.45 35.49 7.42 37.46 7.9 40.25 5.4 38.93 2.9 40.25 3.38 37.46 1.35 35.49 4.15 35.09 5.4 32.55"/><polygon class="cls-1" points="25.22 22.64 26.47 25.18 29.26 25.58 27.24 27.56 27.72 30.34 25.22 29.03 22.72 30.34 23.19 27.56 21.17 25.58 23.97 25.18 25.22 22.64"/><polygon class="cls-1" points="39.37 7.78 40.62 10.32 43.42 10.72 41.39 12.7 41.87 15.48 39.37 14.16 36.87 15.48 37.35 12.7 35.32 10.72 38.12 10.32 39.37 7.78"/></g></g></svg>