<svg xmlns="http://www.w3.org/2000/svg" viewBox="0 0 59.14 59.14"><defs><style>.cls-1{fill:#003e59;}</style></defs><title>Asset 14</title><g id="Layer_2" data-name="Layer 2"><g id="Layer_1-2" data-name="Layer 1"><path class="cls-1" d="M29.57,59.14c-1,0-2-.06-3.08-.16L26,58.91l-.25,0c-.73-.1-1.52-.21-2.3-.37l-.41-.1-.22-.06c-.68-.16-1.48-.35-2.28-.61l-.3-.11-.16-.06c-.88-.3-1.65-.59-2.35-.89l-.19-.09c-.92-.42-1.73-.83-2.48-1.25L15,55.26A29.88,29.88,0,0,1,8.13,49.9,29.57,29.57,0,1,1,51,49.9h0a29.88,29.88,0,0,1-6.85,5.37c-.85.48-1.66.89-2.51,1.27l-.25.12c-.71.31-1.48.6-2.36.9l-.16.06-.29.11c-.82.26-1.62.45-2.29.61l-.22.06-.42.1c-.77.16-1.56.27-2.3.37l-.24,0-.47.07C31.61,59.08,30.57,59.14,29.57,59.14Zm0-56.68A27.19,27.19,0,0,0,2.46,29.57,27.21,27.21,0,0,0,16.19,53.12l.11.07c.67.38,1.41.75,2.19,1.1l.18.08c.7.31,1.4.58,2.22.86l.26.09.16.06c.72.23,1.46.41,2.09.56l.31.08.27.07c.65.14,1.31.23,2.11.33l.35.06.3.05a27.45,27.45,0,0,0,5.66,0,1.54,1.54,0,0,0,.3,0l.34-.06c.8-.1,1.47-.19,2.12-.33l.26-.07.32-.08c.63-.15,1.37-.33,2.09-.56l.42-.15c.81-.28,1.52-.55,2.15-.82l.24-.12c.78-.35,1.53-.72,2.21-1.11a27.33,27.33,0,0,0,6.37-5h0A27.11,27.11,0,0,0,29.57,2.46ZM50.11,49.05h0Z"/><path class="cls-1" d="M29.52,14.74h0a1.24,1.24,0,0,1-1.23-1.24l.05-12.27A1.23,1.23,0,0,1,29.57,0h0A1.24,1.24,0,0,1,30.8,1.24l-.05,12.27A1.23,1.23,0,0,1,29.52,14.74Z"/><path class="cls-1" d="M29.57,59.14a1.23,1.23,0,0,1-1.23-1.23l-.05-12.37a1.23,1.23,0,0,1,1.23-1.23h0a1.23,1.23,0,0,1,1.23,1.22L30.8,57.9a1.24,1.24,0,0,1-1.23,1.24Z"/><path class="cls-1" d="M57.9,30.8h-12a1.23,1.23,0,1,1,0-2.46h12a1.23,1.23,0,1,1,0,2.46Z"/><path class="cls-1" d="M1.23,30.8a1.23,1.23,0,0,1,0-2.46l12.27-.05h0a1.23,1.23,0,1,1,0,2.46L1.24,30.8Z"/><path class="cls-1" d="M29.52,46.77A17.25,17.25,0,1,1,46.77,29.52,17.27,17.27,0,0,1,29.52,46.77Zm0-32A14.79,14.79,0,1,0,44.31,29.52,14.8,14.8,0,0,0,29.52,14.74Z"/><path class="cls-1" d="M29.57,59.14A29.55,29.55,0,0,1,8.13,9.24a1.27,1.27,0,0,1,1.79,0,27.38,27.38,0,0,0,10,6.68,1.24,1.24,0,0,1,.77,1A1.23,1.23,0,0,1,20.23,18a14.78,14.78,0,1,0,18.62,0,1.2,1.2,0,0,1-.44-1.15,1.21,1.21,0,0,1,.77-.95,27.43,27.43,0,0,0,10-6.71,1.27,1.27,0,0,1,1.79,0,29.55,29.55,0,0,1-21.44,49.9ZM9.07,11.88a27.09,27.09,0,1,0,47.6,17.69,26.92,26.92,0,0,0-6.6-17.69,30,30,0,0,1-8.2,5.61,17.25,17.25,0,1,1-24.67,0A30.17,30.17,0,0,1,9.07,11.88Z"/><path class="cls-1" d="M43.06,22.23a1.23,1.23,0,0,1-1-.58,14.77,14.77,0,0,0-24.88-.2,1.23,1.23,0,0,1-2.24-.87,42.34,42.34,0,0,1,3.28-11C21.11,3.4,25.15,0,29.57,0S38,3.4,41,9.56A42.39,42.39,0,0,1,44.28,20.8a1.23,1.23,0,0,1-.78,1.35A1.32,1.32,0,0,1,43.06,22.23Zm-13.54-10a17.13,17.13,0,0,1,11.34,4.26,35.5,35.5,0,0,0-2.13-5.91c-2.46-5.18-5.8-8.16-9.16-8.16s-6.7,3-9.16,8.16a34.19,34.19,0,0,0-2.1,5.8A17.19,17.19,0,0,1,29.52,12.27Z"/><path class="cls-1" d="M29.57,59.14A8.69,8.69,0,0,1,27.84,59l-.34-.1a9,9,0,0,1-1.33-.43l-.29-.14a10.43,10.43,0,0,1-1.29-.7,1.53,1.53,0,0,1-.21-.14,12.47,12.47,0,0,1-1.28-1,.74.74,0,0,1-.13-.12,15.22,15.22,0,0,1-1.27-1.27,24.09,24.09,0,0,1-3.52-5.49,42.53,42.53,0,0,1-3.31-11.16,1.23,1.23,0,0,1,2.25-.86A14.76,14.76,0,0,0,42,37.36a1.23,1.23,0,0,1,2.26.84A42.23,42.23,0,0,1,41,49.58,23.57,23.57,0,0,1,37.49,55a14.87,14.87,0,0,1-1.31,1.32l-.13.13a14.61,14.61,0,0,1-1.25,1l-.25.17a9.14,9.14,0,0,1-1.24.67l-.34.17a7.87,7.87,0,0,1-1.28.41,3.93,3.93,0,0,1-.39.12A8.69,8.69,0,0,1,29.57,59.14ZM18.28,42.6a35.62,35.62,0,0,0,2.13,5.92,21.05,21.05,0,0,0,3.09,4.86,14.68,14.68,0,0,0,1.1,1.12l.12.11a9.65,9.65,0,0,0,1,.76l.17.13a7.09,7.09,0,0,0,1,.52l.21.11a5.45,5.45,0,0,0,1,.32l.24.08a5.56,5.56,0,0,0,2.5,0l.28-.09a5.7,5.7,0,0,0,.93-.29l.26-.14a8,8,0,0,0,.95-.5l.2-.15a9.65,9.65,0,0,0,1-.76l.12-.12c.37-.33.72-.69,1.05-1.05a21.43,21.43,0,0,0,3.14-4.92,35.18,35.18,0,0,0,2.16-6,17.24,17.24,0,0,1-22.61.11Z"/><path class="cls-1" d="M29.57,59.14A29.31,29.31,0,0,1,8.13,49.9a1.24,1.24,0,0,1,0-1.7,29.93,29.93,0,0,1,11-7.32,1.21,1.21,0,0,1,1.2.19,14.75,14.75,0,0,0,18.47,0,1.19,1.19,0,0,1,1.2-.19A29.79,29.79,0,0,1,51,48.2a1.24,1.24,0,0,1,0,1.7A29.31,29.31,0,0,1,29.57,59.14ZM10.76,49.05a27,27,0,0,0,37.62,0,27.4,27.4,0,0,0-8.64-5.64,17.2,17.2,0,0,1-20.4,0A27.54,27.54,0,0,0,10.76,49.05Z"/><path class="cls-1" d="M39.62,18.33a1.16,1.16,0,0,1-.77-.28,14.87,14.87,0,0,0-9.33-3.31A14.63,14.63,0,0,0,20.23,18a1.22,1.22,0,0,1-1.22.19A30,30,0,0,1,8.13,10.94a1.24,1.24,0,0,1,0-1.7A29.49,29.49,0,0,1,51,9.24a1.24,1.24,0,0,1,0,1.7,30,30,0,0,1-10.95,7.31A1.32,1.32,0,0,1,39.62,18.33Zm-10.1-6.06a17.26,17.26,0,0,1,10.3,3.42,27.4,27.4,0,0,0,8.56-5.6,27,27,0,0,0-37.62,0,27.42,27.42,0,0,0,8.5,5.58A17.24,17.24,0,0,1,29.52,12.27Z"/><path class="cls-1" d="M21.37,35.94a1.22,1.22,0,0,1-.87-.36,1.24,1.24,0,0,1,0-1.75l4.93-4.92a1.19,1.19,0,0,1,.87-.37h5.43l4.2-4.2a1.23,1.23,0,0,1,1.74,1.74l-4.56,4.57a1.24,1.24,0,0,1-.87.36H26.81l-4.57,4.57A1.24,1.24,0,0,1,21.37,35.94Z"/><path class="cls-1" d="M37.67,31.73a1.23,1.23,0,0,1-1.23-1.23V25.57H31.51a1.23,1.23,0,0,1,0-2.46h6.16a1.23,1.23,0,0,1,1.24,1.23V30.5A1.23,1.23,0,0,1,37.67,31.73Z"/></g></g></svg>