<svg xmlns="http://www.w3.org/2000/svg" viewBox="0 0 62.81 66.34"><defs><style>.cls-1{fill:#003e59;}</style></defs><title>Asset 12</title><g id="Layer_2" data-name="Layer 2"><g id="Layer_1-2" data-name="Layer 1"><path class="cls-1" d="M15.46,36.88a15.47,15.47,0,1,1,5.87-1.17A15.42,15.42,0,0,1,15.46,36.88Zm0-29.35a13.85,13.85,0,0,0-5.28,1h0a13.77,13.77,0,1,0,5.28-1Zm-5.58.33h0Z"/><path class="cls-1" d="M15.46,34.05A12.66,12.66,0,0,1,3.78,26.22,12.62,12.62,0,1,1,20.26,33.1,12.75,12.75,0,0,1,15.46,34.05Zm0-23.69a11.1,11.1,0,1,0,4.25.86A10.87,10.87,0,0,0,15.46,10.36Z"/><path class="cls-1" d="M6.74,25.72a.79.79,0,0,1-.3-1.51l2-.86a.77.77,0,0,1,1,.42.78.78,0,0,1-.41,1l-2,.86A.81.81,0,0,1,6.74,25.72Z"/><path class="cls-1" d="M22.11,19.37a.79.79,0,0,1-.3-1.51l2-.86a.78.78,0,0,1,.61,1.44l-2,.87A.85.85,0,0,1,22.11,19.37Z"/><path class="cls-1" d="M12.47,15.53a.77.77,0,0,1-.73-.51L11,13a.79.79,0,0,1,1.47-.56l.78,2a.79.79,0,0,1-.45,1A.71.71,0,0,1,12.47,15.53Z"/><path class="cls-1" d="M18.82,30.9a.77.77,0,0,1-.72-.48l-.87-2a.79.79,0,0,1,1.45-.61l.86,2a.78.78,0,0,1-.42,1A.66.66,0,0,1,18.82,30.9Z"/><path class="cls-1" d="M23.6,25.72a.74.74,0,0,1-.32-.07L8.56,19l.35,1.3a.78.78,0,0,1-1.51.41l-.79-2.9a.78.78,0,0,1,.25-.8.77.77,0,0,1,.83-.12l16.23,7.29a.78.78,0,0,1-.32,1.5Z"/><path class="cls-1" d="M15.21,22.73a1.49,1.49,0,0,1-.57-2.87h0a1.49,1.49,0,1,1,1.14,2.75A1.46,1.46,0,0,1,15.21,22.73Zm0-1.57a.08.08,0,0,0,0,.1.07.07,0,0,0,.1,0Zm0,0,.06.15a.07.07,0,0,0,0-.1.08.08,0,0,0-.1-.05Z"/><path class="cls-1" d="M40.54,66.34a.72.72,0,0,1-.29-.06L11.94,54.91a.8.8,0,0,1-.43-.42.78.78,0,0,1,0-.6L19,35.54a.78.78,0,1,1,1.45.59L13.25,53.75,40.1,64.53,61,12.59,34.15,1.8,29,14.56A.77.77,0,0,1,28,15a.78.78,0,0,1-.44-1L33,.49a.8.8,0,0,1,.42-.43.78.78,0,0,1,.6,0L62.32,11.43a.8.8,0,0,1,.43.42.78.78,0,0,1,0,.6L41.27,65.85A.8.8,0,0,1,40.54,66.34Z"/><path class="cls-1" d="M44.54,18.82a1.49,1.49,0,0,1,0-3A1.46,1.46,0,0,1,46,17.32a1.49,1.49,0,0,1-1.48,1.5Zm0-1.57a.08.08,0,0,0-.08.08.09.09,0,0,0,.08.08h0a.08.08,0,0,0,0-.16Z"/><path class="cls-1" d="M40.77,27.45a.79.79,0,0,1-.29-.06.77.77,0,0,1-.46-.52c-.25-.92-2.39-9-1.23-12h0a6.23,6.23,0,0,1,3.44-3.5,5.83,5.83,0,0,1,4.67.09,6.1,6.1,0,0,1,3.37,3.29,6.32,6.32,0,0,1,.09,4.85c-1.16,2.91-8.37,7.27-9.18,7.75A.78.78,0,0,1,40.77,27.45Zm-.52-12c-.72,1.86.33,7.16,1,10,2.48-1.57,6.92-4.64,7.64-6.44a4.74,4.74,0,0,0-.08-3.64,4.56,4.56,0,0,0-2.54-2.47,4.32,4.32,0,0,0-3.47-.09,4.66,4.66,0,0,0-2.57,2.62Z"/><path class="cls-1" d="M45.17,54.81a.78.78,0,0,1-.52-.19A21.72,21.72,0,0,1,38,38.72C38.17,30,29.33,27,29.24,26.93a.78.78,0,1,1,.49-1.48c.1,0,10,3.43,9.79,13.31a20.42,20.42,0,0,0,6.17,14.68.79.79,0,0,1-.52,1.37Z"/><path class="cls-1" d="M17.25,45.64a.75.75,0,0,1-.41-.12c-.67-.42-1-.67-1-.67a.77.77,0,0,1-.16-1.09.78.78,0,0,1,1.1-.16s.31.23.89.59a.78.78,0,0,1-.42,1.45Z"/><path class="cls-1" d="M26.4,48.52c-.47,0-.95,0-1.43-.07a.8.8,0,0,1-.71-.86.78.78,0,0,1,.86-.7c.43,0,.86.06,1.28.06h0l.87,0a.79.79,0,0,1,.84.72.78.78,0,0,1-.73.84A6.59,6.59,0,0,1,26.4,48.52Zm3.92-.62a.78.78,0,0,1-.25-1.53,12.55,12.55,0,0,0,1.28-.5l.68-.35a.79.79,0,0,1,1.07.31.77.77,0,0,1-.31,1.06c-.26.14-.52.28-.78.4a12.82,12.82,0,0,1-1.45.57A.67.67,0,0,1,30.32,47.9Zm-8.26,0a.91.91,0,0,1-.23,0A18.83,18.83,0,0,1,19.6,47a.78.78,0,1,1,.64-1.43,15.84,15.84,0,0,0,2.05.76.8.8,0,0,1,.52,1A.78.78,0,0,1,22.06,47.85ZM35,45.3a.76.76,0,0,1-.62-.3.77.77,0,0,1,.14-1.1c.54-.42,1.1-.89,1.71-1.43a.79.79,0,0,1,1,1.17c-.64.57-1.23,1.06-1.8,1.5A.81.81,0,0,1,35,45.3Zm4-3.55a.8.8,0,0,1-.57-.24.78.78,0,0,1,0-1.1L40,38.81a.79.79,0,0,1,1.09,1.13l-1.65,1.59A.76.76,0,0,1,38.94,41.75Zm3.87-3.68a.8.8,0,0,1-.59-.26.79.79,0,0,1,.06-1.11c.65-.58,1.23-1.07,1.8-1.51a.78.78,0,0,1,1,1.24c-.53.42-1.09.89-1.71,1.44A.81.81,0,0,1,42.81,38.07Zm4.29-3.15a.77.77,0,0,1-.69-.42.79.79,0,0,1,.33-1.06A11.12,11.12,0,0,1,49,32.55a.78.78,0,1,1,.39,1.52,8.81,8.81,0,0,0-2,.76A.81.81,0,0,1,47.1,34.92Z"/><path class="cls-1" d="M53.4,34.35a.73.73,0,0,1-.35-.09,3.77,3.77,0,0,0-.9-.24.79.79,0,1,1,.31-1.54,5.44,5.44,0,0,1,1.29.38.79.79,0,0,1-.35,1.49Z"/><path class="cls-1" d="M7.45,18.43a.79.79,0,0,1-.74-.52.77.77,0,0,1,.47-1l2.83-1a.78.78,0,1,1,.53,1.47l-2.83,1A.75.75,0,0,1,7.45,18.43Z"/></g></g></svg>