<svg xmlns="http://www.w3.org/2000/svg" viewBox="0 0 63.35 61.64"><defs><style>.cls-1{fill:#003e59;}</style></defs><title>Asset 10</title><g id="Layer_2" data-name="Layer 2"><g id="Layer_1-2" data-name="Layer 1"><path class="cls-1" d="M0,61.64H12.12V40.85H0Zm2.29-18.5H9.83V59.35H2.29Z"/><path class="cls-1" d="M17.07,61.64H29.2V30.89H17.07Zm2.29-28.46h7.55V59.35H19.36Z"/><path class="cls-1" d="M34.15,61.64H46.27V22.36H34.15Zm2.29-37H44v34.7H36.44Z"/><path class="cls-1" d="M51.23,12.53V61.64H63.35V12.53Zm9.83,46.82H53.52V14.82h7.54Z"/><polygon class="cls-1" points="1.69 29.29 45.75 5.19 44.06 9.5 46.19 10.34 51.28 2.17 51.28 2.17 40.44 0 39.99 2.25 44.66 3.18 0.59 27.28 1.69 29.29"/></g></g></svg>