<svg xmlns="http://www.w3.org/2000/svg" viewBox="0 0 60.09 56.98"><defs><style>.cls-1{fill:#003e59;}</style></defs><title>Asset 11</title><g id="Layer_2" data-name="Layer 2"><g id="Layer_1-2" data-name="Layer 1"><path class="cls-1" d="M7.31,57a23.29,23.29,0,0,1-1-7,24.16,24.16,0,0,1,48.32,0,25.41,25.41,0,0,1-1,7h2.67a25.72,25.72,0,0,0,.95-7A26.71,26.71,0,1,0,3.82,50a25.33,25.33,0,0,0,.95,7Z"/><path class="cls-1" d="M17,57h2.61a34,34,0,0,1-.7-5.73h10.3V57h2.54V51.25H42a33.5,33.5,0,0,1-.7,5.73h2.61a36,36,0,0,0,.64-5.73h7.94V48.71H44.58a39.6,39.6,0,0,0-1.53-9.48c2.1-.19,4.07-.44,6-.7L48.65,36c-2,.32-4.2.57-6.43.76a38.61,38.61,0,0,0-5-9.09l-2,1.53A34.2,34.2,0,0,1,39.55,37c-2.54.19-5.15.25-7.82.25V27.92H29.19v9.34c-2.67,0-5.28-.12-7.82-.25a32.46,32.46,0,0,1,4.38-7.76l-2-1.53a38.68,38.68,0,0,0-5,9.1c-2.42-.19-4.71-.45-6.87-.76l-.38,2.54c2,.32,4.2.57,6.42.76a36.21,36.21,0,0,0-1.52,9.41H8.46v2.55h8A29.13,29.13,0,0,0,17,57ZM31.73,39.74c3,0,5.91-.12,8.71-.31A34.45,34.45,0,0,1,42,48.71H31.73Zm-11.25-.31c2.79.19,5.72.31,8.71.31v8.91H18.89A34.42,34.42,0,0,1,20.48,39.43Z"/><path class="cls-1" d="M55.58,8H51L47.18,0H42.54V8.46l-3.31.76L35.16,5.15,33,6V18.89l2.16.89,4.07-4.07,3.31.76v8.71h4.64l4-8.27h4.51a4.42,4.42,0,0,0,4.45-4.45A4.47,4.47,0,0,0,55.58,8Zm0,6.36h-11l-6.81-1.65v-.51l6.81-1.65H55.51a1.87,1.87,0,0,1,1.91,1.9A1.82,1.82,0,0,1,55.58,14.37Z"/><path class="cls-1" d="M2.16,29.51,0,28.17A31.3,31.3,0,0,1,4,23l1.84,1.71A33.47,33.47,0,0,0,2.16,29.51Zm5.92-7L6.36,20.6a38.54,38.54,0,0,1,5.28-3.94L13,18.82A42.56,42.56,0,0,0,8.08,22.51Zm7.56-5.09L14.5,15.13a41.58,41.58,0,0,1,6.1-2.41l.7,2.41A48.92,48.92,0,0,0,15.64,17.42Zm8.71-3L23.85,12a37.84,37.84,0,0,1,6.48-.76l.13,2.55A28,28,0,0,0,24.35,14.43Z"/></g></g></svg>