<svg xmlns="http://www.w3.org/2000/svg" viewBox="0 0 61.05 61.05"><defs><style>.cls-1{fill:#003e59;}</style></defs><title>Asset 9</title><g id="Layer_2" data-name="Layer 2"><g id="Layer_1-2" data-name="Layer 1"><path class="cls-1" d="M15.91,48.73a5.24,5.24,0,0,0-2.31-.86,7.1,7.1,0,0,0,2.68-5.14c0-6.73-3.87-8.14-7.12-8.14S2,36,2,42.73a7.07,7.07,0,0,0,2.69,5.14A5.37,5.37,0,0,0,0,53.21V60a1,1,0,0,0,1,1H17.3a1,1,0,0,0,1-1V53.21A5.37,5.37,0,0,0,15.91,48.73ZM4.12,41.65c.28-3.41,1.88-5,5-5,2.88,0,4.47,1.36,4.93,4.21l-3.39-2a1,1,0,0,0-1.4.35.72.72,0,0,0-.09.2C8.69,40.9,5.92,41.49,4.12,41.65Zm.09,2.05C6,43.55,9.09,43,10.56,41.1l3.64,2.18c-.41,2.49-3.48,4.54-5,4.54A6.42,6.42,0,0,1,4.21,43.7Zm5.79,10-.84.84-.84-.84.84-2.11ZM16.28,59H2v-5.8a3.37,3.37,0,0,1,3.36-3.36H7.65l-1.47,3.7a1,1,0,0,0,.22,1.09l2,2a1,1,0,0,0,1.44,0l2-2a1,1,0,0,0,.23-1.09l-1.48-3.7h2.26a3.36,3.36,0,0,1,3.36,3.36Z"/><path class="cls-1" d="M37.28,48.73A5.28,5.28,0,0,0,35,47.87a7,7,0,0,0,2.68-5.14c0-6.73-3.87-8.14-7.12-8.14S23.4,36,23.4,42.73a7.1,7.1,0,0,0,2.68,5.14,5.36,5.36,0,0,0-4.71,5.34V60a1,1,0,0,0,1,1H38.66a1,1,0,0,0,1-1V53.21A5.37,5.37,0,0,0,37.28,48.73ZM25.49,41.65c.27-3.41,1.88-5,5-5,2.89,0,4.48,1.36,4.93,4.21l-3.39-2a1,1,0,0,0-1.39.35.72.72,0,0,0-.09.2C30.06,40.9,27.28,41.49,25.49,41.65Zm.09,2.05c1.74-.15,4.88-.67,6.35-2.6l3.63,2.18c-.41,2.49-3.48,4.54-5,4.54A6.41,6.41,0,0,1,25.58,43.7Zm5.78,10-.84.84-.84-.84.84-2.11ZM37.64,59H23.4v-5.8a3.36,3.36,0,0,1,3.36-3.36H29l-1.48,3.7a1,1,0,0,0,.23,1.09l2,2a1,1,0,0,0,1.44,0l2-2a1,1,0,0,0,.23-1.09L32,49.85h2.26a3.36,3.36,0,0,1,3.35,3.36Z"/><path class="cls-1" d="M58.64,48.73a5.19,5.19,0,0,0-2.31-.86A7.06,7.06,0,0,0,59,42.73c0-6.73-3.87-8.14-7.12-8.14S44.77,36,44.77,42.73a7,7,0,0,0,2.68,5.14,5.37,5.37,0,0,0-4.72,5.34V60a1,1,0,0,0,1,1H60a1,1,0,0,0,1-1V53.21A5.38,5.38,0,0,0,58.64,48.73ZM46.85,41.65c.28-3.41,1.88-5,5-5,2.89,0,4.48,1.36,4.93,4.21l-3.39-2a1,1,0,0,0-1.4.35l-.09.2C51.43,40.9,48.65,41.49,46.85,41.65Zm.09,2.05c1.74-.15,4.89-.67,6.35-2.6l3.64,2.18c-.41,2.49-3.48,4.54-5,4.54A6.42,6.42,0,0,1,46.94,43.7Zm5.79,10-.84.84-.84-.84.84-2.11ZM59,59H44.77v-5.8a3.36,3.36,0,0,1,3.35-3.36h2.26l-1.47,3.7a1,1,0,0,0,.22,1.09l2,2a1,1,0,0,0,1.43,0l2-2a1,1,0,0,0,.23-1.09l-1.48-3.7h2.26A3.36,3.36,0,0,1,59,53.21Z"/><path class="cls-1" d="M46.8,30.52V17.3a1,1,0,0,0-1-1H36.63V13.23a1,1,0,0,0-1-1H29.43a8.14,8.14,0,0,0-7.3-4.07,8.36,8.36,0,0,0-7.89,8.44,14,14,0,0,0,2.19,7.5l4.1,6.44h-1.2v2H47.82v-2Zm-21.36,0h-1.2l1.2-1.88Zm-3.06-.87L18.14,23a11.88,11.88,0,0,1-1.86-6.4,6.31,6.31,0,0,1,5.92-6.41h.18a6.12,6.12,0,0,1,6.11,6.11v.3A12,12,0,0,1,26.62,23Zm12.21.87H27.47V25.44l.87-1.36a14,14,0,0,0,2.18-7.5v-.3a8.27,8.27,0,0,0-.26-2h4.33Zm7.12,0h-2V27.47h2Zm3.06-11.19h-2v2h2v1h-2v2h2v6.1h-1V26.45a1,1,0,0,0-1-1H38.66a1,1,0,0,0-1,1v4.07h-1v-6.1h2v-2h-2v-1h2v-2h-2v-1h8.14Z"/><rect class="cls-1" x="31.54" y="15.26" width="2.03" height="2.03"/><rect class="cls-1" x="39.68" y="19.33" width="2.03" height="2.03"/><rect class="cls-1" x="39.68" y="22.38" width="2.03" height="2.03"/><rect class="cls-1" x="31.54" y="18.31" width="2.03" height="2.03"/><rect class="cls-1" x="31.54" y="21.37" width="2.03" height="2.03"/><rect class="cls-1" x="28.49" y="24.42" width="2.03" height="2.03"/><rect class="cls-1" x="31.54" y="24.42" width="2.03" height="2.03"/><rect class="cls-1" x="28.49" y="27.47" width="2.03" height="2.03"/><rect class="cls-1" x="31.54" y="27.47" width="2.03" height="2.03"/><path class="cls-1" d="M56.46,21.23l-2,.4c.13.62.23,1.26.31,1.89l2-.24C56.71,22.59,56.6,21.9,56.46,21.23Z"/><path class="cls-1" d="M4.58,21.28c-.14.68-.25,1.37-.33,2l2,.24c.08-.62.18-1.26.3-1.89Z"/><path class="cls-1" d="M53.58,13.48l-1.77,1c.31.55.61,1.12.87,1.7l1.85-.86C54.24,14.7,53.92,14.08,53.58,13.48Z"/><path class="cls-1" d="M51.27,10l-1.6,1.26c.4.5.78,1,1.13,1.55l1.69-1.14C52.1,11.14,51.69,10.58,51.27,10Z"/><path class="cls-1" d="M9.75,10.07c-.42.54-.84,1.11-1.22,1.68l1.69,1.13c.36-.53.73-1.05,1.13-1.55Z"/><path class="cls-1" d="M48.45,7,47.07,8.5c.47.43.93.89,1.36,1.35l1.49-1.38C49.46,8,49,7.47,48.45,7Z"/><path class="cls-1" d="M7.44,13.51c-.33.6-.65,1.22-.94,1.85l1.84.86c.27-.58.57-1.16.88-1.71Z"/><path class="cls-1" d="M5.7,17.28c-.24.65-.45,1.32-.64,2l2,.55c.17-.61.37-1.22.59-1.82Z"/><path class="cls-1" d="M12.57,7c-.51.47-1,1-1.47,1.47l1.5,1.38C13,9.41,13.48,9,14,8.52Z"/><path class="cls-1" d="M55.33,17.24,53.42,18c.22.6.42,1.21.6,1.82L56,19.21C55.79,18.55,55.57,17.89,55.33,17.24Z"/><path class="cls-1" d="M23.33,1c-.67.19-1.34.41-2,.64l.71,1.91c.59-.22,1.2-.42,1.82-.59Z"/><path class="cls-1" d="M27.4.18c-.68.08-1.37.19-2,.33l.39,2c.63-.12,1.27-.22,1.89-.3Z"/><path class="cls-1" d="M29.46,0l.08,2q1,0,1.92,0l.08-2C30.85,0,30.15,0,29.46,0Z"/><path class="cls-1" d="M19.44,2.43c-.63.29-1.25.61-1.85.94l1,1.78c.55-.32,1.13-.61,1.7-.88Z"/><path class="cls-1" d="M33.6.18l-.23,2c.63.07,1.26.17,1.89.29l.39-2C35,.36,34.29.26,33.6.18Z"/><path class="cls-1" d="M45.19,4.43l-1.13,1.7c.53.35,1,.72,1.55,1.12l1.26-1.6C46.32,5.22,45.76,4.81,45.19,4.43Z"/><path class="cls-1" d="M37.67,1l-.54,2c.61.17,1.22.37,1.82.59l.7-1.91C39,1.38,38.34,1.16,37.67,1Z"/><path class="cls-1" d="M15.82,4.46c-.57.39-1.14.8-1.67,1.22l1.26,1.6c.49-.39,1-.77,1.55-1.13Z"/><path class="cls-1" d="M41.57,2.41l-.85,1.85c.57.26,1.15.55,1.71.87l1-1.78C42.81,3,42.19,2.7,41.57,2.41Z"/><path class="cls-1" d="M22.38,12.21a4.07,4.07,0,1,0,4.07,4.07A4.07,4.07,0,0,0,22.38,12.21Zm0,6.1a2,2,0,1,1,2-2A2,2,0,0,1,22.38,18.31Z"/></g></g></svg>