<svg xmlns="http://www.w3.org/2000/svg" viewBox="0 0 55.91 66.13"><defs><style>.cls-1{fill:#003e59;}</style></defs><title>Asset 13</title><g id="Layer_2" data-name="Layer 2"><g id="Layer_1-2" data-name="Layer 1"><path class="cls-1" d="M28.61,30.77v-.36s0-.08-.07-.08v-.07a.07.07,0,0,0-.08-.07v-.08L28.39,30h0a.07.07,0,0,1-.07-.07h-.08l-4.62-2.64a1.23,1.23,0,0,0-1,0L18,30h0a.07.07,0,0,0-.07.07h-.07s-.08,0-.08.07l-.07.08-.07.07-.08.07s0,.08-.07.08V31h0v7.19a1,1,0,0,0,.51.88l4.62,2.64a1,1,0,0,0,1,0h0l4.62-2.64a1,1,0,0,0,.52-.88V31c-.15-.07-.15-.07-.15-.22Zm-5.72-1.24L25.53,31l-2.64,1.47L20.25,31Zm-3.6,3.22,2.64,1.47v4.84L19.29,37.6Zm4.62,6.31V34.22l2.65-1.47V37.6Z"/><path class="cls-1" d="M55.17,27.55,51.86,26.3V16.91h0v-.37l-.07-.07V16.4s0-.08-.07-.08l-.08-.07a.07.07,0,0,1-.07-.07H51.5a.08.08,0,0,1-.08-.08h-.07l-4.62-2.64a1.23,1.23,0,0,0-1,0L41.08,16.1h0a.07.07,0,0,0-.07.08h-.08l-.07.07-.07.07-.08.08-.07.07v.07s0,.08-.07.08v.58h0v5.65l-4.26,1.69-3.52-7.92A1.12,1.12,0,0,0,32,16l-7.62-1V3.19a.07.07,0,0,0-.08-.07V3A.07.07,0,0,0,24.21,3V2.9l-.08-.08h-.07A.07.07,0,0,1,24,2.75h-.08L19.29.11a1.21,1.21,0,0,0-1,0L13.57,2.9H13.5s-.08,0-.08.07L13.35,3l-.07.08-.08.07-.07.07s0,.08-.07.08V4h0V19.18l-2.72,1.47L6.09,18.23a1.23,1.23,0,0,0-1,0L.37,20.87h0s-.08,0-.08.07H.22L.15,21h0l-.08.07h0a.07.07,0,0,1-.07.07v.59H0V34.59a1,1,0,0,0,.51.88l4.7,2.64a1.47,1.47,0,0,0,.51.15,1.46,1.46,0,0,0,.52-.15h0l1.32-.73,7,4.62L8.88,48.82a1.1,1.1,0,0,0-.08,1.25l5.8,8.58v3.81a1,1,0,0,0,.51.89L19.73,66a1.44,1.44,0,0,0,.52.14,1.45,1.45,0,0,0,.51-.14h0l4.62-2.64a1,1,0,0,0,.52-.89V58.72l3.66-2.64L34.7,56l1.76,1a1,1,0,0,0,1,0h0l4.62-2.57a1,1,0,0,0,.51-.88V48.38l2.79-4.7h4.77a1,1,0,0,0,1-.66L55.9,28.94A1.33,1.33,0,0,0,55.17,27.55ZM42.55,18.82l2.64,1.46V30.77l-2.64-1.46Zm4.69,1.54,2.64-1.47V29.38l-2.64,1.47Zm-1-4.77,2.64,1.47-2.64,1.46-2.65-1.46ZM15,5.54l2.64,1.54V24.32L15,22.85Zm4.69,1.54,2.64-1.47V22.85l-2.64,1.47Zm-1-4.77,2.64,1.47L18.71,5.25,16.14,3.78Zm-12,33.16V25l2.64-1.47V34Zm-1-15.26,2.64,1.47L5.65,23.14,3,21.68ZM2,23.51,4.62,25V35.47L2,34ZM20.17,51.17,17.53,49.7l2.64-1.47,2.64,1.47Zm-3.66.22,2.64,1.46v10.5l-2.64-1.47Zm4.69,12V52.93l2.64-1.47V62Zm12-10.5V35.54l2.64,1.54V54.32ZM36.9,35.32l-2.64-1.54,2.64-1.47,2.64,1.47Zm1,19.08V37.08l2.64-1.46V52.93ZM49.37,41.56H44.75a1.12,1.12,0,0,0-.88.51l-1.32,2.2v-11a.08.08,0,0,0-.08-.08v-.07a.07.07,0,0,0-.07-.07V33l-.07-.07h-.08a.07.07,0,0,1-.07-.07h-.07l-4.62-2.64a1.23,1.23,0,0,0-1,0l-4.62,2.56h-.15l-.07.08-.08.07-.07.07-.07.08v.07c0,.07,0,0-.08.07v.59h0V53.44a1.46,1.46,0,0,0,.15.59l-2.27.07a.88.88,0,0,0-.59.22l-2.71,2V49.11a.07.07,0,0,0-.08-.07V49s0-.08-.07-.08v-.07l-.07-.07H25.6a.07.07,0,0,1-.07-.08h-.07L20.83,46a1.29,1.29,0,0,0-1,0L15,48.75h0a.07.07,0,0,0-.07.07h-.08a.07.07,0,0,0-.07.07l-.07.08-.08.07-.07.07a.08.08,0,0,1-.08.08v.58h0v5.36l-3.66-5.5,5.94-7.12A1.05,1.05,0,0,0,17,41.7a1.5,1.5,0,0,0-.44-.73l-7-4.69,1.32-.74a1,1,0,0,0,.51-.88V22.41l1.76-1.1v2.05a1,1,0,0,0,.51.88l4.7,2.65a1.45,1.45,0,0,0,.51.14,1.44,1.44,0,0,0,.52-.14h0l4.47-2.57a1,1,0,0,0,.52-.88V17.06l6.82.88,3.67,8.29a1,1,0,0,0,1.32.51L40.57,25v4.84a1,1,0,0,0,.51.88l4.62,2.64a1.14,1.14,0,0,0,.52.15,1.47,1.47,0,0,0,.51-.15h0l4.62-2.64a1,1,0,0,0,.51-.88V28.43l1.69.66Z"/></g></g></svg>