<?xml version="1.0" encoding="utf-8"?>
<!-- Generator: Adobe Illustrator 23.0.2, SVG Export Plug-In . SVG Version: 6.00 Build 0)  -->
<svg version="1.1" id="Layer_1" xmlns="http://www.w3.org/2000/svg" xmlns:xlink="http://www.w3.org/1999/xlink" x="0px" y="0px"
	 viewBox="0 0 250 250" style="enable-background:new 0 0 250 250;" xml:space="preserve">
<style type="text/css">
	.st0{fill:#E14343;}
	.st1{fill:#191919;}
</style>
<g>
	<g>
		<path class="st0" d="M203,12.9H15.4C6.9,12.9,0,19.8,0,28.3v156.3c0,8.5,6.9,15.4,15.4,15.4h122.9c2,0,3.7-1.6,3.7-3.7
			c0-2-1.6-3.7-3.7-3.7h-13.7V169c0-6.2-3.7-11.8-9.5-14.2l-19.2-8c-1.6-0.6-2.6-2.2-2.6-3.8v-5.7c4.9-5,7.8-11.8,7.8-19v-15.6
			c0-12.8-12.2-23.2-27.1-23.2s-27.1,10.4-27.1,23.2v15.6c0,7.2,2.9,14,7.8,19v5.7c0,1.7-1,3.2-2.6,3.8l-19.2,8
			c-5.8,2.4-9.5,8-9.5,14.2v23.7h-8.1c-4.4,0-8.1-3.6-8.1-8.1V59.3H211v60.8c0,2,1.6,3.7,3.7,3.7c2,0,3.7-1.6,3.7-3.7V28.3
			C218.4,19.8,211.5,12.9,203,12.9z M30.8,169c0-3.3,1.9-6.2,5-7.4l19.2-8c4.3-1.8,7.1-5.9,7.1-10.6v-0.8c1.3,0.1,2.7-0.6,3.4-1.8
			c1-1.8,0.4-4-1.3-5c-6.1-3.5-9.9-10.1-9.9-17.1v-15.6c0-8.8,8.9-15.9,19.8-15.9c10.9,0,19.8,7.1,19.8,15.9v15.6
			c0,7-3.8,13.6-9.9,17.1c-1.8,1-2.3,3.3-1.3,5c0.7,1.2,1.9,1.8,3.2,1.8c0.1,0,0.2,0,0.2,0v0.8c0,4.6,2.8,8.8,7.1,10.6l19.2,8
			c3,1.3,5,4.2,5,7.4v23.7H30.8V169z M211,52H7.3V28.3c0-4.4,3.6-8.1,8.1-8.1H203c4.4,0,8.1,3.6,8.1,8.1V52z"/>
	</g>
</g>
<g>
	<g>
		<path class="st1" d="M19.3,32.5L19.3,32.5c-2.1,0-3.7,1.6-3.7,3.7c0,2,1.7,3.7,3.7,3.7s3.7-1.6,3.7-3.7
			C23,34.1,21.4,32.5,19.3,32.5z"/>
	</g>
</g>
<g>
	<g>
		<path class="st1" d="M42.7,32.5L42.7,32.5c-2.1,0-3.7,1.6-3.7,3.7c0,2,1.7,3.7,3.7,3.7s3.7-1.6,3.7-3.7
			C46.4,34.1,44.8,32.5,42.7,32.5z"/>
	</g>
</g>
<g>
	<g>
		<path class="st1" d="M31,32.5L31,32.5c-2.1,0-3.7,1.6-3.7,3.7c0,2,1.7,3.7,3.7,3.7s3.7-1.6,3.7-3.7C34.7,34.1,33,32.5,31,32.5z"/>
	</g>
</g>
<g>
	<g>
		<path class="st1" d="M199.1,32.5H58.4c-2,0-3.7,1.6-3.7,3.7c0,2,1.6,3.7,3.7,3.7h140.7c2,0,3.7-1.6,3.7-3.7
			C202.7,34.1,201.1,32.5,199.1,32.5z"/>
	</g>
</g>
<g>
	<g>
		<path class="st1" d="M247.5,144.8l-52.8-18.4c-0.8-0.3-1.6-0.3-2.4,0l-37.9,13.2c-1.9,0.7-2.9,2.8-2.3,4.7
			c0.7,1.9,2.8,2.9,4.7,2.3l36.7-12.8l48.9,17c-0.4,4.7-1.9,15.2-6.6,27.7c-5.8,15.3-17.8,36.7-42.3,52.6
			c-24.4-15.9-36.4-37.1-42.2-52.3c-6.5-17-6.9-30.5-6.9-30.6c0-2-1.7-3.6-3.7-3.6c-2,0-3.6,1.7-3.6,3.7c0,0.6,0.4,14.6,7.3,32.8
			c6.3,16.7,19.7,40.3,47.2,57.4c0.6,0.4,1.3,0.6,1.9,0.6s1.3-0.2,1.9-0.6c27.5-17.1,40.9-40.7,47.2-57.4
			c6.9-18.2,7.3-32.2,7.3-32.8C250,146.7,249,145.3,247.5,144.8z"/>
	</g>
</g>
<g>
	<g>
		<path class="st0" d="M217.4,165.5c-1.4-1.4-3.7-1.4-5.2,0l-22.6,22.6l-13.5-13.5c-1.4-1.4-3.7-1.4-5.2,0c-1.4,1.4-1.4,3.7,0,5.2
			l16.1,16.1c0.7,0.7,1.7,1.1,2.6,1.1c0.9,0,1.9-0.4,2.6-1.1l25.2-25.2C218.8,169.2,218.8,166.9,217.4,165.5z"/>
	</g>
</g>
<g>
	<g>
		<path class="st1" d="M187.3,75.4h-62.5c-4.2,0-7.6,3.4-7.6,7.6v11.7c0,4.2,3.4,7.6,7.6,7.6h62.5c4.2,0,7.6-3.4,7.6-7.6V83
			C194.9,78.8,191.5,75.4,187.3,75.4z M187.6,94.7c0,0.1-0.1,0.2-0.2,0.2h-62.5c-0.1,0-0.2-0.1-0.2-0.2V83c0-0.1,0.1-0.2,0.2-0.2
			h62.5c0.1,0,0.2,0.1,0.2,0.2V94.7z"/>
	</g>
</g>
<g>
	<g>
		<path class="st1" d="M171.7,110.6h-46.9c-2,0-3.7,1.6-3.7,3.7s1.6,3.7,3.7,3.7h46.9c2,0,3.7-1.6,3.7-3.7S173.7,110.6,171.7,110.6z
			"/>
	</g>
</g>
<g>
	<g>
		<path class="st1" d="M152.2,126.2h-27.4c-2,0-3.7,1.6-3.7,3.7c0,2,1.6,3.7,3.7,3.7h27.4c2,0,3.7-1.6,3.7-3.7
			S154.2,126.2,152.2,126.2z"/>
	</g>
</g>
</svg>
