<?xml version="1.0" encoding="utf-8"?>
<!-- Generator: Adobe Illustrator 23.0.2, SVG Export Plug-In . SVG Version: 6.00 Build 0)  -->
<svg version="1.1" id="Capa_1" xmlns="http://www.w3.org/2000/svg" xmlns:xlink="http://www.w3.org/1999/xlink" x="0px" y="0px"
	 viewBox="0 0 46.2 46.2" style="enable-background:new 0 0 46.2 46.2;" xml:space="preserve">
<style type="text/css">
	.st0{fill:#003E50;}
	.st1{fill:#191919;}
</style>
<g>
	<g>
		<path class="st0" d="M8.5,32c-1.3-1.7-2.2-4.7-2.2-8.2c0-9.5,7.7-17.2,17.2-17.2c2.2,0,3.9,0.4,5.6,0.9L27,5.3
			c-1.3,0-2.2-0.4-3.4-0.4c-10.3,0-18.9,8.6-18.9,18.9c0,3.4,0.9,6.9,2.2,9L8.5,32z"/>
		<path class="st0" d="M39.9,19.9c0.4,1.3,0.4,2.6,0.4,4.3c0,9.5-7.7,17.2-17.2,17.2c-3.9,0-7.7-1.3-10.8-3.9l-1.7,1.3
			c3.4,3,7.7,4.7,12.5,4.7c10.3,0,18.9-8.6,18.9-18.9c0-0.9,0-1.3,0-2.2L39.9,19.9z"/>
		<path class="st0" d="M45.1,19.1c-0.4-1.3-4.7-7.7-4.7-7.7s3.9-3.9,4.3-4.3c0.4-0.4,1.3-1.3,0-2.6c-1.3-0.9-2.2-0.4-2.6,0
			c-0.4,0.4-3.9,3.4-3.9,3.4S31.3,2.7,30,2.7s-1.7,0.9-1.7,0.9l6.9,6.9l-3.4,3.9l-3.4-0.4l-1.7,0.9c0,0,3.4,1.3,3.9,2.2
			c0.9,0.9,1.7,3.9,1.7,3.9l1.7-0.9L33,16.1l3.9-3l6.9,7.3C43.8,20.8,45.5,19.9,45.1,19.1z"/>
		<path class="st1" d="M29.2,18.2c-0.4-0.4-1.7-0.9-1.7-0.9C18.8,25.5,8.5,34.6,6.4,35c-0.9,0-1.3,0-1.7-0.4c-0.4-0.4-0.4-0.9,0-1.3
			l-1.7-3.9c-1.7,1.7-2.6,5.2-1.7,6.9s2.6,3,4.7,3h0.4c4.3-0.4,19.4-14.2,23.7-18.5C30.4,20.4,30,19.1,29.2,18.2z"/>
	</g>
</g>
</svg>
