<?xml version="1.0" encoding="utf-8"?>
<!-- Generator: Adobe Illustrator 23.0.2, SVG Export Plug-In . SVG Version: 6.00 Build 0)  -->
<svg version="1.1" id="Layer_1" xmlns="http://www.w3.org/2000/svg" xmlns:xlink="http://www.w3.org/1999/xlink" x="0px" y="0px"
	 viewBox="0 0 250 250" style="enable-background:new 0 0 250 250;" xml:space="preserve">
<style type="text/css">
	.st0{fill:#003E59;}
	.st1{fill:#191919;}
</style>
<g>
	<path class="st0" d="M246,32.5v136.9c0,15.2-12.3,27.5-27.5,27.5H130v38h44c2.8,0,5,2.2,5,5s-2.2,5-5,5H78.7c-2.8,0-5-2.2-5-5
		s2.2-5,5-5H120v-38H31.5C16.3,196.9,4,184.6,4,169.4V32.5C4,17.3,16.3,5,31.5,5h187.1C233.7,5,246,17.3,246,32.5z M235.9,169.4
		v-14.7H14.1v14.7c0,9.6,7.8,17.4,17.4,17.4h187.1C228.1,186.8,235.9,179.1,235.9,169.4z M235.9,144.6V32.5
		c0-9.6-7.8-17.4-17.4-17.4h-187c-9.6,0-17.4,7.8-17.4,17.4v112.1H235.9z"/>
	<path class="st1" d="M213.2,79.6v49.9c0,2.5-2,4.5-4.5,4.5h-83.3c-2.5,0-4.5-2-4.5-4.5V52.7c0-2.5,2-4.5,4.5-4.5h4.7v-6.1
		c0-2.5,2-4.5,4.5-4.5h9.5v-9.1c0-2.5,2-4.5,4.5-4.5s4.5,2,4.5,4.5v9.1h15.5c2.5,0,4.5,2,4.5,4.5v6.1h4.7c2.5,0,4.5,2,4.5,4.5v22.4
		h26.6C211.2,75.1,213.2,77.1,213.2,79.6z M204.2,125v-6c-0.7,1.6-2.3,2.6-4.1,2.6h-14c-1.7,0-3.3-1-4-2.5v5.8L204.2,125L204.2,125z
		 M204.2,115.3v-8.7c-0.7,1.6-2.3,2.6-4.1,2.6h-14c-1.7,0-3.3-1-4-2.5v8.3c0.8-1.5,2.3-2.5,4-2.5h14
		C201.9,112.7,203.5,113.7,204.2,115.3z M204.2,103v-8.1c-0.7,1.6-2.3,2.6-4.1,2.6h-14c-1.7,0-3.3-1-4-2.5v7.7
		c0.8-1.5,2.3-2.5,4-2.5h14C201.9,100.3,203.5,101.4,204.2,103z M204.2,91.2v-7.1h-22.1v7c0.8-1.5,2.3-2.5,4-2.5h14
		C201.9,88.6,203.5,89.6,204.2,91.2z M173.2,125V57.2h-43.3V125h6.7v-14.4c0-2.5,2-4.5,4.5-4.5H162c2.5,0,4.5,2,4.5,4.5V125H173.2z
		 M164,48.2v-1.6h-25v1.6H164z M157.5,125v-9.9h-11.9v9.9H157.5z"/>
	<path class="st0" d="M167.1,68.9c2.5,0,4.5,2,4.5,4.5s-2,4.5-4.5,4.5h-31.4c-2.5,0-4.5-2-4.5-4.5s2-4.5,4.5-4.5H167.1z"/>
	<path class="st0" d="M167.1,86.9c2.5,0,4.5,2,4.5,4.5s-2,4.5-4.5,4.5h-31.4c-2.5,0-4.5-2-4.5-4.5s2-4.5,4.5-4.5H167.1z"/>
	<path class="st1" d="M94.7,108.7c2.5,0,4.5,2,4.5,4.5s-2,4.5-4.5,4.5H41.4c-2.5,0-4.5-2-4.5-4.5s2-4.5,4.5-4.5H94.7z"/>
	<path class="st1" d="M68.5,40.2c17.4,0,31.5,14.1,31.5,31.5s-14.1,31.5-31.5,31.5c-8.6,0-16.9-3.6-22.9-9.9
		c-10.7-11.3-11.5-28.8-1.9-41C49.6,44.6,58.8,40.2,68.5,40.2z M86.2,85.5c7.7-9.8,5.9-23.9-3.9-31.6S58.4,48,50.7,57.8
		c-3.1,4-4.8,8.9-4.8,13.9c0,7,3.2,13.5,8.6,17.7C64.4,97.1,78.6,95.3,86.2,85.5z"/>
	<path class="st0" d="M82.7,62.6c1.6,1.9,1.3,4.8-0.7,6.3L67,81.3c-1.9,1.5-4.7,1.3-6.2-0.6l-6.5-7.6L54.2,73
		c-1.6-1.9-1.3-4.7,0.6-6.3c1.9-1.6,4.7-1.3,6.3,0.6l3.6,4.3L76.5,62C78.3,60.5,81.1,60.7,82.7,62.6z"/>
	<path class="st1" d="M72.9,125.6c2.5,0,4.5,2,4.5,4.5c0,2.5-2,4.5-4.5,4.5H41.4c-2.5,0-4.5-2-4.5-4.5s2-4.5,4.5-4.5
		C41.4,125.6,72.9,125.6,72.9,125.6z"/>
</g>
</svg>
