<?xml version="1.0" encoding="utf-8"?>
<!-- Generator: Adobe Illustrator 23.0.2, SVG Export Plug-In . SVG Version: 6.00 Build 0)  -->
<svg version="1.1" id="Layer_1" xmlns="http://www.w3.org/2000/svg" xmlns:xlink="http://www.w3.org/1999/xlink" x="0px" y="0px"
	 viewBox="0 0 512 512" style="enable-background:new 0 0 512 512;" xml:space="preserve">
<style type="text/css">
	.st0{fill:#191919;}
	.st1{fill:#003E59;}
</style>
<g>
	<g>
		<path class="st0" d="M398.9,313.5c-9.7-20.3-44.6-48.5-78.2-75.7c-18.8-15.2-36.5-29.5-47.8-40.8c-2.8-2.9-7.1-3.8-10.8-2.4
			c-7,2.5-11.3,4.5-14.7,6c-5.2,2.3-6.9,3.1-13.9,3.8c-3.1,0.3-5.8,2-7.6,4.5c-14.6,21.8-29.7,20-39.8,16.6
			c-3.2-1.1-3.8-2.5-4.1-3.8c-2.2-9.1,8.7-30.2,22.8-44.3c33.6-33.6,50.9-42,87.5-25.7c41.5,18.6,83.1,33.1,83.5,33.2
			c5.4,1.9,11.3-1,13.2-6.4c1.9-5.4-1-11.3-6.4-13.2c-0.4-0.1-41.2-14.4-81.8-32.6c-47.4-21.2-73.4-7.2-110.5,29.9
			c-14.1,14.1-33.3,42.7-28.4,63.7c2.1,8.9,8.4,15.5,17.8,18.6c23.4,7.7,44.8,0.3,60.7-20.8c6.6-1,10.1-2.5,15.5-4.9
			c1.9-0.9,4.2-1.9,7.2-3.1c11.8,11.1,27.8,24,44.6,37.6c30.4,24.6,64.8,52.4,72.6,68.5c3.8,8-0.3,13.1-3.1,15.5
			c-4.1,3.5-9.7,4.6-12.7,2.5c-3.3-2.3-7.7-2.4-11.2-0.4c-3.5,2.1-5.4,6-5,10c0.7,6.6-5.3,10.3-7.9,11.6c-6.6,3.3-13.5,2.8-16.1,0.4
			c-2.9-2.7-7-3.5-10.7-2.1s-6.2,4.8-6.6,8.7c-0.6,6.8-5.6,13.3-12.2,15.8c-3.2,1.2-7.7,1.9-11.9-1.8c-2.6-2.3-6.1-3.2-9.4-2.4
			c-3.4,0.8-6.1,3.3-7.3,6.5c-0.4,1-1.3,3.5-11,3.5c-6.9,0-19.3-4.6-25.3-8.7c-7.3-4.8-52.7-38.7-92-71.6
			c-5.5-4.6-15.1-14.6-23.5-23.4c-7.5-7.8-14.3-14.9-17.8-17.9c-4.4-3.7-10.9-3.2-14.6,1.2c-3.7,4.4-3.1,10.9,1.2,14.6
			c3.2,2.7,9.4,9.3,16.2,16.4c9.2,9.6,18.7,19.6,25.2,25c38.5,32.2,84.7,67,93.9,73.1c7.6,5,24,12,36.7,12c10.2,0,18-2.3,23.5-6.9
			c7.3,2.8,15.5,2.9,23.5-0.2c9.4-3.6,17.1-11,21.5-19.9c8.1,1.7,17.5,0.5,25.9-3.7c8.3-4.2,14.3-10.6,17.3-18
			c8.2,0.4,16.7-2.5,23.7-8.5C402.5,343.6,405.7,327.8,398.9,313.5z"/>
	</g>
</g>
<g>
	<g>
		<path class="st0" d="M213.9,142.3h-93c-5.7,0-10.3,4.6-10.3,10.3s4.6,10.3,10.3,10.3h93c5.7,0,10.3-4.6,10.3-10.3
			C224.3,147,219.6,142.3,213.9,142.3z"/>
	</g>
</g>
<g>
	<g>
		<path d="M429.2,291.6c-3.2-4.7-9.6-6-14.3-2.8L384.6,309c-4.7,3.2-6,9.6-2.8,14.3c2,3,5.3,4.6,8.6,4.6c2,0,4-0.6,5.7-1.8
			l30.2-20.3C431.1,302.7,432.3,296.3,429.2,291.6z"/>
	</g>
</g>
<g>
	<g>
		<path class="st0" d="M365,340.9c-7.4-5.8-40.5-39.7-60.9-61c-3.9-4.1-10.5-4.3-14.6-0.3c-4.1,3.9-4.3,10.5-0.3,14.6
			c5.3,5.5,52.2,54.4,63.1,63c1.9,1.5,4.2,2.2,6.4,2.2c3,0,6.1-1.4,8.1-3.9C370.3,350.9,369.5,344.4,365,340.9z"/>
	</g>
</g>
<g>
	<g>
		<path class="st0" d="M323.7,361.6c-12.4-9.9-43.5-42.9-50.5-50.6c-3.9-4.2-10.4-4.5-14.6-0.6c-4.2,3.9-4.5,10.4-0.6,14.6
			c0.4,0.4,37.5,40.5,52.8,52.7c1.9,1.5,4.2,2.3,6.4,2.3c3,0,6-1.3,8.1-3.9C328.9,371.7,328.2,365.1,323.7,361.6z"/>
	</g>
</g>
<g>
	<g>
		<path class="st0" d="M282.6,382.4c-14.7-12.4-44.9-44.5-50.8-50.8c-3.9-4.2-10.5-4.4-14.6-0.5c-4.2,3.9-4.4,10.4-0.5,14.6
			c8.5,9.1,37.3,39.7,52.6,52.5c1.9,1.6,4.3,2.4,6.7,2.4c2.9,0,5.9-1.3,7.9-3.7C287.5,392.6,287,386.1,282.6,382.4z"/>
	</g>
</g>
<g>
	<g>
		<path class="st1" d="M128,124.5c-17.7-16.8-88.5-22.2-109.8-23.5c-2.9-0.1-5.6,0.8-7.7,2.8c-2.1,1.9-3.2,4.7-3.2,7.5v186
			c0,5.7,4.6,10.3,10.3,10.3h62c4.5,0,8.4-2.9,9.8-7.1c1.5-4.6,37.1-113.9,41.8-167.6C131.5,129.7,130.3,126.6,128,124.5z M72,287
			H27.9V122.4c33.2,2.6,69,8.3,82.1,14.7C104.5,182.3,79.7,262.7,72,287z"/>
	</g>
</g>
<g>
	<g>
		<path class="st1" d="M492.9,121.7c-81.1,0-126.1,20.8-128,21.6c-2.7,1.3-4.7,3.6-5.5,6.4s-0.4,5.9,1.1,8.4
			c12.8,20.6,52.8,134.8,60.4,162.6c1.2,4.5,5.3,7.6,10,7.6h62c5.7,0,10.3-4.6,10.3-10.3V132C503.2,126.3,498.6,121.7,492.9,121.7z
			 M482.6,307.6h-43.9c-9.8-31.9-38.7-115.1-54.9-149.5c15.8-5.4,49.6-14.5,98.8-15.7L482.6,307.6L482.6,307.6z"/>
	</g>
</g>
</svg>
