<?xml version="1.0" encoding="utf-8"?>
<!-- Generator: Adobe Illustrator 23.0.2, SVG Export Plug-In . SVG Version: 6.00 Build 0)  -->
<svg version="1.1" id="Layer_1" xmlns="http://www.w3.org/2000/svg" xmlns:xlink="http://www.w3.org/1999/xlink" x="0px" y="0px"
	 viewBox="0 0 250 250" style="enable-background:new 0 0 250 250;" xml:space="preserve">
<style type="text/css">
	.st0{fill:#E14343;}
	.st1{fill:#191919;}
</style>
<g>
	<g>
		<g>
			<path class="st0" d="M237.6,121.6h-54.7v-7.7h14.8c1.9,0,3.4-1.5,3.4-3.4c0-1.9-1.5-3.4-3.4-3.4h-14.8v-7.7h10.2
				c3.8,0,7.4-1.5,10.1-4.2l22.4-22.4c1.5,0.7,3.1,1.1,4.7,1.1c2.8,0,5.5-1.1,7.5-3.1c2-2,3.1-4.7,3.1-7.5s-1.1-5.5-3.1-7.5
				c-2-2-4.7-3.1-7.5-3.1c-2.8,0-5.5,1.1-7.5,3.1c-2,2-3.1,4.7-3.1,7.5c0,1.7,0.4,3.3,1.1,4.7l-22.4,22.4c-1.4,1.4-3.3,2.2-5.3,2.2
				h-10.2V85c0-9.9-8-17.9-17.9-17.9h-7.5V37c4.2-1.4,7.3-5.4,7.3-10.1c0-5.9-4.8-10.7-10.7-10.7s-10.7,4.8-10.7,10.7
				c0,4.7,3,8.7,7.3,10.1v30.1h-7.7V52.4c0-1.9-1.5-3.4-3.4-3.4c-1.9,0-3.4,1.5-3.4,3.4v14.8h-7.7V12.4c0-1.9-1.5-3.4-3.4-3.4
				c-1.9,0-3.4,1.5-3.4,3.4v54.7h-7.7V52.4c0-1.9-1.5-3.4-3.4-3.4c-1.9,0-3.4,1.5-3.4,3.4v14.8h-7.7V56.9c0-3.8-1.5-7.4-4.2-10.1
				L72.8,24.4c2-4,1.3-9-2-12.3C66.6,8,59.9,8,55.7,12.1c-4.2,4.2-4.2,10.9,0,15.1c2.1,2.1,4.8,3.1,7.5,3.1c1.6,0,3.2-0.4,4.7-1.1
				l22.4,22.4c1.4,1.4,2.2,3.3,2.2,5.3v10.2H85c-1.5,0-3,0.2-4.5,0.6c-1.8,0.5-2.9,2.3-2.4,4.1c0.5,1.8,2.3,2.9,4.1,2.4
				c0.9-0.2,1.8-0.4,2.8-0.4H165c6.1,0,11.1,5,11.1,11.1V165c0,0.9-0.1,1.9-0.3,2.8c-0.5,1.8,0.6,3.7,2.4,4.1
				c0.3,0.1,0.6,0.1,0.8,0.1c1.5,0,2.9-1,3.3-2.6c0.4-1.5,0.6-3,0.6-4.5v-7.5H213c1.4,4.2,5.4,7.3,10.1,7.3
				c5.9,0,10.7-4.8,10.7-10.7c0-5.9-4.8-10.7-10.7-10.7c-4.7,0-8.7,3-10.1,7.3h-30.1v-7.7h14.8c1.9,0,3.4-1.5,3.4-3.4
				s-1.5-3.4-3.4-3.4h-14.8v-7.7h54.7c1.9,0,3.4-1.5,3.4-3.4S239.5,121.6,237.6,121.6z M227.6,60.5c0.7-0.7,1.7-1.1,2.7-1.1
				s2,0.4,2.7,1.1s1.1,1.7,1.1,2.7c0,1-0.4,2-1.1,2.7c-0.7,0.7-1.7,1.1-2.7,1.1s-2-0.4-2.7-1.1s-1.1-1.7-1.1-2.7
				S226.9,61.2,227.6,60.5z M66,22.4c-1.5,1.5-4,1.5-5.5,0c-1.5-1.5-1.5-4,0-5.5c0.8-0.8,1.7-1.1,2.7-1.1c1,0,2,0.4,2.7,1.1
				C67.5,18.4,67.5,20.9,66,22.4z M154.1,30.8c-2.1,0-3.9-1.7-3.9-3.9s1.7-3.9,3.9-3.9c2.1,0,3.9,1.7,3.9,3.9S156.2,30.8,154.1,30.8
				z M223.1,150.2c2.1,0,3.9,1.7,3.9,3.9c0,2.1-1.7,3.9-3.9,3.9s-3.9-1.7-3.9-3.9C219.2,151.9,220.9,150.2,223.1,150.2z"/>
		</g>
	</g>
	<g>
		<g>
			<path class="st1" d="M194.3,222.8c-3.3-3.3-8.3-4-12.3-2l-22.4-22.4c-1.4-1.4-2.2-3.3-2.2-5.3v-10.2h7.5c1.5,0,3-0.2,4.5-0.6
				c1.8-0.5,2.9-2.3,2.4-4.1c-0.5-1.8-2.3-2.9-4.1-2.4c-0.9,0.2-1.8,0.4-2.8,0.4H85c-6.1,0-11.1-5-11.1-11.1V85
				c0-0.9,0.1-1.9,0.4-2.8c0.5-1.8-0.6-3.7-2.4-4.1c-1.8-0.5-3.7,0.6-4.1,2.4c-0.4,1.5-0.6,3-0.6,4.5v7.5H37
				c-1.4-4.2-5.4-7.3-10.1-7.3c-5.9,0-10.7,4.8-10.7,10.7c0,5.9,4.8,10.7,10.7,10.7c4.7,0,8.7-3,10.1-7.3h30.1v7.7H52.4
				c-1.9,0-3.4,1.5-3.4,3.4c0,1.9,1.5,3.4,3.4,3.4h14.8v7.7H12.4c-1.9,0-3.4,1.5-3.4,3.4c0,1.9,1.5,3.4,3.4,3.4h54.7v7.7H52.4
				c-1.9,0-3.4,1.5-3.4,3.4s1.5,3.4,3.4,3.4h14.8v7.7H56.9c-3.8,0-7.4,1.5-10.1,4.2l-22.4,22.4c-1.5-0.7-3.1-1.1-4.7-1.1
				c-2.8,0-5.5,1.1-7.5,3.1c-2,2-3.1,4.7-3.1,7.5c0,2.8,1.1,5.5,3.1,7.5c2,2,4.7,3.1,7.5,3.1s5.5-1.1,7.5-3.1c2-2,3.1-4.7,3.1-7.5
				c0-1.7-0.4-3.3-1.1-4.7l22.4-22.4c1.4-1.4,3.3-2.2,5.3-2.2h10.2v7.5c0,9.9,8,17.9,17.9,17.9h7.5V213c-4.2,1.4-7.3,5.4-7.3,10.1
				c0,5.9,4.8,10.7,10.7,10.7c5.9,0,10.7-4.8,10.7-10.7c0-4.7-3-8.7-7.3-10.1v-30.1h7.7v14.8c0,1.9,1.5,3.4,3.4,3.4
				c1.9,0,3.4-1.5,3.4-3.4v-14.8h7.7v54.7c0,1.9,1.5,3.4,3.4,3.4c1.9,0,3.4-1.5,3.4-3.4v-54.7h7.7v14.8c0,1.9,1.5,3.4,3.4,3.4
				c1.9,0,3.4-1.5,3.4-3.4v-14.8h7.7v10.2c0,3.8,1.5,7.4,4.2,10.1l22.4,22.4c-2,4-1.3,9,2,12.3c2.1,2.1,4.8,3.1,7.5,3.1
				c2.7,0,5.5-1,7.5-3.1C198.4,233.7,198.4,227,194.3,222.8z M26.9,99.8c-2.1,0-3.9-1.7-3.9-3.9c0-2.1,1.7-3.9,3.9-3.9
				s3.9,1.7,3.9,3.9C30.8,98.1,29.1,99.8,26.9,99.8z M22.4,189.5c-0.7,0.7-1.7,1.1-2.7,1.1c-1,0-2-0.4-2.7-1.1s-1.1-1.7-1.1-2.7
				s0.4-2,1.1-2.7c0.7-0.7,1.7-1.1,2.7-1.1s2,0.4,2.7,1.1s1.1,1.7,1.1,2.7S23.1,188.8,22.4,189.5z M99.8,223.1
				c0,2.1-1.7,3.9-3.9,3.9c-2.1,0-3.9-1.7-3.9-3.9c0-2.1,1.7-3.9,3.9-3.9C98.1,219.2,99.8,220.9,99.8,223.1z M189.5,233.1
				c-1.5,1.5-4,1.5-5.5,0c-1.5-1.5-1.5-4,0-5.5c0.8-0.8,1.7-1.1,2.7-1.1c1,0,2,0.4,2.7,1.1C191,229.1,191,231.6,189.5,233.1z"/>
		</g>
	</g>
	<g>
		<g>
			<path class="st0" d="M161.1,115.9c0-7.3-5.3-13.4-12.6-15.4c0.2-0.9,0.3-1.8,0.3-2.7c0-6.9-6.1-12.5-13.6-12.5
				c-4.1,0-7.7,1.6-10.2,4.2c-2.5-2.6-6.1-4.2-10.2-4.2c-7.5,0-13.6,5.6-13.6,12.5c0,0.9,0.1,1.8,0.3,2.7c-7.3,2-12.6,8.2-12.6,15.4
				c0,3.6,1.3,6.9,3.6,9.7c-2.3,2.9-3.6,6.5-3.6,10.3c0,5.8,3.1,11.2,8.2,14.5c0,0,0,0,0,0c0,7.9,7,14.3,15.7,14.3
				c5,0,9.4-2.1,12.3-5.4c2.9,3.3,7.3,5.4,12.3,5.4c8.3,0,15.1-5.9,15.6-13.4c5-2.9,8.2-8.1,8.2-13.6c0-4.1-1.7-8-4.7-10.9
				C159.4,123.9,161.1,120,161.1,115.9z M149.1,129.8c3.3,1.7,5.2,4.7,5.2,7.9c0,2.4-1.1,4.7-3,6.4c-1.8-3.3-4.9-5.9-8.9-7.2
				c-1.8-0.6-3.7,0.4-4.3,2.2c-0.6,1.8,0.4,3.7,2.2,4.3c3.5,1.1,5.8,3.9,5.8,7c0,4.1-4,7.5-8.9,7.5c-4.9,0-8.9-3.4-8.9-7.5v-21.8
				c0-4.1,4-7.5,8.9-7.5c1.9,0,3.4-1.5,3.4-3.4c0-1.9-1.5-3.4-3.4-3.4c-3.3,0-6.3,0.9-8.9,2.5v-4.3c0-1.9-1.5-3.4-3.4-3.4
				c-1.9,0-3.4,1.5-3.4,3.4v18.9c-1.1-0.7-2.4-1.3-3.8-1.7c-1.8-0.6-3.7,0.4-4.3,2.2c-0.6,1.8,0.4,3.7,2.2,4.3
				c3.5,1.1,5.8,3.9,5.8,7v7.3c0,4.1-4,7.5-8.9,7.5c-4.9,0-8.9-3.4-8.9-7.5c0-1.8,0.8-3.5,2.1-4.9c1.3-1.3,1.3-3.5,0-4.8
				c-1.3-1.3-3.5-1.3-4.8,0c-0.8,0.8-1.5,1.7-2.1,2.6c-2.1-2-3.4-4.7-3.4-7.5c0-5,4-9.5,9.6-10.8c1.8-0.4,3-2.2,2.6-4.1
				c-0.4-1.8-2.2-3-4.1-2.6c-2.3,0.5-4.4,1.4-6.2,2.5c-1.2-1.5-1.9-3.3-1.9-5.1c0-5.1,4.8-9.3,10.8-9.3c0,0,0.1,0,0.1,0
				c0.8,0,1.6-0.3,2.2-0.8c1.3-1.1,1.6-3,0.7-4.4c0,0,0-0.1-0.1-0.1c0,0,0,0,0-0.1c-0.1-0.1-0.1-0.1-0.2-0.2c0,0,0,0,0,0
				c-0.6-0.7-1.2-1.8-1.2-3.3c0-3.1,3.1-5.7,6.8-5.7c3.8,0,6.8,2.5,6.8,5.7c0,1.9,1.5,3.4,3.4,3.4c1.9,0,3.4-1.5,3.4-3.4
				c0-3.1,3.1-5.7,6.8-5.7s6.8,2.5,6.8,5.7c0,0.8-0.2,1.6-0.5,2.1c-1.9,0.2-3.8,0.6-5.6,1.4c-1.7,0.7-2.5,2.7-1.8,4.5
				c0.7,1.7,2.7,2.5,4.5,1.8c1.5-0.6,3-0.9,4.7-1c0,0,0.1,0,0.1,0c0,0,0.1,0,0.1,0c6,0,10.8,4.2,10.8,9.3c0,3.2-2,6.2-5.2,7.9
				c-1.1,0.6-1.8,1.7-1.8,3C147.2,128.1,147.9,129.2,149.1,129.8z"/>
		</g>
	</g>
</g>
</svg>
