<?xml version="1.0" encoding="utf-8"?>
<!-- Generator: Adobe Illustrator 23.0.2, SVG Export Plug-In . SVG Version: 6.00 Build 0)  -->
<svg version="1.1" id="Layer_1" xmlns="http://www.w3.org/2000/svg" xmlns:xlink="http://www.w3.org/1999/xlink" x="0px" y="0px"
	 viewBox="0 0 250 250" style="enable-background:new 0 0 250 250;" xml:space="preserve">
<style type="text/css">
	.st0{fill:#003E59;}
	.st1{fill:#191919;}
</style>
<g>
	<g>
		<path class="st0" d="M242.1,194H234V72.7c0-12.4-9.7-22.5-21.8-23.3c-3-18.9-19.4-33.4-39.1-33.4C153.4,16,137,30.5,134,49.3H39.4
			C26.5,49.3,16,59.8,16,72.7V194H7.9c-2.6,0-4.8,2.1-4.8,4.8C3.2,218.2,19,234,38.4,234h24c2.6,0,4.8-2.1,4.8-4.8s-2.1-4.8-4.8-4.8
			h-24c-12.5,0-23-9-25.3-20.9h7.6h208.5h7.6c-2.2,11.9-12.7,20.9-25.3,20.9H99.7c-2.6,0-4.8,2.1-4.8,4.8s2.1,4.8,4.8,4.8h111.9
			c19.4,0,35.2-15.8,35.2-35.2C246.8,196.1,244.7,194,242.1,194z M173.1,25.5c16.6,0,30.1,13.5,30.1,30.1c0,6.9-2.4,13.6-6.7,19
			c-0.1,0.1-0.1,0.1-0.1,0.2l-23.2,29.7l-22.9-29.3c-0.1-0.1-0.2-0.3-0.3-0.4c-4.4-5.4-6.9-12.2-6.9-19.1
			C143,39,156.5,25.5,173.1,25.5z M25.5,194v-40.6L55,164.6L66.1,194H25.5z M64.2,162.1l7.7-7.7c1.9-1.9,1.9-4.9,0-6.7
			c-1.9-1.9-4.9-1.9-6.7,0l-7.7,7.7l-20.9-7.9l47.6-12.1L72.1,183L64.2,162.1z M224.5,194H79.1l16.2-64c0.4-1.6-0.1-3.3-1.2-4.5
			c-1.2-1.2-2.9-1.7-4.5-1.2l-64,16.2V72.7c0-7.7,6.2-13.9,13.9-13.9h94.2c0.7,7.9,3.7,15.4,8.6,21.6c0.1,0.1,0.1,0.2,0.2,0.2
			l26.9,34.4c0.9,1.2,2.3,1.8,3.8,1.8s2.9-0.7,3.8-1.8l27-34.6l0,0c5-6.1,8-13.6,8.6-21.5c6.8,0.9,12,6.7,12,13.7V194H224.5z"/>
	</g>
	<g>
		<g>
			<path class="st1" d="M85.9,225.9c-0.9-0.9-2.1-1.4-3.4-1.4s-2.5,0.5-3.4,1.4s-1.4,2.1-1.4,3.4c0,1.3,0.5,2.5,1.4,3.4
				s2.1,1.4,3.4,1.4s2.5-0.5,3.4-1.4s1.4-2.1,1.4-3.4S86.8,226.8,85.9,225.9z"/>
		</g>
	</g>
	<g>
		<g>
			<path class="st1" d="M136.4,209.2h-22.8c-2.6,0-4.8,2.1-4.8,4.8c0,2.6,2.1,4.8,4.8,4.8h22.8c2.6,0,4.8-2.1,4.8-4.8
				C141.2,211.4,139.1,209.2,136.4,209.2z"/>
		</g>
	</g>
	<g>
		<g>
			<path class="st1" d="M173.1,36.1c-11,0-20,9-20,20s9,20,20,20s20-9,20-20S184.1,36.1,173.1,36.1z M173.1,66.6
				c-5.8,0-10.5-4.7-10.5-10.5s4.7-10.5,10.5-10.5s10.5,4.7,10.5,10.5S178.8,66.6,173.1,66.6z"/>
		</g>
	</g>
	<g>
		<g>
			<path class="st1" d="M125,91.2H46.9c-2.6,0-4.8,2.1-4.8,4.8c0,2.6,2.1,4.8,4.8,4.8H125c2.6,0,4.8-2.1,4.8-4.8
				C129.8,93.3,127.6,91.2,125,91.2z"/>
		</g>
	</g>
	<g>
		<g>
			<path class="st1" d="M144.5,92.6c-0.9-0.9-2.1-1.4-3.4-1.4c-1.3,0-2.5,0.5-3.4,1.4s-1.4,2.1-1.4,3.4s0.5,2.5,1.4,3.4
				s2.1,1.4,3.4,1.4c1.3,0,2.5-0.5,3.4-1.4s1.4-2.1,1.4-3.4S145.4,93.5,144.5,92.6z"/>
		</g>
	</g>
	<g>
		<g>
			<path class="st1" d="M110.7,68.8H87.1c-2.6,0-4.8,2.1-4.8,4.8c0,2.6,2.1,4.8,4.8,4.8h23.6c2.6,0,4.8-2.1,4.8-4.8
				C115.5,71,113.3,68.8,110.7,68.8z"/>
		</g>
	</g>
	<g>
		<g>
			<path class="st1" d="M211.2,168.3h-57.8c-2.6,0-4.8,2.1-4.8,4.8s2.1,4.8,4.8,4.8h57.8c2.6,0,4.8-2.1,4.8-4.8
				S213.8,168.3,211.2,168.3z"/>
		</g>
	</g>
	<g>
		<g>
			<path class="st1" d="M211.2,137.4h-18.1c-2.6,0-4.8,2.1-4.8,4.8c0,2.6,2.1,4.8,4.8,4.8h18.1c2.6,0,4.8-2.1,4.8-4.8
				S213.8,137.4,211.2,137.4z"/>
		</g>
	</g>
	<g>
		<g>
			<path class="st1" d="M141.2,112.2H106c-2.6,0-4.8,2.1-4.8,4.8c0,2.6,2.1,4.8,4.8,4.8h35.2c2.6,0,4.8-2.1,4.8-4.8
				C145.9,114.3,143.8,112.2,141.2,112.2z"/>
		</g>
	</g>
	<g>
		<g>
			<path class="st1" d="M173.1,121.2c-2.6,0-4.8,2.1-4.8,4.8v3.8c0,4.2-3.4,7.6-7.6,7.6h-35.8c-9.5,0-17.2,7.7-17.2,17.2v13.8H96.9
				c-2.6,0-4.8,2.1-4.8,4.8s2.1,4.8,4.8,4.8h31.2c2.6,0,4.8-2.1,4.8-4.8s-2.1-4.8-4.8-4.8h-10.8v-13.8c0-4.2,3.4-7.6,7.6-7.6h35.8
				c9.5,0,17.2-7.7,17.2-17.2V126C177.8,123.3,175.7,121.2,173.1,121.2z"/>
		</g>
	</g>
</g>
</svg>
