<?xml version="1.0" encoding="utf-8"?>
<!-- Generator: Adobe Illustrator 23.0.2, SVG Export Plug-In . SVG Version: 6.00 Build 0)  -->
<svg version="1.1" id="Layer_1" xmlns="http://www.w3.org/2000/svg" xmlns:xlink="http://www.w3.org/1999/xlink" x="0px" y="0px"
	 viewBox="0 0 512 512" style="enable-background:new 0 0 512 512;" xml:space="preserve">
<style type="text/css">
	.st0{fill:#003E59;}
	.st1{fill:#191919;}
</style>
<g>
	<g>
		<g>
			<path class="st0" d="M500.1,286.6l-107.6,46.1v-38.3c0-6.1-6.3-10.3-11.9-7.8l-117.9,50.5h-23.8V272c0-11.2-9.1-20.3-20.3-20.3
				H191c-11.2,0-20.3,9.1-20.3,20.3v65h-25.6H136l-16.5-222.5c-0.3-4.5-4-7.9-8.5-7.9H59.7c-4.5,0-8.2,3.4-8.5,7.9L34.7,337.1h-9.1
				c-4.3,0-8,3.3-8.5,7.6l-17,153.6c-0.6,5.1,3.4,9.5,8.5,9.5h51.2l0,0H111l0,0h51.2h102.4h42.6l0,0h34.1l0,0H384h42.6l0,0h34.1l0,0
				h42.6c4.7,0,8.5-3.8,8.5-8.5V294.4C512,288.3,505.7,284.2,500.1,286.6z M187.7,272.1c0-1.8,1.4-3.2,3.2-3.2h27.7
				c1.8,0,3.2,1.4,3.2,3.2v65h-34.1L187.7,272.1L187.7,272.1z M179.2,354.2h51.2H256v136.5h-86.2l-15.2-136.5H179.2L179.2,354.2z
				 M67.7,123.8H103l15.8,213.3h-67L67.7,123.8z M33.2,354.2h9.4H128h9.4l6.7,60.7l8.4,75.8h-33.1V431c0-4.7-3.8-8.5-8.5-8.5H59.7
				c-4.7,0-8.5,3.8-8.5,8.5v59.7H18.1L33.2,354.2z M68.3,490.7v-51.2h34.1v51.2H68.3z M273.1,351.3l102.4-43.9v38.3v145.1h-25.6
				v-51.2c0-4.7-3.8-8.5-8.5-8.5h-34.1c-4.7,0-8.5,3.8-8.5,8.5v51.2h-25.6L273.1,351.3L273.1,351.3z M315.7,490.7V448h17.1v42.7
				H315.7z M452.3,490.7h-17.1V448h17.1V490.7z M494.9,490.7h-25.6v-51.2c0-4.7-3.8-8.5-8.5-8.5h-34.1c-4.7,0-8.5,3.8-8.5,8.5v51.2
				h-25.6V351.3L495,307.4L494.9,490.7L494.9,490.7z"/>
			<path class="st1" d="M97,89.1c0.6-0.2,1.7-0.7,3.4-1.2c2.8-1,5.9-1.9,9.2-2.8c6.8-1.8,13.4-3.2,19.5-3.7
				c15.1-1.4,23.2,1.8,24.7,9.9c0.1,1.5,0.7,5.1,1.8,9.7c1.8,7.6,4.3,15.1,7.8,22.3c10.3,21.3,26.7,34.7,50,34.7
				c9,0.2,18-0.1,26.8-1.3c11.7-1.7,21-4.7,26.7-9.9c12.8,12.8,25.2,20.8,37,25c8.2,2.9,15.2,3.8,20.5,3.3
				c17.2-0.2,33.1-7.3,47.7-19c4.7-3.7,8.9-7.7,12.7-11.7c14.3,11.2,29.3,14.6,41.6,13.6c3-0.1,5.1-0.1,7.2-0.2
				c63.8-1.5,96.5-77.7,52.3-123.5c-1-1-1.8-1.8-2.3-2.2c-5.5-4.9-14.2-1.1-14.2,6.3c0,22.3-5.2,34.6-13.3,39.9
				c-3.8,2.5-7.7,3.2-10.8,2.9c-0.1,0-1.5-0.1-1.5-0.1c-16,0-32.4-14.6-46.1-36.2c-8.1-12.7-17.8-23-29.1-30.6
				c-11.9-7.9-21.2-10.6-27.7-10C320,4.4,303,11.6,289.6,23.5c-1.8,1.6-3.5,3.3-5,4.9c-4-5.5-9.9-9.6-17.1-12.2
				c-7.3-2.6-14.5-3.5-20-3.4c-19.7,0-36.1,3.4-49.2,9.3c-6,2.7-10.5,5.4-13.6,7.8h-13.9c-29.6,0-51.9,8.8-67.7,23.6
				c-9.7,9.1-15,18.3-17.2,24.9C83.5,85.3,90.2,91.7,97,89.1z M170.7,47h17.1c2.2,0,4.4-0.9,6-2.5c1.5-1.4,5.2-4,11.4-6.8
				c11-4.9,24.9-7.8,42.3-7.8c3.8,0,9.1,0.6,14.2,2.4c7.6,2.8,11.4,7.2,11.4,14.7c0,9.1,12.3,11.9,16.2,3.7c0.3-0.7,1.2-2.2,2.6-4.2
				c2.4-3.5,5.4-7,9.1-10.2c10.4-9.3,23.7-14.9,40.4-14.9l1.6-0.1c-0.1,0,1.1,0.1,3,0.7c3.6,1,7.9,3.1,13.1,6.6
				c9.2,6.2,17.3,14.8,24.2,25.6c16.6,25.9,36.4,43.8,59.9,44.1c7.2,0.7,14.9-0.7,22.4-5.6c9.1-6.1,15.5-16.2,18.7-30.9
				c15.9,34.4-8.6,78.2-51.1,79.1c-2.1,0.1-4.2,0.1-6.5,0.1l-1.3,0.1c-3.3,0.3-7.1,0-11.6-1c-6.7-1.6-13.4-4.7-19.6-9.9
				c-1.4-1.2-2.8-2.4-4.1-3.8c-3.6-3.6-9.7-3.3-12.8,0.8c-0.7,0.9-2,2.5-4.1,4.7c-3.4,3.7-7.4,7.4-11.7,10.9
				c-12,9.6-24.7,15.2-37.2,15.2l-1.4,0.1c-2.8,0.2-7.3-0.3-13.2-2.4c-9.4-3.4-19.7-10-30.5-20.9l-8.5-8.5l-17.1-17.1
				c-3.3-3.3-8.7-3.3-12.1,0c-3.3,3.3-3.3,8.7,0,12.1l13.2,13.2c-2.5,2-8.1,4-16.9,5.3c-7.7,1.1-15.8,1.4-22.8,1.2
				c-0.6,0-1.1,0-1.2,0c-16.1,0-27.3-9.1-35-25.1c-2.9-5.9-5-12.3-6.5-18.8c-0.9-3.8-1.4-6.8-1.6-8.3c-3.8-19.9-20.4-26.4-43.1-24.4
				c-4.3,0.4-8.7,1.1-13.3,2C127.2,54.1,145.4,47,170.7,47z"/>
			<path class="st1" d="M187.7,465.1c4.7,0,8.5-3.8,8.5-8.5v-68.3c0-4.7-3.8-8.5-8.5-8.5s-8.5,3.8-8.5,8.5v68.3
				C179.2,461.3,183,465.1,187.7,465.1z"/>
			<path class="st1" d="M230.4,465.1c4.7,0,8.5-3.8,8.5-8.5v-68.3c0-4.7-3.8-8.5-8.5-8.5s-8.5,3.8-8.5,8.5v68.3
				C221.9,461.3,225.7,465.1,230.4,465.1z"/>
			<path class="st1" d="M307.2,405.4h34.1c4.7,0,8.5-3.8,8.5-8.5v-34.1c0-4.7-3.8-8.5-8.5-8.5h-34.1c-4.7,0-8.5,3.8-8.5,8.5v34.1
				C298.7,401.6,302.5,405.4,307.2,405.4z M315.7,371.2h17.1v17.1h-17.1V371.2z"/>
			<path class="st1" d="M426.7,405.4h34.1c4.7,0,8.5-3.8,8.5-8.5v-34.1c0-4.7-3.8-8.5-8.5-8.5h-34.1c-4.7,0-8.5,3.8-8.5,8.5v34.1
				C418.1,401.6,422,405.4,426.7,405.4z M435.2,371.2h17.1v17.1h-17.1V371.2z"/>
		</g>
	</g>
</g>
</svg>
