<?xml version="1.0" encoding="utf-8"?>
<!-- Generator: Adobe Illustrator 23.0.2, SVG Export Plug-In . SVG Version: 6.00 Build 0)  -->
<svg version="1.1" id="Layer_1" xmlns="http://www.w3.org/2000/svg" xmlns:xlink="http://www.w3.org/1999/xlink" x="0px" y="0px"
	 viewBox="0 0 250 250" style="enable-background:new 0 0 250 250;" xml:space="preserve">
<style type="text/css">
	.st0{fill:#E14343;}
	.st1{fill:#191919;}
</style>
<g>
	<path class="st0" d="M198.9,171.4l6.7-6.7l-5.2-5.2l-6.7,6.7l-7-7c5.6-10.1,8.9-21.7,8.9-34.1c0-1.1-0.1-2.1-0.2-3.1
		c17.4-4.1,29.8-19.5,29.8-37.7h-7.4c0,14.3-9.6,26.6-23.1,30.2c-5.1-33.9-34.3-59.9-69.6-59.9c-1.1,0-2.1,0.1-3.1,0.2
		c-4.1-17.4-19.5-29.8-37.7-29.8v7.4c14.3,0,26.6,9.6,30.2,23.1C80.6,60.5,54.5,89.7,54.5,125c0,1.1,0.1,2.1,0.2,3.1
		c-17.4,4.1-29.8,19.5-29.8,37.7h7.4c0-14.3,9.6-26.6,23.1-30.2c5.1,33.9,34.3,59.9,69.6,59.9c12.4,0,24-3.2,34.1-8.9l7,7l-6.7,6.7
		l5.2,5.2l6.7-6.7l35.4,35.4c3.7,3.7,8.6,5.7,13.8,5.7c10.7,0,19.4-8.7,19.4-19.4c0-5.2-2-10.1-5.7-13.8L198.9,171.4z M125,61.9
		c31.6,0,57.8,23.4,62.3,53.9L180,117c-3.9-26.9-27-47.7-55-47.7c-0.2,0-0.4,0-0.6,0l-1.2-7.4C123.8,62,124.4,61.9,125,61.9z
		 M125,76.8c26.6,0,48.2,21.6,48.2,48.2s-21.6,48.2-48.2,48.2S76.8,151.6,76.8,125S98.4,76.8,125,76.8z M61.9,125
		c0-31.6,23.4-57.8,53.9-62.3L117,70c-26.9,3.9-47.7,27-47.7,55c0,0.2,0,0.4,0,0.6l-7.4,1.2C62,126.2,61.9,125.6,61.9,125z
		 M125,188.1c-31.6,0-57.8-23.4-62.3-53.9L70,133c3.9,26.9,27,47.7,55,47.7c30.7,0,55.6-25,55.6-55.6c0-0.2,0-0.4,0-0.6l7.4-1.2
		c0,0.6,0.1,1.2,0.1,1.8C188.1,159.8,159.8,188.1,125,188.1z M165.5,182.6c6.6-4.7,12.4-10.4,17-17l5.8,5.8l-17,17L165.5,182.6z
		 M220.6,232.6c-3.2,0-6.2-1.3-8.5-3.5l-35.4-35.4l17-17l35.4,35.4c2.3,2.3,3.5,5.3,3.5,8.5C232.6,227.2,227.2,232.6,220.6,232.6z"
		/>
	<path class="st1" d="M206.6,76.8c18.4,0,33.4-15,33.4-33.4S225,10,206.6,10s-33.4,15-33.4,33.4S188.2,76.8,206.6,76.8z M217.7,66.8
		c-3.4,1.6-7.1,2.5-11.1,2.5c-4,0-7.7-0.9-11.1-2.5v-4.9c0-6.1,5-11.1,11.1-11.1s11.1,5,11.1,11.1V66.8z M199.2,36
		c0-4.1,3.3-7.4,7.4-7.4c4.1,0,7.4,3.3,7.4,7.4s-3.3,7.4-7.4,7.4C202.5,43.4,199.2,40.1,199.2,36z M206.6,17.4c14.3,0,26,11.7,26,26
		c0,7.1-2.9,13.5-7.5,18.2c-0.1-6.2-3.3-11.7-8.1-15c2.8-2.7,4.5-6.4,4.5-10.6c0-8.2-6.7-14.8-14.8-14.8c-8.2,0-14.8,6.7-14.8,14.8
		c0,4.2,1.7,7.9,4.5,10.6c-4.8,3.3-8,8.8-8.1,15c-4.6-4.7-7.5-11.1-7.5-18.2C180.6,29.1,192.3,17.4,206.6,17.4z"/>
	<path class="st1" d="M43.4,76.8c18.4,0,33.4-15,33.4-33.4S61.8,10,43.4,10S10,25,10,43.4S25,76.8,43.4,76.8z M54.5,66.8
		c-3.4,1.6-7.1,2.5-11.1,2.5s-7.7-0.9-11.1-2.5v-4.9c0-6.1,5-11.1,11.1-11.1s11.1,5,11.1,11.1V66.8z M36,36c0-4.1,3.3-7.4,7.4-7.4
		s7.4,3.3,7.4,7.4s-3.3,7.4-7.4,7.4S36,40.1,36,36z M43.4,17.4c14.3,0,26,11.7,26,26c0,7.1-2.9,13.5-7.5,18.2
		c-0.1-6.2-3.3-11.7-8.1-15c2.8-2.7,4.5-6.4,4.5-10.6c0-8.2-6.7-14.8-14.8-14.8S28.5,27.8,28.5,36c0,4.2,1.7,7.9,4.5,10.6
		c-4.8,3.3-8,8.8-8.1,15c-4.6-4.7-7.5-11.1-7.5-18.2C17.4,29.1,29.1,17.4,43.4,17.4z"/>
	<path class="st1" d="M43.4,173.2c-18.4,0-33.4,15-33.4,33.4S25,240,43.4,240s33.4-15,33.4-33.4S61.8,173.2,43.4,173.2z M54.5,230
		c-3.4,1.6-7.1,2.5-11.1,2.5s-7.7-0.9-11.1-2.5v-4.9c0-6.1,5-11.1,11.1-11.1s11.1,5,11.1,11.1V230z M36,199.2c0-4.1,3.3-7.4,7.4-7.4
		s7.4,3.3,7.4,7.4c0,4.1-3.3,7.4-7.4,7.4S36,203.3,36,199.2z M61.9,224.8c-0.1-6.2-3.3-11.7-8.1-15c2.8-2.7,4.5-6.4,4.5-10.6
		c0-8.2-6.7-14.8-14.8-14.8s-14.8,6.7-14.8,14.8c0,4.2,1.7,7.9,4.5,10.6c-4.8,3.3-8,8.8-8.1,15c-4.6-4.7-7.5-11.1-7.5-18.2
		c0-14.3,11.7-26,26-26s26,11.7,26,26C69.4,213.7,66.5,220.1,61.9,224.8z"/>
	<path class="st1" d="M84.2,117.6v18.5v3.7v3.7h81.6v-3.7v-3.7v-33.4h-22.3v33.4h-7.4V87.9h-22.3v48.2h-7.4v-18.5H84.2z M151,110.2
		h7.4v26H151V110.2z M121.3,95.3h7.4v40.8h-7.4V95.3z M99,136.1h-7.4V125H99V136.1z"/>
</g>
</svg>
