<?xml version="1.0" encoding="utf-8"?>
<!-- Generator: Adobe Illustrator 23.0.2, SVG Export Plug-In . SVG Version: 6.00 Build 0)  -->
<svg version="1.1" id="Layer_1" xmlns="http://www.w3.org/2000/svg" xmlns:xlink="http://www.w3.org/1999/xlink" x="0px" y="0px"
	 viewBox="0 0 512 512" style="enable-background:new 0 0 512 512;" xml:space="preserve">
<style type="text/css">
	.st0{fill:#003E59;}
	.st1{fill:#191919;}
</style>
<g>
	<g>
		<g>
			<g>
				<path class="st0" d="M101.9,187.8L91.1,168c-11.4,6.3-22.6,13.3-33.2,20.9L71,207.3C80.9,200.2,91.3,193.7,101.9,187.8z"/>
				<path class="st0" d="M169.7,160.6l-5.8-21.8c-12.6,3.4-25.2,7.6-37.3,12.4l8.4,20.9C146.3,167.6,157.9,163.7,169.7,160.6z"/>
				<path class="st0" d="M393.4,162.3c-11.7-5.8-23.8-11-36.2-15.4l-7.6,21.3c11.5,4.1,22.8,8.9,33.6,14.3L393.4,162.3z"/>
				<path class="st0" d="M487.2,233l-16.6,15.3c8.2,9,16,18.5,23.1,28.4l18.3-13.2C504.4,252.8,496,242.6,487.2,233z"/>
				<path class="st0" d="M415,200.8c10.1,6.7,20,14.1,29.2,22l14.7-17.2c-9.9-8.5-20.5-16.5-31.4-23.7L415,200.8z"/>
				<path class="st0" d="M0,242l17.2,14.7c7.9-9.2,16.5-18.1,25.4-26.3l-15.3-16.6C17.7,222.6,8.5,232.1,0,242z"/>
				<path class="st0" d="M181.4,171h11.3l13.8-20.9l44.2,0.3l-19.8,68.2c0,2,1.6,3.6,3.6,3.6h18.2l38-70.5l34.9,1.2
					c9.9,0,18-7.6,18-17s-8-17-18-17l-35.1,1.2l-37.7-70h-18.2c-2,0-3.6,1.6-3.6,3.6l19.6,67.7l-44.3,0.4l-13.5-20.5h-11.3
					c-1.5,0-2.7,1.2-2.7,2.7v64.1C178.7,169.8,179.9,171,181.4,171z"/>
				<path class="st1" d="M292.4,257.1c-14.8-3.4-29.9-5.1-44.9-5.1C153,252,72.3,316.4,51.3,408.7c-4,17.7-5.6,35.5-4.9,53.2H69l0,0
					c-0.7-16,0.6-32.1,4.3-48.1c7.4,1.9,40.4,11.1,39.4,21.7c-0.9,8.9-3.8,19.1-1.4,26.4h20.8c2.9-2.1,5.6-3.1,8.3-0.2
					c0.1,0.1,0.2,0.2,0.2,0.2h164c-38.6-24.6-44.1-68-44.1-68c-2.7-1.2,5.1-32-7.1-35.7c-12.2-3.7-19.8-0.7-37-8.4
					c-17.2-7.7-10.8-18.4-7.9-44c1.2-10.9,4-20.7,7.5-28.4c10.2-1.8,20.8-2.7,31.5-2.7c13.3,0,26.8,1.5,39.9,4.5
					c46.6,10.6,86.2,38.7,111.7,79.2c19.2,30.5,28.5,65.2,27.4,100.4c-1.5,1.1-3.1,2.1-4.7,3.2h27.1c1.8-40.5-8.7-80.6-30.7-115.7
					C389.5,300.7,344.8,269,292.4,257.1z"/>
			</g>
		</g>
	</g>
</g>
</svg>
