<?xml version="1.0" encoding="utf-8"?>
<!-- Generator: Adobe Illustrator 23.0.2, SVG Export Plug-In . SVG Version: 6.00 Build 0)  -->
<svg version="1.1" id="Layer_1" xmlns="http://www.w3.org/2000/svg" xmlns:xlink="http://www.w3.org/1999/xlink" x="0px" y="0px"
	 viewBox="0 0 480 480" style="enable-background:new 0 0 480 480;" xml:space="preserve">
<style type="text/css">
	.st0{fill:#003E59;}
	.st1{fill:#191919;}
</style>
<path class="st0" d="M409,131.9c14.7-11.3,20.6-30.8,14.6-48.3c-6-17.6-22.5-29.4-41.1-29.4S347.4,66,341.4,83.6s-0.1,37,14.6,48.3
	c-10.4,5.3-16.9,16-16.9,27.6v31c0,3.4,2.8,6.2,6.2,6.2c3.4,0,6.2-2.8,6.2-6.2v-31c0-10.3,8.3-18.6,18.6-18.6h24.8
	c10.3,0,18.6,8.3,18.6,18.6v105.3c0,3.4-2.8,6.2-6.2,6.2h-49.6c-3.4,0-6.2-2.8-6.2-6.2c0-3.4-2.8-6.2-6.2-6.2
	c-3.4,0-6.2,2.8-6.2,6.2c0,7.9,5,14.9,12.4,17.5v106.4h-6.2c-10.3,0-18.6,8.3-18.6,18.6v12.4c0,3.4,2.8,6.2,6.2,6.2h74.3
	c3.4,0,6.2-2.8,6.2-6.2s-2.8-6.2-6.2-6.2h-68.1v-6.2c0-3.4,2.8-6.2,6.2-6.2h61.9c3.4,0,6.2-2.8,6.2-6.2V282.3
	c7.4-2.6,12.4-9.7,12.4-17.5V159.5C425.9,147.8,419.3,137.2,409,131.9z M351.5,97.5c0-17.1,13.9-31,31-31s31,13.9,31,31
	s-13.9,31-31,31S351.5,114.7,351.5,97.5z M363.9,388.7V283.4h37.2v105.3H363.9z"/>
<path class="st1" d="M401.1,215.2v-49.6c0-3.4-2.8-6.2-6.2-6.2c-3.4,0-6.2,2.8-6.2,6.2v49.6c0,10.3-8.3,18.6-18.6,18.6h-49.6
	c-3.4,0-6.2-2.8-6.2-6.2s2.8-6.2,6.2-6.2h43.4c6.8,0,12.4-5.5,12.4-12.4v-43.4c0-3.4-2.8-6.2-6.2-6.2c-3.4,0-6.2,2.8-6.2,6.2V209
	h-43.4c-10.3,0-18.6,8.3-18.6,18.6s8.3,18.6,18.6,18.6h49.6C387.2,246.2,401.1,232.3,401.1,215.2z"/>
<path class="st0" d="M134.7,388.7h-6.2V282.3c7.4-2.6,12.4-9.7,12.4-17.5c0-3.4-2.8-6.2-6.2-6.2s-6.2,2.8-6.2,6.2
	c0,3.4-2.8,6.2-6.2,6.2H72.8c-3.4,0-6.2-2.8-6.2-6.2V159.5c0-10.3,8.3-18.6,18.6-18.6H110c10.3,0,18.6,8.3,18.6,18.6v31
	c0,3.4,2.8,6.2,6.2,6.2s6.2-2.8,6.2-6.2v-31c0-11.7-6.5-22.3-16.9-27.6c14.7-11.3,20.6-30.8,14.6-48.3c-6-17.6-22.5-29.4-41.1-29.4
	S62.5,66,56.5,83.5c-6,17.6-0.1,37,14.6,48.3c-10.4,5.3-16.9,16-16.9,27.6v105.3c0,7.9,5,14.9,12.4,17.5v112.6
	c0,3.4,2.8,6.2,6.2,6.2h61.9c3.4,0,6.2,2.8,6.2,6.2v6.2H72.8c-3.4,0-6.2,2.8-6.2,6.2s2.8,6.2,6.2,6.2h74.3c3.4,0,6.2-2.8,6.2-6.2
	v-12.4C153.3,397,145,388.7,134.7,388.7z M66.6,97.5c0-17.1,13.9-31,31-31s31,13.9,31,31s-13.9,31-31,31S66.6,114.7,66.6,97.5z
	 M79,388.7V283.4h37.2v105.3H79z"/>
<path class="st1" d="M116.1,165.7c0-3.4-2.8-6.2-6.2-6.2c-3.4,0-6.2,2.8-6.2,6.2V209c0,6.8,5.5,12.4,12.4,12.4h43.4
	c3.4,0,6.2,2.8,6.2,6.2s-2.8,6.2-6.2,6.2h-49.6c-10.3,0-18.6-8.3-18.6-18.6v-49.6c0-3.4-2.8-6.2-6.2-6.2c-3.4,0-6.2,2.8-6.2,6.2
	v49.6c0,17.1,13.9,31,31,31h49.6c10.3,0,18.6-8.3,18.6-18.6s-8.3-18.6-18.6-18.6h-43.4V165.7z"/>
<path class="st1" d="M314.4,271c3.4,0,6.2-2.8,6.2-6.2c0-3.4-2.8-6.2-6.2-6.2h-37.2V239c7.4-2.6,12.4-9.7,12.4-17.5v-24.8
	c0-3.4-2.8-6.2-6.2-6.2c-3.4,0-6.2,2.8-6.2,6.2v24.8c0,3.4-2.8,6.2-6.2,6.2c-3.4,0-6.2-2.8-6.2-6.2v-24.8c0-3.4-2.8-6.2-6.2-6.2
	c-3.4,0-6.2,2.8-6.2,6.2v24.8c0,7.9,5,14.9,12.4,17.5v19.6H240v-55.8c0-3.4-2.8-6.2-6.2-6.2v-31c0-3.4-2.8-6.2-6.2-6.2h-24.8
	c-3.4,0-6.2,2.8-6.2,6.2v31c-3.4,0-6.2,2.8-6.2,6.2v55.8h-24.8c-3.4,0-6.2,2.8-6.2,6.2v12.4c0,10.3,8.3,18.6,18.6,18.6h55.8v92.9
	h-37.2c-10.3,0-18.6,8.3-18.6,18.6v12.4c0,3.4,2.8,6.2,6.2,6.2h68.1c3.4,0,6.2-2.8,6.2-6.2s-2.8-6.2-6.2-6.2h-61.9v-6.2
	c0-3.4,2.8-6.2,6.2-6.2h86.7c3.4,0,6.2,2.8,6.2,6.2v6.2h-12.4c-3.4,0-6.2,2.8-6.2,6.2s2.8,6.2,6.2,6.2h18.6c3.4,0,6.2-2.8,6.2-6.2
	v-12.4c0-10.3-8.3-18.6-18.6-18.6h-37.2v-92.9h68.1c3.4,0,6.2-2.8,6.2-6.2c0-3.4-2.8-6.2-6.2-6.2H178.1c-3.4,0-6.2-2.8-6.2-6.2V271
	H314.4z M209.1,171.9h12.4v24.8h-12.4V171.9z M202.9,209h24.8v49.6h-24.8V209z"/>
</svg>
