<?xml version="1.0" encoding="utf-8"?>
<!-- Generator: Adobe Illustrator 23.0.2, SVG Export Plug-In . SVG Version: 6.00 Build 0)  -->
<svg version="1.1"
	 id="Layer_1" mapsvg:geoViewBox="68.184010 35.503723 97.418146 6.751272" xmlns:dc="http://purl.org/dc/elements/1.1/" xmlns:mapsvg="http://mapsvg.com" xmlns:rdf="http://www.w3.org/1999/02/22-rdf-syntax-ns#" xmlns:svg="http://www.w3.org/2000/svg"
	 xmlns="http://www.w3.org/2000/svg" xmlns:xlink="http://www.w3.org/1999/xlink" x="0px" y="0px" viewBox="0 0 612.6 691.1"
	 style="enable-background:new 0 0 612.6 691.1;" xml:space="preserve">
<style type="text/css">
	.st0{fill:#E44343;stroke:#FFFFFF;stroke-miterlimit:10;}
</style>
<path id="IN-AP" class="st0" d="M295.7,478.9L295.7,478.9L295.7,478.9L295.7,478.9z M296.4,478.9l-0.4,2.5l-0.8-1.1l0-0.8
	L296.4,478.9L296.4,478.9z M295.7,478.9l-0.1-0.6l-0.3,0.4l-1.3,0.1l-0.1-0.7l-0.9,0.6l1.7,0.8l0,0l0,1l0.5,0.1l0.7,1.5l-7.6,3.7
	l-4.7,1.8l-3.8-1.1l-3.1,0.4l-2.7,1.3l-2.6,5.7l0.1,1l-2.9,3.1l-0.3,0.5l0.4,0.9l-0.9,0.8l-3,0.4l-0.9-1.5l0.3-0.8l0.4,0l-0.1-0.6
	l-2.5-0.9l-3.1,0.6l-2.2,1.1l-1.9,1.3l-1.5,1.6l-1.4,4.5l-2.1,3.4l-1.1,5l1.4,7.5l1.8,3.1l-1.4,10l2.4,6.5l-0.2,3.8l1.7,4.4l-3-5.5
	l-0.6-0.3l-0.1,1.9l-0.6-0.6l0.4-0.6l-0.4-0.1l-1.2,1.8l2.3,2.1l1.6,0l1.6,1.4l0,0l0,1.1l-0.8-0.4l-1-1.9l-1.6,0l-1.7-1.3l-1.6,0.2
	l-0.1,0.4l0.9,0.2l0.1,0.4l-0.6-0.1l-0.2,0.6l-0.7,0.2l0,0.7l-0.6,0.3l0.4,0.6l-0.6,0.8l-1.6,0.7l-1.1,0l-0.4,0.5l-0.5-0.4l-0.7,0.7
	l1.3,1l-0.8,0.6l-0.5-0.6l-0.7,0.3l0.2-0.6l-0.5,0.1l-0.1-1.1l-1.8,0.8l-0.7-0.5l-0.3-0.9l-2.2-0.3l-1.1,0.4l1.1,0.5l-0.3,1.5
	l0.5-0.4l0.2,0.3l-0.5,0.2l0,0.5l-1.6,0.5l0.1,0.7l-1,0.7l-0.8-0.9l-1,0.1l0,0.7l-0.6,0.4l-0.8,1.7l-1.8-0.1l-1.9-1.3l-1.4,0.2
	l-0.4,0.7l0.7,0.4l-0.9,0l-0.1-1.4l-2.7,0.9l-0.9-0.2l-0.2,1.1l-0.9-0.3l-0.8,0.8l0.7,1.3l-0.4,0l-0.9,3.2l-0.8,0.6l0,1.2l-0.5,0.1
	l-0.2-0.5l0,0l0,0l0,0l-0.1,0l-0.4,0l-0.1,0.9l-0.6,0l0,1l-1.9,0.1l-1.6-0.9l-0.5-0.8l-1.6,0.2l0.8-0.7l-0.1-0.8l0,0l0.4-2l1.3,0
	l0.9-1.7l0.7,0.7l1.2-0.1l-0.3-1.5l0.7,0.1l-0.1-1.5l1.1-0.5l-0.1-0.6l0.5-0.3l-0.4-0.5l1.3-0.8l-0.6-0.7l0.6-0.4l0.2-1.2l-0.5-0.8
	l-0.7,0.9l-1-1.1l-0.7,0.2l-0.2-0.4l-0.7,0.3l-0.5-0.3l0.6-0.3l-0.9-0.5l0.7-4.8l-3.4-0.2l-0.9,0.7l0.2-1.3l-0.7-0.2L209,545
	l-1.6,0.3l-0.5-0.7l0.1-0.5l0.9,0.1l0.1-0.6l-0.5-0.5l0.7-0.9l-0.1-1.4l-1.5-1l-0.1,0.7l-1.1-0.2l-0.4,0.9l-0.4,0l0-1.3l0.7-0.3
	l-0.2-1.2l-1.1,1.1l-0.5-0.7l-1.4-0.1l-0.3,0.6l0.4,1L201,541l0.1,0.5l-1.4,0.5l-0.1,1.2l-0.3-0.6l-0.7,0.2l0.1-0.5l-0.4,0l-0.8,0.4
	l0.6,0.4l-0.3,0.2l-0.5-0.3l-0.8,0.6l-0.8-0.6l-0.2,1.2l-0.5-0.5l-0.1,0.6l-0.7,0.1l0.2-2.6l-1,0l0.3-0.8l-1.4-0.2l-0.8,0.4
	l-0.3-0.7l-1.2,0.4l-0.3-1.2l-0.5,0.7l-0.1-0.4l-0.5,0.5l0-1.2l-0.4,0.4l0.1,0.9l-0.8,0.2l0.8,0.6l0.1,1.4l-1.5-0.1l-0.7,0.5
	l-0.7-0.7l-0.3,0.8l-0.4-0.2l-0.5-1.5l1-1.7l0.5-0.1l-0.1-0.6l-2.2-2.1l0.9-0.9l-1-1.3l-0.9-0.1l0.2-0.6l1-0.1l0.1-0.5l1.6,0.4
	l-0.2,1.6l0.3,1l2,0.2l0.5,1.1l3.5-0.7l0.8,0.9l-0.1,1.8l0.9,0l0,0.4l0.7-0.6l-0.4-0.6l0.5-0.7l-1.2,0l0.2-0.8l-1.2-0.3l1.4-1.7
	l-0.1-0.3l-0.9,0.5l0.1-0.6l0.6-0.1l0.3-0.8l2.3,0.3l-0.1-2.6l-0.9,0l-0.3-0.8l-1.2-0.3l-0.2,0.6l0.9,1.8l-0.7,0.4l-0.6-0.8l0.1-0.8
	l-1.7-0.1l0-1.2l-1,0.4l-1.7-0.6l-0.8,1.1l-0.1,1.6l-0.6,0.1l-0.5-0.6l-2.3,0l-0.3-0.7l0.5-0.5l-1.5-1.1l0.1-0.9l0.6-0.5l0.6,0.3
	l0-1l0.6-0.7l-2.2,0.2l-0.9-1.2l-0.6-0.1l-0.8-1.6l0.8-2.9l-0.4-1l1.4-0.5l0.3-3.4l-0.8,0.3l-1.3-0.4l0.4-1l-0.2-1.2l0.5-0.4
	l1.7,1.3l2.2,0.4l0.4-0.4l1,0l-0.1,0.5l0.8,0.1l1.6-2.6l-0.5-0.5l0.5-0.1l0-1l-0.8-0.6l0.9-0.8l-0.3-0.6l-0.7-0.1l-0.1-0.8l-1,0.1
	l-0.7-2.4l-1.2-1.2l0-0.3l1.1,0.1l0.1-2.9l1.1-0.4l0.7,0.6l0.2-0.7l-1.7-1.6l0.4-1.9l-0.9-0.2l0.9-1.5l1.6-0.9l2.2-0.4l5.5,0.8l0,0
	l2,0.2l1.1,0.8l1.2-0.2l1.7,0.5l1.9-0.7l2.4,0.8l0.7-0.9l0.6,1.2l1,0.4l0.3-0.5l0.8,0l0.3-1.1l1.2-0.6l0.4-2.2l1.2,0l1.9-1.1
	l3.2,0.5l1.2-0.9l2,1.6l1.3,0.1l1.3-1.4l0-1.5l0.5,0.1l0.2,0.9l0.8,0.1l-0.1-1.7l0.4-0.4l2.2-0.9l3,0.6l0.9-0.5l0.1-5.8l0.9-1.2
	l3.4-0.5l1.5-1l3.2-0.7l2.7-1.5l0.7,0.8l1.1-0.2l0.8,1.3l1.2-0.1l1.9-2.2l0.5-1.5l-0.8-0.8l-0.9-0.2l0.4-1l0.8-1.3l1.8-0.4l1-1.3
	l0.4,0.7l1.3,0.1l0.8,1.2l0.4,1.8l0.8,0.3l0.3,1l0.6-0.8l1.1,0.7l0.1,0.5l2.2,0.6l0.9-0.5l-1-0.8l0.2-1l0.5-0.1l-0.1-1.1l-1.9-0.5
	l-0.1,0.7l-2.7-1.2l0.6-0.9l-0.5-0.9l0.6-0.5l0.5,1.1l0.5,0.2l0.8-0.7l0.3-1.3l1.3-0.7l2,1.1l-0.4,0.7l1.8-0.2l2.2,0.8l0.6-0.5
	l0.2-2.1l0.9,0l-0.2-1.2l1.8,0.5l1.2-0.7l2.4-0.4l0.4-2l1.8,0l1.2-1.5l1,0.7l0.9-0.1l1.6-1.9l0.2-2l0.5-0.7l-0.4-0.4l1.4-2.1
	l0.1-0.8l4.3-2.3l0.2-0.5l-0.7-0.9l0,0l0.9-0.9l3.2-1.2l1.5-1.4l2.8,0.3l0.4,0.7l1.3,0.7l0.5-0.1l0-1.4l0.6-0.3l0.2,0.5l0.5-0.1
	l0.1-2.2l0.5,0.4l0.2-0.3l-1.2-1.2l0.6-0.4l0.1-1.1l0.7-0.2l0.4-0.7l-1.2-0.2l1-1.1l-0.5-0.9l2.4-2.8l0.5,0.8l0.5,0l0.1,1.5l0.5-0.1
	l-0.4,1.1l1.4,0.5l0.2,0.5l-0.7,0.9l0.1,0.8l1,0.9l0.7-1.3l2.3-1l0.5-1.4l-0.4-0.5l0.5-0.4l1,0.6l0.8-0.1l0.2,1l0.9,0.3l1.8-0.7
	l0.8,0.2l0.1-1.2l-0.4,0.2l-0.5-0.6l1.5-2.1l-1.2-0.2l-0.1-0.4l0.6-0.4l-1,0l0.1-1.1l0.8-0.3l1.7-2.6l1.4,0.7l0.1,0.6l0.3-1.1l1,0.2
	l0.3-0.7l1.6-0.2l0.1-0.7l0.8,0l0.3-0.6l-1.4-1.5l0.7,0.1l-0.7-0.7l-0.4,0.9l-0.5-1.6l0.9-0.4l1.3,0.3l1,1.1l-0.1-1.2l0.5,0l0.1-0.5
	l-0.4-1.1l0.3-0.2l0.4,0.5l0.2-0.3l0.2,0.9l-0.4,0l0,0.3l0.8,0.1l0.3-1.5l0.7,0.5l0.5-0.8l-0.2-0.7l0.6-0.7l1.5,3l0.5,0.1l-0.4,0.6
	l0.8,1.5l0.7,0.2l-0.8-1.6l1-0.7l1.7,4.2l1.5,0.5l1.8-0.1l1.1,1.3l0.9-0.1l0.6-0.6l3.8-0.4l0.1-1.6l0.6,0.3l0.2-0.4l-0.4-0.4
	l0.8,0.1l-0.5-0.4l0.7,0.2l0.7-0.6l-0.3-0.5l0.5-0.6l-0.5-1l1.2,0.7l0.4-0.9l1.6-1l0.5,1.1l0.5-0.9l0.9,0.1l0-0.6l-0.7,0.1l-0.6-1
	l1.5,0l0.1-0.8l0.8,0.1l-0.2,0.7l0.5,0.5l0,0l0.9,0.5l-3.7,4.3l-0.6,1.8l-1.8,1.7l-2.3,3.4l-4.8,4.5l0,0.9l-8.5,4.3l-3.1,2.1
	l-0.9,1.5l-2.5,2.3v0.7l-1.4,1.9l-2.7,2.9l-12.7,6.4l-5,3.9l-1.5,1.9l-0.5,2l-0.5,0.2l0.2,1l1.2,1l0.9-0.2l-0.2,2.5L295.7,478.9
	L295.7,478.9z"/>
<path id="IN-AR" class="st0" d="M585.8,191.5l0.6,0.9l-0.1,0.8l1.3,1.8l1,0l1.5-1.2l0.6,0.7l-1,2l-1.8,0.3l-1.6,1.6l-1.5,0.4
	l0.8,0.6l0.7,1.5l-0.8,1.2l0.4,0.8l1.7-0.9l2.1-2.1l1.9-0.1l1.9-1l-1,2l0.2,0.7l0.7-0.1l0.4,2.1l1.6,2.5l-0.6,1.4l-2.4,0.8l0.4,1.2
	l-1.4,1.2l-0.6-0.2l0.1,0.7l-1.1,0.1l-0.6,0.6l1,1.1l-2.3,1.7l1.2,0.6l1.1-0.2l0.6,1.2l0.5-0.2l0.7-1.6l1.1,0l1.5-1.1l1.8-0.1l1.8,1
	l0.5,1.1l1.6,0.1l1-0.4l0.6,1l1.5,0.7l2-1.3l1.7,1.7l2.3,0.5l2.5,1.8l-0.8,0.1l-0.7,0.8l0.2,1l-0.7,1l1.4,0.2l0.1,0.7l0.8,0.4
	l-0.8,0.9l0.2,2.1l-1.4,0.2l-0.3-1l-1.1,0.5l-3.2,2.7l-0.1,1l-1.4,0l-1.1,1.8l-0.8,0.1l-0.9,1.1l0.8,2.1l-0.5,1.6l5.4,7.6l-0.5,0.8
	l-0.8-0.4l-0.8,0.3l-1.8-1.3l-2.3-0.6l-0.3-0.6l0.6-0.4l-0.1-0.7l-0.5-0.1l-1.2-1.9l-1.9-0.6l-0.3,0.4l-1.8-0.1l-1.9,1.8l-1.1-0.4
	l-4.9,0.6l-4.1,2.1l-2.1,3.3l-1.2,0.8l-1.5,0l-1.6,3.1l-1.2-0.5l-1.3,2.1l-1.6-0.2l-2.2,3.1l-2.6,1l-1.4-0.7l0,0l-0.4-1.1l0.6-1.2
	l-0.6-0.3l-0.1-1.2l-0.5-0.3l1-0.6l-0.8-3.6l0,0l1.1,0.3l2.1-1.7l2.3-0.7l0-1.8l1.2-1.3l1.5,0.9l4.5-1.5l1.1-0.1l0.7,0.7l0.3-0.7
	l2.3-1.8l-0.8-1.6l-0.2,0.3l-0.4-0.5l-0.7,0l-0.5,0.9l-0.1-0.9l-0.4,0.6l-0.4-0.3l0.8-1.8l-0.2-1.1l-0.9-0.3l-0.3-0.9l-0.8-0.5
	l0.3-0.6l-0.5-0.5l0.4-0.4l-0.8-1l0.6-0.3l-0.2-0.4l0.9-1.2l2.2-1.8l1-1.9l-3.2-0.2l-4.6,0.5l-1.9,1.8l-2.8,0.9l-1.4-0.7l-6,2.3
	l-3.6,0.8l-0.4,0.8l-0.9,0.1l-0.8,0.7l-1.4,0l-0.1,0.4l-4.7,2.2l-0.6-1.1l-1.3,0.6l-1.5-0.6l-0.5,0.3l-0.5-1.1l-0.9,0.7l0.9,1.3
	l0.1,0.8l-2.1,1l-2,2.7l-2.2,1.6l-3.3,3.7l0.6,0.4l0.2,1l-1.3,0.3l-2,2.1l-3.9,0.8l-3-0.6l-6.9,1.1l-2.1-1.1l0-0.5l-0.9-0.5
	l-4.5-0.7l-0.4,0.5l0.1,0.7l-1.3,0.6l-2.6,0l-1.3,0.9l-1-0.2l-1.6,0.8l-3.5,0.2l0,0l-0.1-2.7l-1.5-1.3l-0.2-2.3l1-1.4l-0.6-1
	l1.3-0.1l0.4-0.4l-1.3-0.9l-0.1-1.7l-0.7-1.9l-1.7,0.4l-1.6-0.5l-3,0.3l-0.6-0.8l-0.9,0.4l-1.7-2.1l0.2-0.8l-0.4-0.6l1.4-1.7
	l0.3-1.4l-0.2-0.8l-0.6-0.5l-0.7,0.1l-0.5-0.9l2.5-0.1l1,1.1l2.4,0.1l0.8,1.7l1.2,0.5l1.4-1.3l1.5,0.3l3.2-2.4l1.1,0l1.1,1.9
	l1.3-0.4l0.6-0.6l1,0.4l1-0.9l1.2,0.5l0.9-1.3l1.3-0.5l1.5-2.1l-1.6-1.7l0.5-1.5l2.4-1.8l0.6,0.7l1.4-0.8l1.5-1.4l0.8,0.7l0.7-0.8
	l-0.2-0.9l4.1-0.7l0.3-1.6l-1-0.9l2-1.5l0.6-1.5l-0.1-0.8l0.6-0.2l0.2-0.8l2.3-0.9l0.6,0.5l0.4-0.7l0.9,0.6l1.8,0l2.3-0.7l0.9,0.5
	l1.4-0.9l1.7,0.8l1.6-2.5l-0.3-0.5l0.2-1l3.4-2.7l1.2-3.1l1.5-1.5l1.4-0.1l0.3-0.9l1.2-0.9l2.7-0.1l1.5-2.9l1.7,1.1l1.4,1.5l0.4,1.8
	l1.5-0.5l3.2,1.3l-0.5-1l2.1,0.7l0.5,0.7l2.7,0.2l0.3,1.2l3,0.6l0.9-0.1l0.6-0.8l0.3-1.6l1.1,0.3l-0.2-2l1-0.1l0.3-1l0.8,0.3
	l2.9-2.5l0.4,0.5l1.8-1.3l1.6,0.2l2.6-1.9L585.8,191.5z"/>
<path id="IN-AS" class="st0" d="M454.2,281.6l0.2,1.3l-0.5,0.3l0,0L454.2,281.6z M501,250.3l3.5-0.2l1.6-0.8l1,0.2l1.3-0.9l2.6,0
	l1.3-0.6l-0.1-0.7l0.4-0.5l4.5,0.7l0.9,0.5l0,0.5l2.1,1.1l6.9-1.1l3,0.6l3.9-0.8l2-2.1l1.3-0.3l-0.2-1l-0.6-0.4l3.3-3.7l2.2-1.6
	l2-2.7l2.1-1l-0.1-0.8l-0.9-1.3l0.9-0.7l0.5,1.1l0.5-0.3l1.5,0.6l1.3-0.6l0.6,1.1l4.7-2.2l0.1-0.4l1.4,0l0.8-0.7l0.9-0.1l0.4-0.8
	l3.6-0.8l6-2.3l1.4,0.7l2.8-0.9l1.9-1.8l4.6-0.5l3.2,0.2l-1,1.9l-2.2,1.8l-0.9,1.2l0.2,0.4l-0.6,0.3l0.8,1l-0.4,0.4l0.5,0.5
	l-0.3,0.6l0.8,0.5l0.3,0.9l0.9,0.3l0.2,1.1l-0.8,1.8l0.4,0.3l0.4-0.6l0.1,0.9l0.5-0.9l0.7,0l0.4,0.5l0.2-0.3l0.8,1.6l-2.3,1.8
	l-0.3,0.7l-0.7-0.7l-1.1,0.1l-4.5,1.5l-1.5-0.9l-1.2,1.3l0,1.8l-2.3,0.7l-2.1,1.7l-1.1-0.3l0,0l-1.8,1.8l-1.9,1l-0.7,0.2l-1.2-0.8
	l-0.9,0.5l-1.8,2.9l-2.4,1.7l-1.2,0.3l-0.5-0.5l-0.6,1.1l-0.6-0.5l-1.6,1l-0.1,0.8l-1.1,0.5l-0.2,1.9l-1,0.6l-0.7,1.1l-0.5-0.4
	l-0.1-1.9l-0.3,0.1l-1.9,2.3l-0.2,2.7l-1.4,0.4l-2.2,3.6l-0.3,2.3l-0.8,1.5l0.5,2l-1.3,0.7l-0.7,1l-0.8-0.4l-1,1.1l-0.3-0.7l0.4-1.5
	l-0.5-1.3l-0.4,0.7l-1.3,0.6l0.4,1.4l-2.8,2l-1.5,2.4l-1.5,0.6l-2,2l1.3,1.9l1.4,0.7l0.3,1.3l-0.6,0.8l0.5,0.8l0,0l-1.8,1.5
	l-1.1,3.5l-0.7,1.1l-0.8,0l-0.4,0.7l0.3,1.5l-0.5,0.3l0.3,0.5l-0.5,1l-0.7,0.5l0,1l-0.9,0.5l-0.6-0.7l-0.3,0.2l-0.1,1.6l-0.7,0.7
	l0.6,0.8l-0.6,1.8l0.7,0.3l-1,0.2l0.2,0.3l-0.8,1.5l0.1,2l-0.8,0.2l0,0l-1.4,0.2l-0.5-0.4l-0.1,0.4l-0.9-0.1l-0.7,0.5l-1.3-3.3
	l-1.6,3.8l-1.4,0.5l-0.3,1.8l-1.3,0.2l-0.4,1.6l-1,0.3l-0.1,0.5l-0.9-0.3l-0.3-2.3l-2.6,0l0,0l-1.8,0.1l1.2-3l-0.9-1.9l0-1l0,0
	l0.4-3.5l1-1.8l-1.2-3.7l1.2-0.5l1.9,1.6l0.9,0l0.4-0.6l0.9,0.1l0.3-0.7l-0.3-1.1l-0.4,0.3l-0.3-0.3l0.5-0.1l-0.3-0.4l-0.7,0.1
	l-0.1-1.4l0,0l0.8-0.1l0.4-1.6l1.2,0.2l-0.4-0.9l2,0.5l0.9-1.4l2.9-1l-0.8-0.7l0.6-0.8l-0.2-1.1l-0.5-0.1l-0.5-1.1l-0.4,0.1l-0.9-1
	l-0.3,0.2l-0.1-0.6l-0.9,0.4l-0.2-1.3l-0.6,0.1l1.6-1.6l0.2-1.3l-1.1,0.8l-0.6-0.1l-0.3-1.2l-1.2-0.3l-0.8-1.4l-0.7-0.2l0-0.9
	l-1-0.5l-1.1,0.7l-2.2,0.2l-1.4,1l-0.2-3.3l0.6-1.3l1-0.9l-1.3-0.1l-0.2-0.8l3-3.1l-1.2,0.4l-1.3-0.4l-0.9,0.8l-1.7,0.3l-1.3-0.2
	l-1.4,1l-1.1-1.2l0.1-1.1l-1.2-0.5l-1.8,1.4l-0.2,2.4l-1.1,1.1l-1.2-0.8l0.6-0.6l-0.1-1.3l-1.2-0.2l-1.6,2.6l0.6-0.1l-1.2,1.2
	l0.7,0.1l0.5-0.5l-0.1,0.4l-1.7,0.7l-0.5-0.3l-1.8,0.4l-1.2,2.1l-1.1,0.5l-0.7-0.1l-0.3-1.1l0.3-1.9l-2.8,0.9l-0.3-0.2l0.6-0.5
	l-0.6,0.1l-1,0.6l0.6-1.5l-1.3,0l-0.5-1.4l-0.6,0.1l0.1,0.7l-0.8-0.9l-1,0.3l-0.6-0.3l-0.7,1l-0.8-0.2l0.1-1l-1.3,0.2l-1.3,1.2
	l-0.4-0.3l0.5-0.6l-1-0.5l-1.5,1.5l0.5-1.4l-1.2-1.3l-1,0.6l-0.7-0.6l-0.7,0.1l-0.9,0.8l-3,0.7l-1.3-0.4l-2.4,1.9l0.4,0.3l-0.3,0.4
	l-1.3,0.5l0.2,1.2l-0.5,0.7l-0.9,0.2l2.6,3.1l-3.1,1.3l0,0l0.3-2l-1.1-2l0.2-1.2l-0.6-1.1l1.6-2.9l-0.8-0.1l-0.2-0.4l0.7-0.3
	l-0.8-0.8l0,0.7l-0.4-0.1l-0.4-1.3l-0.5,0.1l0.5-0.5l-0.1-0.7l-0.8-0.5l0.2-0.4l-0.4-0.7l-0.7-0.2l0,0l0.3-0.2l-0.8-0.3l0.8-0.5
	l-0.7-0.1l0.7-0.5l-0.5-0.7l0.4,0.3l0.3-0.3L451,264l0.9,0.4l-0.2-0.7l0.6-0.2l0-0.5l1.6-0.7l-0.2-0.4l-0.4,0.1l0.9-1.5l-0.4-0.6
	l0.2-2.1l0.3-0.1l-0.4-0.9l0.4-0.6l-0.4-1.3l0,0l0.1-0.8l2,0.3l3.9-0.7l0.9-0.4l-0.1-0.9l0.6-1l1.8,0.1l1.1-1.1l1.1-0.1l3.1,2.4
	l3.2,0.8l7.2-0.3l0.9-0.9l3.5,0.3l1.5,0.6l1.5-1.3l1.8,1.1l2.7-0.7l1.3,0.4l2.4-1.1l1.2-1.4l0.8,0l1.8,1.4l1.3,0.3l0.9-0.3
	L501,250.3L501,250.3z"/>
<path id="IN-BR" class="st0" d="M417.3,258.6L417.3,258.6L417.3,258.6L417.3,258.6z M333.8,235.8l0.7-0.1l0,0.7l1.2,0.4l0.1,0.6
	l1-0.2l0.8,1.6l6.8,1.1l1.5,2.9l-0.3,2.8l-0.7,1.1l2.4,1l0.3-0.3l0.4,0.5l0.8-0.6l1.3,1.2l1.5,0.2l0.3,0.5l-0.2,0.6l1.9,0.7
	l-0.8,0.7l3.6-0.3l-0.4,1.3l0.7,1.2l2.6,0.4l1.5-1.2l1,0.2l3.8-2.1l2.1,1.8l0,3.3l1.8,1.2l0.7-0.2l0,1l2.1-1l0.3-0.9l1.4-0.4
	l2.3,0.9l0,0.5l1.2-0.2l0.5,0.6l0.7-0.7l1.6-0.1l4.5,1.9l0.6,1l3.4,1.7l0.7-0.8l1.4,0.5l1.3-0.5l0-0.6l0.8-0.1l0.1-0.6l1.7-0.4
	l0.6-1.3l0.6,0l0.4,3.2l1.5,1.1l2-0.2l0.2,0.9l1,0.1l0.6,0.5l0.6-1.4l2-0.8l2.9,1.4l1-0.3l0.5-1l1.2,0.6l0.7-0.1l0.5-1.3l1.2,0.8
	l0.8-1.2l0.8,1.6l1.4,0.6l0.1,0.6l0.7,0l0.1-0.6l1.3-1.1l0.2-2.3l0,0l0.8,0.6l0.5-0.6l1.3-0.3l0,0.5l-1.1,1l0.3,0.4l0.7-0.1l0.1,0.7
	l0.8,0.6l-0.8,0.6l0.1,0.4l0.6-0.1l0.5,0.6l-1.6,1.7l-1.5,0.7l-1.6,1.8l-0.7,0l-0.5,0.9l-1-0.3l0.1,1.6l-0.6-0.1l-0.1,0.4l-0.4-0.5
	l-1.5,1.1l-0.3,2.5l-0.5,0.5l0.4,0.9l1.8,0.5l-0.6,0.5l0.6,0.3l-0.3,1l0.7,0l0.6,1.1l1.8,0.8l-0.3,1.2l0.4,0.1l-0.7,1.1l0.3,1.2
	l0.8,0.8l-0.1,0.5l-0.9-0.1l-0.4-0.6l-0.1,0.4l-0.4-0.2l0-0.5l-1.3-0.3l-0.6,0.7l-0.4-0.3l-0.3,1.2l-0.6,0l-0.5,0.7l-0.6-0.2
	l-0.5,0.9l0.1,0.6l0.5,0.1l-0.1,0.9l1.5,1.3l-0.7,1l0.3,0.8l-1-0.5l0,0l-0.1-0.6l-1.6-0.2l-0.5-1.2l-1.6,0l-0.6-0.9l-0.7,0.4
	l-0.2,1.1l-1.2-0.3l0.3,0.8l-0.5,0.5l0,1.1l-1.7-0.8l-0.5,0.5l-1-0.4l-0.7,3.1l-0.8-0.4l-0.8,0.4l-1.4,1.5l0.2,3.2l-0.1,0.6
	l-0.8,0.1l-0.8,0.8l0.4,0.5l-1,4.5l-2.5-0.8l-0.7,1.3l0.3,1.1l-0.7-0.7l-0.5,0.4l-0.4-0.4l-0.8,0.1l0.1-0.7l-0.6-0.6l-0.5,0l-0.4,1
	l-1.3,0.3l-1.4-1l-1.2,1.6l-0.9,0.4l-0.4,2.1l-0.5,0.1l-0.3,1.2l-0.8-0.2l-1.4-1.5l-1.5-0.4l0.7-1.1l-0.2-1.1l0.4-0.6l-1.2,0.2
	l-1-0.8l-0.5,0.6l-1.3-0.4l-0.2-2.3L375,300l-1,0.1l0.2-0.9l-2.1,1.1l-1.5-1.6l-2.1,0l-0.8-0.5l-0.8,2.5l-1,0.6l0.3,2.4l-1.8-0.5
	l-0.2,0.9l-0.7,0l-0.4,0.9l-0.7-0.6l-4.3,0.5l0,0.7l-2.7,0.8l0.4,0.8l-1.7,1.1l-0.5-0.2l0.2-1.2l-0.5,0.6l-1.3,0.1l-0.5,0.8
	l-1.5,0.1l-0.4-2.1l-1,0.2l0-1.3L348,305l-2.4,1.7l-0.4,1.4l-1.8-0.4l-0.1,0.6l-0.9,0.2l0.1,0.8l-0.7,1.2l-0.8-1.2l-0.8,0.2l0.1-0.6
	l-0.8-0.7l-1-0.1l-0.4-0.6l0.3-0.2l-0.8-0.4l0-0.7l0.7-0.5l-0.7-1.4l-0.5,0l0.2,0.3l-0.5,0.5l-0.5-0.5l-0.4,0.4l-0.6-0.5l-0.3,0.2
	l0.1,0.8l-0.7-0.7l-0.1,0.8l-0.6,0.5l-1.3-3l-1.1-0.6l-1.3,2.1l-1.3,0.3l-3.2,0.6l-4.6-0.5l0,0l0.9-2.3l-0.9-0.6l0.3-0.7l-0.7-0.6
	l0-0.7l-0.6,0.1l-1.4-1.2l0.1-1.1l-0.8-0.9l-0.2-3.2l-0.5-0.2l0.8-2.5l-0.5-1.3l0.3-0.4l0.8-0.2l0.4-1l1.1-0.1l1.7-1.5l0.5,0.2
	l1.2-0.5l0.6-0.9l0.8-0.1l-0.3-0.2l0.4-0.4l0.2,0.2l0.6-0.6l0.6,0.5l0.8-0.5l-0.1-0.5l0.9-0.1l-0.6-0.7l0.9-0.2l1.4-2l3.3-1.8
	l-0.1-1.3l0.5-0.6l1.1-0.2l1,0.6l0.2,0.8l1.7,0.2l0-0.4l0.7,0.1l0.3-1.7l1-0.1l0.5,1.1l1-0.3l0.8,0.8l0.8-0.1l0.2-1l-0.1,0.8
	l0.4,0.2l0.1-1.2l1.6,0.2l-0.6-0.7l0.4-0.8l-1.3-1l-0.6,0.1l0-1l-2.2-0.3l-0.3-0.9l-1.2-0.6l-1.2,0.3l-2-1.2l-0.7,0.2l0-0.8
	l-1.6-1.6l-0.9-0.1l-0.6-1.1l-0.1-2.2l1.4,0.5l0.7-0.9l1,0.4l0.5-1.7l-0.2-1.3l-2.1-0.2l-1.3-1.5l-0.6,0.3l-1.7-0.4l0-1.6l1.3,0.2
	l0.2-0.5l1.5-0.3l0.7-1.3l0-1l4,1l3-0.6l-0.3-1l-1.6-0.3l-0.6-1.6l-1.1,0.6l-0.3-0.2l-0.2-0.4l0.6-1.2l-0.2-1.3l-0.7-0.2l-0.8,0.9
	l-0.8-0.5l0.2-0.7l-0.8-0.3l-0.2,0.6l-0.8-0.3l-0.1-0.9l-0.5-0.3l0.5-0.4l-0.1-1.9l-1-0.6l0.6-0.6l-1.7,0.1l0.8-2.5l-0.5-0.8
	l-1.2-0.6l0.6-1l-0.2-0.5l-1.3,0.3l-0.5-0.3l0.6-0.7l0,0l1-0.8l-0.7-0.2l-0.1-0.9l1.3-0.5l2,0.4l1.4-1.3l0-0.6L333.8,235.8
	L333.8,235.8z"/>
<path id="IN-CH" class="st0" d="M181,160.2l-0.5,0.4l-1.4-0.6l-0.7-1.6l1.4-0.9l0.2,0.5l0.6-0.2l-0.1,0.5l0.7,0.1l0,0L181,160.2z"/>
<path id="IN-CT" class="st0" d="M317.2,314.7l2.1,0.4l0.5,0.9l1.2,0.3l0.8,3l0.7,0.3l-0.3,0.5l2.8,1l0.7,1.5l-0.3,1.6l1.3,1.9
	l3.4,0.8l0.1-1.3l1.4-0.2l0.3,2l-1.1,2l-0.1,1.7l0.9,0.6l0.8-0.5l0.6,1l-0.8,4.3l2,1.3l0.4,2.7l0.9-1.4l0.6,1.1l1.1-0.3l0.1,0.6
	l1.9-0.3l0.4,0.8l-0.4,1.7l-0.8,0.1l-0.9,2.2l-0.6,0l-0.6,0.6l-0.1,1.5l-1.5,0.8l-1.5,0l-1.6,1.5l-0.1,1.1l0,0l-0.5,0l-0.1,0.4
	l1.4,0.9l-0.8,2.2l-3,0.5l-2.3,2.3l-1.3-0.1l-1,0.5l-1.8,2.7l0.9,0.9l-1.3,0.2l-0.1,2.1l0.4,0.7l1,0.5l-0.6,0.9l0.3,0.6l-1.1,0.3
	l0.1,0.9l-1-0.5l-0.5,0.7l0.4,0.9l-1.3,1.5l1.4,1.1l-0.7,0.5l-0.2-1l-1.3,0.8l-1,2.6l0.3,1.2l0.9,1l0.2,1.1l-0.6,0.2l-2.2-0.8
	l-0.3,1.4l0.4,0.6l-1.2,0.6l-0.6,2.8l-1.5,0.8l-1.7-0.4l-1.8-1.3l-1.6,0.6l-1.4-0.2l-0.5,0.4l-0.8-0.5l-2.4,0.2l0.2,1.1l-0.7,0.7
	l0.3,0.8l-1.5,2.1l-1.4,0.8l-0.6,1.8l-0.9-0.1l-0.3-0.8l-1.1-0.5l-0.2,2.8l0.7,3l-0.9,1.6l1.2,1l0.2,1.3l0.5-0.5l0.4,1.1l-0.7,2
	l0.7,1.2l-0.5,0.4l0.2,1.4l-0.7,1.3l0.3,1.9l4.3,1.6l0.7-0.3l1.6,0.2l-0.1,2.1l0.4,0.5l-0.3,0.9l-1.2,0.1l-1.3,1.2l-0.3-1.1l0.5-0.9
	l-3.2-0.9l-1.1,0.5l-1,1.1l-2.3-3.7l-1.1,0.4l-2.5-1.6l-0.7,0.9l-1.7-2l-1.6,1.5L286,408l0.3,0.9l2.3,1.2l0.4,1.3l1.7,0.3l-0.5,1.8
	l0.2,3.7l-0.5,0.8l1.5-0.2l0.6,1.9l1.3,0.1l-0.4,1.1l-0.5,0.1l0.9,0.9l-0.7,1.2l0.6,2.4l-0.4,0.7l0.8,0.2l0.3,0.6l-0.4,0.7l0.6,1
	l0.3,2.3l-1.4,0.3l-0.2,2.3l-0.7,0.7l-1,0l-0.1,1l-0.9-0.1l-1.4,0.6l-0.4,1.4l-1.3-0.5l0.1,0.6l1.4,0.8l-0.2,0.6l-0.8-0.1l-0.2,0.8
	l-0.8,0.3l-2,2.2l-0.4,1.4l-1.8,0.1l0,0.6l-1.4,0.2l-1.4,0.9l-0.5,1.6l0.4,0.6l-0.3,1.4l-0.7,1.4l0.1,1.3l-0.8,2.1l-0.9-0.2
	l-0.2,1.7l0,0l-2.7-0.1l-2-0.9l-1.8,1.5l-0.9-0.1l-1.9-6.4l0.6-1.9l-2.3,0.8l-0.3-1.4l0.4-0.2l-0.8-0.6l-0.7,1.5l-1.3-0.1l0-1
	l1.1-0.8l-0.9-1.1l-0.6-1.8l0.2-0.6l-0.7-0.2l0.2-0.4l-1-0.8l-0.4-1l-3.1-2.4l-3,0.9l-1.6-2.9l0,0l-0.5-0.9l0.7-0.1l1.5-1.3
	l-1.7-2.3l0-1.3l1.1-1.9l0.1-1.5l1.3-1l-0.1-1.1l1.1-0.5l0.8-1.6l1.9-1.5l0.9,2.1l1.3-0.4l0.3,0.9l1.3-0.1l2-1.6l-1.2-1.5l2.2-0.9
	l-0.3-1.2l-0.7-0.2l-0.4-0.7l-1.3-0.1l-1-0.9l-1.3-0.1l0.2-1.8l-2.6-1.8l0.1-1l-1.5-0.1l0.2,1.2l-0.5-0.5l-1.2,0l0.1-0.5l0.7,0.1
	l1.4-1.3l-0.3-0.7l-1.6-0.2l0-0.6l0.8-0.4l0.8,0.6l0.8-0.1l0.5-1.2l0-1.7l-0.1-1l-0.9-0.6l-2.2-0.1l-0.2-0.4l0.6-0.6l-0.6-1.1
	l2.7-0.6l0.7-0.8l1.6-0.6l-0.7-1.4l0.8-4.6l-1.2-0.2l-1.2,0.6l-0.6-0.7l0.5-0.8l1.5-0.6l-0.7-1.8l-0.1-3.8l-1.8,0l-0.7-1.7l0.5-0.6
	l-0.3-1.3l0.5-1.7l3.7-1.7l0.8-1.1l-0.3-0.7l0,0l1.5-3.2l-0.4-2.6l0.2-2.8l0.5-1l1.4,0.2l0.4-1.3l0.1-2.9l-0.4-0.5l0.6-0.1l1.4-3.6
	l0.8,0.1l0.3,1.2l0.7-0.1l0.1-0.8l-0.7-0.4l0.9-0.4l0.1-2.2l1.4-0.4l0.6-1.1l-0.1-3.3l1.5-1.1l0.8,0.9l1.2-1.1l0.6,0.4l0.4-1
	l1.2,0.4l0.4,1.4l0.6-0.9l0.5,0.3l-0.2-0.6l0.9,0l0.8-1.1l2,0l0.2-0.6l0.5-0.1l0.2-1.4l1.1-0.4l0.3-0.6l0.4,0.6l0.5-0.4l-0.3-1.4
	l0.8-0.9l-0.5-1.5l0.2-0.9l1.8-0.4l0.1-0.5l1.7-1l-0.5-1.9l0.4-0.8l1.8-0.1l0.9-0.8l1,0.3l0.7-0.9l-0.2-1.9l1-1.3l-0.1-0.9l-1-0.8
	l-0.6,0.1l-0.3-0.9l-1.1,0.4l-0.7-0.2l0-0.8l-0.8,0.2l-1.3-2.7l-1.9,0.5l-0.5-0.8l-1.4-0.5l-0.9,1l-0.8-0.2l-0.6,0.9l-0.4-0.4l0-1
	l-0.6-0.1l-0.2-0.8l0.7-0.3l0.2-1.4l0.6,0l0.9-1.4l-0.3-0.7l-0.7-0.4l-0.2-1.4l-0.7-0.5l0.3-1.2l1.1-0.4l1.3,1.5l-0.1,0.4l1.3,0.6
	l1.5-0.3l1.3-1.1l0.7,0.5l1-0.2l0.9,1l2.4,0l0.9-0.8l-0.1,0.5l0.6,0.6l0.6-0.3l1.5,0.4l2.8-0.2l1.2,0.6l0.6-0.2l-0.4-0.7l1.2,0
	l1.4-0.8l0.1-1.2l1.9-0.3l1.2-0.9l0,0l2.7,2l3.1-0.1l2.2-1l0.6-1.6l1.3-0.8l0.3-1.1L317.2,314.7z"/>
<path id="IN-DD" class="st0" d="M52.4,389.9l0.1-1.8l1.3-3.3l0.6,0.6l1.6-0.2l0.9,0.6l0.3,1.3l-1.7,0.8l1.7,0.6l0,0.7l-0.6,0l0,0.7
	l-0.5,0l0.9,1.2l0,0l-0.4-0.2l0.1,0.3l-1.1,0.3C55.5,391.5,52.4,389.9,52.4,389.9z"/>
<path id="IN-DL" class="st0" d="M188.7,203.8l0.6,0.8l-0.4,1l0.6,0.2l1.3,1.8l0.8-0.1l-0.3,1.7l0.5,0.8l-0.9,1l0.9,1.4l0,0l-2,0.6
	l-0.4,0.5l0.3,0.8l-1.6,0.5l-1-0.8l-0.2-1.2l-0.7-0.6l-0.5,0.1l-0.9-0.7l0,0.7l-0.8-0.3l-1.9,0.4l-0.9-1.1l-0.1-0.8l0.4,0l0.5-1.1
	l1.2,0l-0.3-0.5l0.8-1.1l-0.3-2.7l1.9-0.4l0.9-1.1l1.1,0.5l0.2,0.6L188.7,203.8z"/>
<path id="IN-DN" class="st0" d="M105.6,404.2l-0.6,1.5l-1-0.7l-1.7-0.3l-0.2,0.7l-0.9-0.9l0.2-0.5l-0.6,0.5l-0.3-0.4l0.3-0.9
	l-0.3-0.9l0,0l-1-1.5l0.4-0.3l0.8,0.5l0.1-0.5l0.6,0l0-0.6l0.5,0.6l0.1-0.7l0.8-0.1l0.3-0.8l0.1,1.2l1-0.3l0.4,0.7l-0.4-0.1l-1,1.3
	l-0.7,0.1l0.1,1.6l0.2-0.4l0.7,0.4l0.5-0.4l-0.1-0.8l1.3,0.2l0.4,0.4l-0.7,0.9L105.6,404.2z"/>
<path id="IN-GA" class="st0" d="M115.3,500.4l3.2-0.3l0.7-1.3l0.4,1l1.3,0.2l0.5,2.1l0.6,0.7l0.6,0.1l2.1-1l0,0l1,0l0.3-0.6l0.5,0.7
	l0.4-0.4l0.5,0.3l0.3,1l-0.3,0.9l0.7,0.9l-0.6,0.8l0.5,1l0,1.2l1,0.5l0.3,1.6l-1.8,0.8l1,0.7l0.3,0.8l-0.7,0.9l-0.2,1l0.5,1.2
	l-0.9,1.1l0.2,0.5l-1.2,1l-0.8-0.6l0.1,0.9l-0.8-0.2l-0.9,0.5l0,0l-1.1-0.5l0.2-0.9l-1.8-2.3l-1.2-0.4l0.8-1.3l-1.1-4l-0.4-0.8
	l-0.7,0.2l-1.2-1.1l2,0.3l0.4-0.4l-1-0.8l-1.3-0.2l0.4-0.7l-0.9,0l-0.6-2.6L115.3,500.4z"/>
<path id="IN-GJ" class="st0" d="M30.5,351.9l0.6,0.7l-0.4,0.5l-1-0.7L30.5,351.9L30.5,351.9z M20.2,351.5l0.2,0.3l-1.3,1l0.2-0.9
	L20.2,351.5z M38.4,348.9l0.4,0.6l-1.4,0.4l0.2-0.6L38.4,348.9z M8.1,332.6l1.1,0.4l0.1,0.6l-0.9,0.2l0,0.4l-0.8-0.6l0.6-0.2
	L8.1,332.6L8.1,332.6z M8.7,331.3l0.6,0.5l0,0.6l-0.8-0.6l-0.2-0.5L8.7,331.3L8.7,331.3z M6.3,328.9l0.5,0.6l-0.2,1.2L6,330.3
	l0.1-0.8l-0.8,0.8L5,330C5,330,6.3,328.9,6.3,328.9z M6.5,326.2l0,0.8l-1.1,1.2l0.1-1.1L6.5,326.2L6.5,326.2z M5.9,325.6l0.2,0.5
	l-0.5,0.3l-0.1-0.7L5.9,325.6z M3.9,321.5l0.8,0.5l0.6-0.2l-0.8,3.2L3,326.5l-0.8-0.2l0.4-0.2l-0.4-0.4L1.5,326l0.2,0.4l-0.6,0
	l0.1-0.4l-0.6,0.2l-0.2-0.6l0.4-0.5l1.4,0l1.3-1.7C3.3,323.3,3.9,321.5,3.9,321.5z M3.1,321.6l0.1,1.5l-0.9,0.7l0-1.9L3.1,321.6z
	 M6.8,320.9l0.4,1.7L5.5,323l0.4-0.8l-0.2-0.7L6.8,320.9L6.8,320.9z M4.4,320.2l0.6,0l0.3,1.2l-1.2-0.1l-0.1-0.5L4.4,320.2z
	 M5.6,318.5l0,1.5l-1.4-0.1l-0.6,0.7l0.1-1.1L5.6,318.5z M7.5,318.5l0.5,0.5l0.6,0.1l-1.3,1.2l-0.5-0.2l0.1-0.5l0.9-0.7
	C7.6,318.9,7.5,318.5,7.5,318.5z M6.5,317.2l0.8,1.6l-1.6,1.7l0.5-1.9l-0.3-0.4l-0.6,0.2l0.4-1L6.5,317.2L6.5,317.2z M5.4,317.1
	L5,318.5l-1.4,0.8l-0.2,1.9l-0.3,0.3L2.7,321l-0.8,0.7l0,2.3l-0.6,0.2l-1-1.1l0.9-1l-0.4-1.4l0.5,0l0.9-1.8l1.2-0.1l0.5-1.4l0.8,0.3
	L5.4,317.1L5.4,317.1z M61.4,301.5l4,1.7l1.1-1l0.7,0.7l2.2-1.2l2.7,0.1l0.9,0.9l2.9-0.9l0.3,1.1l1,0.4l0.4-1.6l0.9,0.2l0.5,0.9
	l2.3-1.8l0.7,0.2l0,1l1.7,0.9l0.9,0l0.4-0.5l1.8,0.5l0.8-0.2l-0.6,0.7l-1-0.3l-0.6,0.5l0.9,1l1.3-0.3l0,0l0.6,1.2l1.2-0.1l0,0
	l-0.1,1l0.6,1.2l0.9-0.1l-0.2-0.9l0.9-1.3l0.9,0.8l2.3,0.4l-0.1,0.9l0.8,1.3l2.8-0.1l1.2,0.9l1.4-0.9l-0.6-0.5l0.8-2l0.3-0.3
	l0.8,0.4l0.9-0.7l0.3,1.6l-0.5,0.7l1.8,1l0.9-0.6l0.4,0.2l-0.4,0.7l-0.4-0.2l-0.3,1l-0.7-0.1l-1.3,2.8l0.7,1.1l2.3,0.9l-0.5,1.1
	l1,0.9l0.9-0.4l0.9-1.1l0.1-0.9l0.8-0.3l-0.1,0.9l0.9,0.8l-0.2,1.4l0.4,1.4l-1.3,1.6l0,1.7l0.3,0.5l0.9-0.3l1.2,1.6l0.6,0.1l0.1,2
	l1.3-0.9l1.7,0.7l-0.5,1.7l0.4,1l-0.5,1.2l0.4,0.3l1.1-0.3l0.5,1l0.8-1l0.4,0.5l1-0.3l1.3,2.5l0.9-0.1l0.2-0.7l0.5-0.1l0.4,0.9
	l0.9,0.1l0.2,0.8l1.2,0l0.7,0.6l-0.1,2.1l1.2,0.6l0.5-0.9l0.8,0.1l0.9,1.6l-0.1,0.5l0.8,0.7l0,0l1,1.9l-0.6,0.3l0.4,0.7l0.8,0.8
	l1.1-0.6l0.6,1.5l-1.6,2.9l-0.4,2l-2.5,0l-2.3,2.9l-1.8-0.8l-0.7,1l0.2,0.4l0.9-0.4l-0.2,1l0.5,0l0.4,1.1l0.4-0.8l0.4,0.6l0.5-0.3
	l0.1-0.8l0.3,0.9l1,0.1l0.8,0.9l-0.8-0.1l-0.6,0.9l-0.4-0.2l-0.3,1l-1.2-0.2l-0.5-0.9l-0.8,0.3l-0.3,1.7l0.7,0.9l-0.3,0.5l1,0.2
	l0.2,2.6l0.5-0.2l0.5,0.4l-1.7,1.6l1.2,0.7l-0.2,0.7l0,0l-7,2.9l0.7,0.7l-0.3,0.6l1.4,1.4l-0.2,1.2l-2.1,0.4l0.8,0.6l0.8,2.3
	l4.4-1.4l2.4,0l0.5,0.6l0.6-0.4l0.7,0.3l0.7-0.7l0.5,0.5l0,1l-1.6,0.7l-0.4-0.4l-0.1,0.5l-2-0.1l-0.4,0.3l-0.9-0.8l-0.4,1.4
	l-1.7,0.6l-0.3-0.2l-0.1,2.3l-1.2,0.8l-1.3-0.1l-0.2,2.1l-1.7,0.1l-0.1,0.6l-1.2-0.3l-0.9,0.4l-0.5-1l-0.5,0.2l1.5,1.3l1.9-0.1
	l-0.2,1.3l0.7,1l0.7-0.3l0.2,0.6l1.9,0.3l-0.2,1l1,2.2l0.1,2.2l-0.6,0.4l-0.7-0.1l-0.5,0.8l-0.9,0l0.5,0.6l-0.1,1.1l-1.9,1.1l-1-0.2
	l-0.6,0.4l-0.7-0.4l-0.6-1.3l-1.4-0.8l-0.8,0.5l-0.3-1.4l-0.6,0.1l-0.3,1l-0.8,0.5l0.8,1.1l0.8,0.3l0,0.9l0.4,0.1l-1.5,2.8l-0.8,0.5
	l0.7,0.8l0.1,3.2l-1.2,0.3l-0.1-0.5l-0.3,0.3l-0.9-0.2l-0.5,1.3l-1.5,0.6l0,0l-0.4-0.4l0.7-0.9l-0.4-0.4l-1.3-0.2l0.1,0.8l-0.5,0.4
	L103,403l-0.2,0.4l-0.1-1.6l0.7-0.1l1-1.3l0.4,0.1l-0.4-0.7l-1,0.3l-0.1-1.2l-0.3,0.8l-0.8,0.1l-0.1,0.7l-0.5-0.6l0,0.6l-0.6,0
	l-0.1,0.5l-0.8-0.5l-0.4,0.3l1,1.5l0,0l-2-0.3l-0.8,0.9l0,0.9l-0.7-0.1l0,0.5l-1.3-0.3l0,0l0.4-3.5l1.4-1.8l1.3-2.9l0.3-1.9
	l-2.2-6.9l0-1.1l-0.5,0.2l-1-2.5l1-0.4l-1.4-0.2l0.3-1.5l-1.1-0.3l-0.2,1.5l-0.7,0.3l-0.2-3.3l-0.6-1.5l0.8-2l1.5-1.9l-1.1,0.7
	l0.6-1.9l0.6-0.3l-0.5-0.2l-1.2,1.1l-0.6-1.3l0.6-1.4l1.5-0.8l1.8,0.1l1-0.5l-1.2,0.1l-0.9-0.6l-4.2,0.6l-0.6-0.8l0.7-0.8l0.6-2
	l-1.1-0.7l-0.3-2.2l0.9-4.4l0.7-1.1l1.4-0.4l2.2,1l1.1-1.6l1.4,0.5L99,357l0.3-1l-0.4,0.7l-0.6,0.1l-0.5-0.9l-1.9,1.2l-1.3-0.2
	l-1.1-1l-1.9,0.9l-0.1-0.7l-1.1,1.7l0.1-0.9l-0.5,0l-0.7-1.4l-0.9-0.4l0.4-0.9l-0.7-0.6l-0.4,0.3l0.7,0.5l-0.4,0.8l0.8,0.3l0.1,1.6
	l-0.4,0.6l-0.9-1.6l0.1,1.5l0.6,0.8l-0.3,0.4l-0.4-0.8l-0.3,1.3l-0.4-0.1l-0.9,4.4l-0.8-2.6l0.9-0.5l0.2,0.2l0-1L85,361l0,0.8
	l-0.3,1.6l0.7,1.1l0.3,3.6l0.9,2.5l-1.7,4.2l-2,2.4l-0.4,1.1l-0.7-0.4l0.4,0.6l-0.3,0.7l0.7,1.1l-2,0.9l-0.2,0.5l0.1-1.2l-0.7,1.5
	l-3.3,1.1l-0.5,0.3l0.2,0.4l-1.9,0.4l-3.1,1.6l-1.1,0l0,0.6l-1.6,1.2l-1.3-0.1l0.1,0.4l-3.7,1.2l-1.1,0.5l-0.1,0.5h-1.2l-0.3,0.5
	l-2.4-0.1l-1.5,0.7l0,0l-0.7-1l0,0l0,0l0,0l-0.2-0.2l0.5,0l0-0.7l0.6,0l0-0.7l-1.7-0.6l1.7-0.8l-0.3-1.3l-0.9-0.6l-1.6,0.2l-0.6-0.6
	l-1.3,3.3l-0.1,1.8l0,0l-1.2-0.1l-3.7-1.8l-7.1-5.6l-8.1-9.5l1.1-1.1l-0.6-1.6l-0.3,0.4l-1-0.1l0.9,0.8l-0.5,0.2l0.6,0.5l-0.4,0.7
	l-9.9-9l-5.8-6.6l-0.4-1.7l1-2.3l1.7-1.5l0.4,0.2l-0.9,0.9l0.5,0.8l2.6-0.6l0.2,0.5l-1,2l1.6,1.2l1.8-0.8l0.3-0.9l1.8,0.3l1.4-0.5
	l0.8-1.2l-0.5-1.1l1.1,0.7l0.2,1.1l1.9-0.1l0.2-0.8l0.7,0l0-1.1l-0.5-0.2l1.2-0.5l0.3,1l0.3-0.2l0.8,0.9l0.8-1.2l0.7,0.2l1.3-1.4
	l0.5,0.3l-0.1-0.8l1.8-0.8l0.5,0.4l2-0.1l1.7-2.5l0.2-1.6l1.1-0.5l1.1-2.6l1.5-1.4l1.5-3.2l-1.2,0.3l-0.8,0.7l-0.3,1.9l-0.8,0.4
	l-2.3-1.1l-0.4,0.5l-1.2,0.3l-0.8-0.4l0.2,0.8l-7,1.7l-1,0.7l-1,1.8l-1.3-0.6l-0.9,0.1l-1-0.8l-1.7,0.4l-2.5-1.2l-3.3-0.2l-8-5.2
	l-1.2-0.3l-3.5-3l-0.1-0.4l1.8-0.8l-0.7,0.1l-0.1-1.8l-0.6-0.8l-1-0.1l0-0.7l-0.5,0l-0.7-1l-0.3-3.8l0.2-0.6l0.4,0.1l0.1-0.8
	l2.3-1.5l0.7-1.1l1.5-0.8l-0.4-0.3L9,320.7l-1.6,1.8L7.2,321l0.7-0.2l0.5-1l1.9-0.8L9.4,319l-0.5-0.6l-0.2,0.4l-0.6,0l-0.4-0.5
	l0.2-0.4l4.2,0l0.5-7.6l1.1-0.3l0.4,2.3l0.8,0.3l1.3-1.8l1.1,1.2l1.9-1l2.2,0.8l2.3-0.9l4,0.5l2.1-0.5l2.6,2.3l5.8,0.2l1.2-0.6
	l1.3-2.2l9.5-3l0.8,0.5l-0.8,1.3l0.3,0.8l-0.3,1.3l1.7,0.6l3.2,0.1l1.8-0.8l-0.2-0.8l1.6-1.3l0.8-0.3l1,0.3l1.8-1.2l-0.3-0.7
	l-2.3-0.3l0.2-1.8l-0.4-0.4l0.5-2L61.4,301.5L61.4,301.5z"/>
<path id="IN-HP" class="st0" d="M161.2,113.9l1.1-1.7l-0.6-1.2l0.3-1.6l-0.8-1.4l-1.7-1.4l0.3-1.5l1.2,0l1.6,1.1l2.9-2.1l0.2-0.9
	l3-0.7l0.8-1.8l2.4-2.1l1.6,0.2l1.6-0.7l0.7,0.1l0.9,1.1l2.2-0.4l0.5-1.7l0.5-0.2l0.5,0.5l0.5-0.2l-0.5,2.3l0.9,1.1l0.7,0l0.8,2
	l1.7,1.1l0.8-0.3l0.8,0.7l1.3-0.2l0.2,1.7l0.6-0.4l1.1,0.9l0.2,0.8l0.4-0.3l1,0.6l0.5,0.8l0.6-0.1l0.6-1.5l1.4,0.6l0.6-0.6l0.7,0
	l1.3-1.4l1.5-0.4l0.2-0.7l1,0.4l1.6,1.6l-0.6,1l1.8,0.9l0.7,1.3l0.7,0.2l-0.2,1.8l1.7,2.6l1.1-0.1l0-1.1l0.7,0.3l0.6-0.9l0.6,0.5
	l0.6-0.9l1.3,0.2l1.7-1.1l-0.2-0.6l1.8-0.6l-0.2,2.2l0.5,1.2l-1.9,1.1l0.1,1.2l-0.4,0.5l0.7,0.8l1.5-1.3l0.6,0.4l0,0l0.7,0.3l-0.1,1
	l1.7,0.9l-1.1,1.6l0,1.7l-0.6,0.9l2.1-0.1l1.1,0.8l-0.4,1.5l0.5,0.9l1.1,0.4l1.7,2.4l0.8,0.2l-1.7,5.1l0.7,0.7l-0.3,0.6l0.5,1.2
	l0.9,0.1l1.1,1.8l-2.6,2.4l0.2,0.8l0.7-0.1l1,0.9l-0.4,1.3l1.1,0.5l0,1.2l1.6,1.7l0,0l0.2,0.8l1.2,1.1l0.5,1.5l-2.6,0.2l-1.1-1
	l-0.5-1.4l-3.1,0.3l-0.3-0.7l-0.8-0.4l-1.2,0.7l-1.4,0.1l-0.5-1l-0.5-0.4l-0.5,0.3l-0.9-1.1l-1.2,0.1l-0.1,0.5l-0.5-0.1l-0.8,0.9
	l-1.8,0.1l-1.3,1l-1.2,0.1l-0.3,0.7l-1.2-0.6l-1.4,0.6l-0.9,1.8l-0.9,0.5l0.5,1.3l-0.6,0.9l0.4,0.4l-1.1-0.6l-0.6,0.4l0.2,0.9l1,0
	l-0.1,1.6l-0.9-0.5l0,1.2l-1.2,1.5l1.1,1.4l-0.2,0.6l1,0.5l0.1,1.1l-1.1,0.5l0.7,0.9l0.9,0l0.2,0.7l-0.2,0.5l-2.5,1.4l-2.1,0.5
	l-0.4,0.6l0,0l0.2,0.5l0,0l-0.7-0.3l-0.7-1.2l-0.5,0.9l-1.5,0.1l0.8-0.8l-0.1-0.6l-1,1.1l-1.1-1l-0.7,0.2l-1.2-0.7l-1,0.1l-0.4-1.1
	l-1.1-0.4l-0.4-0.6l1-0.8l-0.1-2.2l-1.6-1.3l-0.9-0.3l-0.4,0.3l-0.5-0.8l0.2-0.9l-0.4,0.4l-0.5-0.3l-1.1-2.1l-1,0.6l-0.8-0.6
	l-0.1-0.8l-0.8,0.6l0,0l-1.2-1.4l-2.1-1l-0.2-1.2l0.6-1.4l-0.8-0.4l0-1.3l0.9-0.7L177,147l-0.9,0.3l0.4-0.8l-0.7-0.7l-0.7,0.6l0-0.7
	l-0.4,0.5l-0.1-0.5l-0.5,0.2l-0.5-0.9l-0.7,0.7l0.4-0.6l-1.4-2.1l-0.3-1.2l-0.1,0.6l-0.9,0.3l0.4,1.2l-0.9,0.3l0,0.6l-2.6,0.3
	l-0.1-0.8l-0.7-0.5l0.4-1.3l-3.2-5.7l-1.7-4.2l1,0.1l-1.6-3.3l-2.3-1.1l-2-1.7l-0.8-0.4l-1.1,0.3l-0.4-0.4l1.7-2l-0.9-0.5l0-1.2
	l2.4-1l2.3-2.6l1.8-0.9l-1.7-2.2L161.2,113.9z"/>
<path id="IN-HR" class="st0" d="M180,154.8l0.8-0.6l0.1,0.8l0.8,0.6l1-0.6l1.1,2.1l0.5,0.3l0.4-0.4l-0.2,0.9l0.5,0.8l0.4-0.3
	l0.9,0.3l1.6,1.3l0.1,2.2l-1,0.8l0.4,0.6l1.1,0.4l0.4,1.1l1-0.1l1.2,0.7l0.7-0.2l1.1,1l1-1.1l0.1,0.6l-0.8,0.8l1.5-0.1l0.5-0.9
	l0.7,1.2l0.7,0.3l0,0l0.4,0.3l-0.5,1.4l-0.9,0.7l-1.1,2.3l-1,0.5l-0.5,1.2l0.3,0.3l-3,1.4l-0.2,1.1l-1.7,2.3l-0.6,2.7l-0.7,0.5
	l0.6,1.6l-1.2,2.5l0.5,1.1l-0.5,0.5l1.1,2.2l-0.3,0.8l0.4,0.5l-0.6,0.3l0.1,0.6l0.7,0.3l-0.5,1.5l0.3,0.7l-0.4,0.4l0.3,1l-0.4,1.8
	l1.9,2.4l-0.5,1.2l0.6,1.2l-0.8,0.3l0.1,0.5l0,0l-1,0.6l-0.2-0.6l-1.1-0.5l-0.9,1.1l-1.9,0.4l0.3,2.7l-0.8,1.1l0.3,0.5l-1.2,0
	l-0.5,1.1l-0.4,0l0.1,0.8l0.9,1.1l1.9-0.4l0.8,0.3l0-0.7l0.9,0.7l0.5-0.1l0.7,0.6l0.2,1.2l1,0.8l1.6-0.5l-0.3-0.8l0.4-0.5l2-0.6l0,0
	l2.9,2.3l0.4,1.3l-0.6,0.5l0.7,0.7l-0.1,0.6l-0.5,0.3l1.5,0.5l-0.5,0.4l0.1,0.7l-0.6-0.2l0.1,0.6l1.1,0.1l-1,0.5l-0.1,1.5l-0.3-0.2
	l-0.2,0.5l0.2,1l1.2,1.2l-0.5,0.6l0.6,0.2l-0.4,0.6l-1.1,0l-0.2,1.1l-1-0.3l0,0.9l-1.5,0l-1.3,1.2l0,0l-0.3-0.2l-0.6,0.7l-0.8-0.9
	l-0.5,0.9l0.3-0.6l-0.6-0.2l0,0.6l-0.5,0.4l-1.8-1l-0.4,1l1,0.3l0.2,0.6l-1.8-0.1l-0.5,2l-0.8-0.4l-0.7,0.4l-0.5-1l0.7,0l-0.6-0.7
	l0.4-2.4l0.5,0l0.3-2l-0.4-0.1l0-1.7l0.9-3.5l-2.3-2l-1,0.4l-0.2,1.3l-2.9,1.4l0.2,1.8l-1.3,0.2l-1.3,0.9l0-1.6l-1.8-0.2l0.9-0.4
	l-1-0.7l0.3-0.4l0.8,0.1l-0.6-1.1l-2,0.4l-0.9-0.9l-1.2,0l1.6,1.2l-1.2,0.6l1.2,0.6l-0.3,0.9l-0.9,0.2l-0.3-0.8l-0.6-0.3l-1.5,0.3
	l0.8,0.7l-1.2,0.8l0.5,0.6l-0.3,1.4l0.7,0.4l-0.1,0.8l0.6,0.5l-1.1,0.8l-1.8-1.4l-0.8,0.5l-1.8-0.4l0.3-1.1l-1-0.2l-0.1-0.4l0.3-0.4
	l0.5,0.3l0.5-1.1l-0.6-0.4l0.7-0.2l-0.4-0.5l0.8-0.1l-0.1-0.4l0.6-0.5l-0.4-0.4l-0.7,0.9l-0.1-0.7l-1-0.3l1.9-1.9l0.8,0.1l0,0.6
	l0.6-0.3l-1-1.1l0.2-0.5l-0.9-0.4l0.2-0.9l-1.3-0.9l-0.7-1.2l-0.7-0.6l-2.5-0.3l0.2-1.2l-3.1-2.1l-0.2-1.3l-1.3-0.3l-0.6-3.2
	l-0.6-0.9l0.3-1.2l-1-2.1l1-1.2l-0.1-0.8l-1.6-0.1l-0.1-1.1l-1-0.1l0.3-1.4l-0.7-0.3l0.8-1.1l-0.1-1.7l-0.8,0.2l-0.3,0.7l-0.6-0.2
	l0.1-1.4l-2,1.4l-0.9-0.8l-1.5,1l-0.6-0.1l-0.8-1.3l-1,0.4l-0.8-0.2l-0.5-2l-1.8-0.9l-1.8,1.1l-2.2-0.4l-0.2,1l-1,0.1l0-0.8
	l-0.8-1.4l-0.6-0.2l0-0.6l0.3-0.4l0.8,0.2l0.7-1.6l-1-0.9l0.8-4.5l-0.4-0.4l-1.3,0.7l-1.1-0.1l-0.1-1l1.8-1.9l-0.4-0.9l-0.6-0.1
	l0.3-0.9l0,0l2.7,0.9l-0.1-0.4l1.1-1.1l0.7,0.2l1.6-0.7l1,0.8l0.7-0.2l0.1,0.7l0.6-0.2l1.6,2.2l1.6-0.5l0.4-0.9l0.4,1l-0.5,0.6
	l0.5,0.5l-0.4,0.5l1.3,0.6l0-0.9l0.6-0.5l1,2.1l-0.8,0.6l0,0.9l-0.8,0.6l0.3,0.8l1,0.6l0,1.4l1.5-0.5l0.2-0.5l-0.5-0.5l0.8-1.5
	l0.7,0.3l-0.3-0.8l0.9-0.4l1.4-2.3l1.4,1.1l0.9-0.1l0.3,0.6l0.9-0.1l0.3-0.6l1.5,0.4l0.2-1.3l1.4-0.4l0.5,0.4l0.7-0.1l1.1,1.6
	l1.8,0.4l1.1-0.6l0.4,0.2l0.9-1.4l0.8,0.2l2.6-1.7l-1.2-0.5l-0.4-1l0.8-0.4l-0.3-1.7l0.5-0.3l-0.4-0.3l1.2-1.6l-1.3-0.7l0.4,0
	l-0.2-0.6l1,1l1.5,0.3l0.5-0.5l-0.5-0.5l1.3,0.5l0.2-0.7l-0.4-0.6l0.6-0.5l0.9,2.4l0.8,0.1l0.2,0.5l1.1-0.5l0.5,0.6l0.5-0.1l0.5-0.6
	l0.3-2.4l-0.7-0.2l0.2-0.4l-0.6-0.6l-1.1,0.7l0.3-0.9l1.3-0.1l1.4-1.3l0.8-0.2l0.5-0.6l-0.6-0.1l-0.2-0.7l1.2-1.1l1.1,0.7l0.5-0.5
	l1,1.2v0.6l1-0.7l-0.8-1.3l0-1.1l0.7-0.8l-0.7-0.5l0.6-1.4l-1.1-1l0.1-0.9l-0.6,0.6l-0.3-0.7l0,0l0.2-1.9l0,0l0.4-0.7l-0.4-1
	l-1.2-1.1L180,154.8z"/>
<path id="IN-JH" class="st0" d="M320.8,305l4.6,0.5l3.2-0.6l1.3-0.3l1.3-2.1l1.1,0.6l1.3,3l0.6-0.5l0.1-0.8l0.7,0.7l-0.1-0.8
	l0.3-0.2l0.6,0.5l0.4-0.4l0.5,0.5l0.5-0.5l-0.2-0.3l0.5,0l0.7,1.4l-0.7,0.5l0,0.7l0.8,0.4l-0.3,0.2l0.4,0.6l1,0.1l0.8,0.7l-0.1,0.6
	l0.8-0.2l0.8,1.2l0.7-1.2l-0.1-0.8l0.9-0.2l0.1-0.6l1.8,0.4l0.4-1.4l2.4-1.7l0.8,0.4l0,1.3l1-0.2l0.4,2.1l1.5-0.1l0.5-0.8l1.3-0.1
	l0.5-0.6l-0.2,1.2l0.5,0.2l1.7-1.1l-0.4-0.8l2.7-0.8l0-0.7l4.3-0.5l0.7,0.6l0.4-0.9l0.7,0l0.2-0.9l1.8,0.5l-0.3-2.4l1-0.6l0.8-2.5
	l0.8,0.5l2.1,0l1.5,1.6l2.1-1.1l-0.2,0.9l1-0.1l0.8,0.9l0.2,2.3l1.3,0.4l0.5-0.6l1,0.8l1.2-0.2l-0.4,0.6l0.2,1.1l-0.7,1.1l1.5,0.4
	l1.4,1.5l0.8,0.2l0.3-1.2l0.5-0.1l0.4-2.1l0.9-0.4l1.2-1.6l1.4,1l1.3-0.3l0.4-1l0.5,0l0.6,0.6l-0.1,0.7l0.8-0.1l0.4,0.4l0.5-0.4
	l0.7,0.7l-0.3-1.1l0.7-1.3l2.5,0.8l1-4.5l-0.4-0.5l0.8-0.8l0.8-0.1l0.1-0.6l-0.2-3.2l1.4-1.5l0.8-0.4l0.8,0.4l0.7-3.1l1,0.4l0.5-0.5
	l1.7,0.8l0-1.1l0.5-0.5l-0.3-0.8l1.2,0.3l0.2-1.1l0.7-0.4l0.6,0.9l1.6,0l0.5,1.2l1.6,0.2l0.1,0.6l0,0l-0.2,3l2.1,1.5l1.9,2.3
	l0.1,0.8l-1.8,1l0.2,0.7l-0.6,0l0.2,0.7l-0.5,0.7l-0.4,0l0-0.6l-0.4,0.5l0.5,0.6l1.3,0.4l-0.3,1.1l0.6,0.4l-0.6,0.7l0.4,0.3l-0.6,0
	l0.8,0.4l-0.5,0.7l-0.8,0.3l-1.6-0.7l0.8,0.8l-0.2,1.2l0.2-0.4l0.3,0.4l-0.8,1.8l0.5,0.2l-1.1,2.4l-1,0.3l-0.6,1l-1,0.1l0,0.7
	l1.1,0.6l-0.1,0.8l-2.5-0.1l0.8,0.6l-0.8,0.5l0.1,0.5l-1.7-0.7l0,1.4l0.4,0.3l-0.6,0.6l-1,0.1l0.5,0.6l-2.1-0.6l-0.6,0.3l-0.3-0.2
	l0.4-0.6l-2-0.2l0.5,1.7l0.6,0.2l0.1,1.3l-0.5,0.6l-0.5-0.8l-0.1,1.8l-0.5-0.1l-0.6-0.2l0.1-0.3l-1.4-0.3l0.7,1.1l-0.4,0.6l-0.5,0
	l-3.3-1.6l-0.6,0.5l-0.9-0.8l-0.4,0.4l-0.1,0.4l-1.1,0.7l-0.6-0.5l0.6,1.6l-0.6,1.7l-1.1,0.2l-0.1-0.4l-0.8,0l-2.1,0.5l-1.3,1
	l-1.9,0l0,0.5l-1.2,0.6l-0.5,0.9l-0.1,1.1l0.4,0.3l-1.5,0.9l0.3,0.3l-0.3,0.2l-0.5-0.5l-0.7,0.5l-0.4-0.4l0.3-0.8l-0.4,0.3l-1.6-0.4
	l0-2.2l-2-0.4l-0.8,0.7l0.8,1.3l-2.2,0.9l-1.6-0.4l-0.1,1.4l0.7,0.9l-0.6,0.1l0.2,0.9l-1.1,1.4l0.1,1.5l0.5,0l1.2,1.5l2.6-0.3
	l0.2,0.8l1.9,0.6l0.3,1l1.3,1.1l1.8-0.5l2,0.9l0.5-0.5l1.7,0.1l0.3,0.5l0.6-0.5l-0.5,1l-0.7,0.2l-0.3-0.3l-0.8,0.6l0.6,0.6l-0.6,0.8
	l-0.3,1.9l1.9,1.7l0.7-0.4l1.6,1.1l0.7,2.2l2.3,0.1l0.8,1.7l-0.2,0.5l-0.9,0l0.4,1.1l1.7,0.7l-0.3,1.6l1.2,0.7l0,0.9l-1.5,0.1
	l-0.1-0.3l0,0.6l-0.2,0.5l-0.5,0l-0.2,0.1l-0.9-0.1l0,0l-1.5-0.4l-0.1-0.6l-1.1-0.3l-0.3-0.5l-1,0l-0.7-1l-1.3,0.4l-0.1,0.5l-1.7-1
	l-1.5-2.3l-3.6-0.9l-1.4-1.8l-0.3,1l-1.1,0.5l-0.3,1l1.2,0.7l0.3,1.1l-0.6,0.8l0.6,0.2l-0.3,0.4l0.7,0.1l-1.5,1.4l1.2,1.3l-0.5,1.7
	l-1.2,2l-0.6,0.3l-0.1,0.9l-3-0.5l0.6-2l0.9,0l-0.6-0.8l-2.5,1.4l-0.8-0.9l-1.1,0.4l-1.1-0.3l-3-1.6l-0.7,0.1l-0.1,0.8l-0.7-0.1
	l-0.5,0.4l-1.4,2.4l-0.4-1l-0.8-0.6l0,0.4l-0.3-0.5l-0.8,0.1l-0.5-0.7l-1.1-0.3l-0.9,0.7l-0.5-0.1l0.9-0.6l1-3.6l0.9-0.4l0-0.5
	l-0.5,0l0.1-0.6l-0.4-0.2l-0.2-2.9l-2.3,0.9l-0.2-0.3l-1.1,0.7l-0.4-0.6l-0.9,0.4l-0.5-0.5l-1.2,0.1l-0.2,0.6l-4.5-0.1l-1,0.3l0,0.5
	l-0.6,0.1l-0.5,0.7l-2.9,0.3l-0.9-0.8l-1.1,0l-0.9-0.7l-0.4-1.6l-2.8-1.1l0,0l0.1-1.1l1.6-1.5l1.5,0l1.5-0.8l0.1-1.5l0.6-0.6l0.6,0
	l0.9-2.2l0.8-0.1l0.4-1.7l-0.4-0.8l-1.9,0.3L337,340l-1.1,0.3l-0.6-1.1l-0.9,1.4l-0.4-2.7l-2-1.3l0.8-4.3l-0.6-1l-0.8,0.5l-0.9-0.6
	l0.1-1.7l1.1-2l-0.3-2l-1.4,0.2L330,327l-3.4-0.8l-1.3-1.9l0.3-1.6l-0.7-1.5l-2.8-1l0.3-0.5l-0.7-0.3l-0.8-3l-1.2-0.3l-0.5-0.9
	l-2.1-0.4l0,0l1.6-3.8l-0.5-1.1l1.6-1.1l-0.5-0.9l-0.6-0.1l-0.4-1.1l0.2-1L320.8,305z"/>
<path id="IN-JK" class="st0" d="M140.1,1.4l1.2,1.4l2.4-0.1l1.7-0.1l1.5-1.2l1.6-0.6l1.6,0.8l1.7,2.5l2,2.9l2.6,3l1.1,2.2l3.4,2.2
	l3.3,1.6l2.8,2.6l3.3,1.1l2.6,2.7l1.6,1.4l2.7,0.3l2.3,2.5l0.1,1.8l-0.5,1.5l0.7,1.9l1.2,1.8l2.7,0.8h3.3l3.7,1.1l2.2,2l0.9,2.6
	l1,1.8l3.5,0.4l4-1.8l3.5-0.9h2.8l2-3.2l2.3-2l2.7-0.6l2.2-0.9l2-1.5l3.5-0.3l2.9,0.9l1.8,1l1.2-0.7v-2.6l1.1-1.3l1.8-0.5l2.5,2
	l1.3,1.5l1.6,0.4l3.1,0.7l2.4,0.7l2-0.9l1.4-0.5l1.3,2.1l1.2,2l1.7,0.9l2.1,1.5l0.6,1.6l-0.5,1.7l0.3,1.8l-0.1,1.3l-0.9,1.7
	l-0.1,1.2l-1,1.4l-0.2,1.5l0.1,2.6l-0.8,2l-0.8,1.9l-0.6,1.4l-0.4,2.2l-1.5,0.8l-1.6,0.7l-2.1,1v2l-0.8,1.3l-1.9-0.1l-2.1,0.1
	l-1,0.9l0.2,1.1l0.9,1.6l0.5,2.1l-0.9,3.7l-2.1,2.2l-1.2,0.5l-2-0.5l-2.2-0.7l-1.4,0.6l-2,0.4l-1.2,0.4l-0.5,1.2l0.4,1.7l0.7,1.6
	l0.9,1.4l1.4,2.2L228,88l-1.1,0.9l-1.5,0.6l-0.2,1.4l0.2,1.6l-0.5,0.7l3.1,2.8l0.2,1.7l2.3,0.9l4.7,0.3l0.1,0.8l-1.3,2.9l-0.1,1.3
	l2,2.2l0.5,2.1l1.3,1.1l0.6,2.2l-0.4,1.6l-2,0.5l-2.8,2.4l-1.1-0.9l-1.2,0.3l-1.6,1.1l-0.5,2.3l-1.2-0.3l-1.5,1l-1.3-0.6l-2.8-2.7
	l-0.4-2.3l0.3-0.8l-0.7-2.4l-1.9,1.2l-0.6,1l-1.7-0.1l-1.2,1l-0.7-0.2l-0.8,0.6l0,1.1l-0.6-0.4l-1.5,1.3l-0.7-0.8l0.4-0.5l-0.1-1.2
	l1.9-1.1l-0.5-1.2l0.2-2.2l-1.8,0.6l0.2,0.6l-1.7,1.1l-1.3-0.2l-0.6,0.9l-0.6-0.5l-0.6,0.9l-0.7-0.3l0,1.1l-1.1,0.1l-1.7-2.6
	l0.2-1.8l-0.7-0.2l-0.7-1.3l-1.8-0.9l0.6-1l-1.6-1.6l-1-0.4l-0.2,0.7l-1.5,0.4l-1.3,1.4l-0.7,0l-0.6,0.6l-1.4-0.6l-0.6,1.5l-0.6,0.1
	l-0.5-0.8l-1-0.6l-0.4,0.3l-0.2-0.8l-1.1-0.9l-0.6,0.4l-0.2-1.7l-1.3,0.2l-0.8-0.7l-0.8,0.3l-1.7-1.1l-0.8-2l-0.7,0l-0.9-1.1
	l0.5-2.3l-0.5,0.2l-0.5-0.5l-0.5,0.2l-0.5,1.7l-2.2,0.4l-0.9-1.1l-0.7-0.1l-1.6,0.7l-1.6-0.2l-2.4,2.1l-0.8,1.8l-3,0.7l-0.2,0.9
	l-2.9,2.1l-1.6-1.1l-1.2,0l-0.3,1.5l1.7,1.4l0.8,1.4l-0.3,1.6l0.6,1.2l-1.1,1.7l-1.4,2.2l-1.2,0.3l-0.7,1.4l-3.8,1.7l-0.6,1.8
	l-0.2-0.8l-0.5-0.2l0.1-0.6l-1.2,0.4l-1.9-0.3l-2.7-1.7l-0.1-0.5l-1,0.2l-1.2-1.6l-1-0.3l-1.2,1.1l-3-1.2l-2.9,0.3l-1.2-3.1l0.7-1.2
	l-0.5-1.5l1-3l-1.2,0.4l-0.6,1.6l-1.7,0.4l-1.2,0.7l-2.9-0.3l-1.4-1l-2.1-1l-1.6-1.5l-2.5-0.9l-2.1-1.5h-3.2l-0.7-1.5l-1.1-1
	l-1.4-1.2l0.6-2.5l-0.9-1.8l-0.3-3.1l1.1-1.3l-0.8-3.2l0.5-1.2l0.1-1.5l-1.5-1.5l0.1-1.4l1-1.2l-0.8-3.1l-1.5-1.5l0.1-2.9l-0.3-2.3
	l-1-2.5l0.4-2.5v-1.7l1.3-1.4l2.2-0.6L115,63l0.1-1.9l1.3-2.3l1.4-0.2l3.4-0.1l1.2-0.9l0.8-3l0.9-1.9v-2l-1.8-1.8l-2.5-1.1l-2-0.6
	l-1.2-0.9l-0.7-1.5l0.4-1.6l1.4-0.9l0.6-1.2l-1-2.2l-2.1,0.1l-2.4-0.3l-2-0.6l-3.5-0.3l-1.9-1.7l-0.9-1.8l-0.7-2.6l-2.7-1.3
	l-3.1-0.7l-2,1.3l-2.2,0.1L93.1,30L93,27.8l0.5-1.1L93,25.1l0.4-1.6l1-2.3l2.4-1.7l2.5-2.1l2.3-2.5l2.2-2.8l0.9-2.8l2-1.3l3.1,0.3
	l3.9,0.4L118,9l2.1-0.5l-1.9-2.1l-1.7-0.9l0.8-1.2l2-0.3l1.8,1.6l2.6,0.6l1.3-1.6l1.8-0.4l1.7-0.8l1.4-0.7l2.2-1.1l1.5-1.2l2.2-0.2
	l1.7,0.3L140.1,1.4z"/>
<path id="IN-KA" class="st0" d="M124.6,502l-0.6-0.4l0.8-0.2l-0.1-0.9l1.5-0.8l0.5-0.7l0.5,1l0.9,0l1.5-0.7l0.5-1.5l-0.9-0.2
	l0.6-0.9l0.4,0.9l0.4,0l-0.4-1.1l1.6-3l-0.7-0.4l-1,0.5l-0.5-0.4l1.4-1.2l1.1,0.5l-0.1-1.3l0.6-0.9l-0.2-0.9l-1.7-0.6l0-0.5
	l-1.4-0.2l-0.4,0.5l0.3-0.5l-0.5-0.7l0.1-1.2l0.4-0.2l0.4,0.6l0.2-0.6l-0.6-0.1l-0.1-1.1l-0.9-0.1l0.1-0.9l-0.7,0.6l-0.3-0.4
	l0.7-0.2l-0.2-0.9l0.8,0.9l0.3-1.1l0.8-0.1l-0.1,0.4l0.6,0.2l0.3-1.1l1.4-0.6l0.1-1.2l0.4,0.7l1.1-0.1l0.5,1.8l1.3-0.5l0.1-0.7l1,0
	l-0.6-0.7l0.7-0.8l0-0.9l3.3-1.2l1.4,0l-0.2-1.9l1.1-0.5l0.1-0.6l-0.8-0.4l0.2-0.3l1.9,0l0,0.3l1.2-0.5l1.1,1.6h1l-0.1,0.7l0.7,0
	l1.4-0.7l0.1-1.8l1.2,0l1-0.5l0.8,0.3l0.8-0.5l0.5,0.9l1.6-0.5l0.1-1l0.7,0.1l0,0.7l0.7,0.4l0.6-0.2l0-1.6l-0.6,0l0.7-0.6l0-0.7
	l-1.1-1.7l0.7-0.8l0-1.2l-1.1-0.9l0.1-0.9l-0.6-0.2l-0.1-0.7l0.8-0.2l0.4-1.9l0.9,0.4l0.3,1l1-0.2l1.4,1.1l0.5-1.1l0.8,0.8l0.5-0.7
	l0.1,1.4l0.8,0.6l2.6-0.7l0.5,0.5l0.9-0.8l0.9,0.6l0.3,1l-0.1-1.1l1.5-0.6l0.7,1l1.4-0.4l0.2,0.9l0.6,0l0.6-1.3l-1-0.1l0.2-1.3
	l-0.8,0l-0.1-0.8l0.9-0.5l-0.7,0l0.5-0.6l-0.5-0.4l-0.2-1.1l1.8-0.2l0.3-0.9l1.3-0.4l-0.1-1.2l0.8,0l0-1l1,0l0,1.3l0.9-1.4l1,1.8
	l0.6,0.2l0.2-1l0.6-0.2l-0.2-1l1-0.1l0.5-0.9l-1.1-0.7l0.1-0.9l1.3,0.6l2.4-1l0-2.6l0.8-0.1l-0.2-0.7l0.4-0.5l-1-0.4l0.7-1.5
	l0.7-0.1l0.8,0.6l0.2-0.5l0.5,0.7l1.1,0l-0.3-0.9l1.1-0.5l0.4-1.4l0.7,0.1l-0.2-0.8l1-1.3l-0.1-0.8l1.6-1l0.5,0.5l0.6-0.4l0,1
	l0.8,0.3l-1.1,1.7l1.6,0.1l0.6,1l0.9-0.4l0-0.6l0.8,0.3l0,0l1.1,0.3l-0.8,1.7l0.7,1.1l0.1,1.1l-1.1,1l1,1l1.1,0.4l0.2,0.5l-0.2,0.5
	l-0.4-0.2l-0.1,1.2l-0.7-0.1l0.2,0.8l-0.5-0.1l-0.5,1.2l-0.5-0.2l-0.3,0.6l-0.1,0.4l1.3,0.4l-0.1,0.4l-2.3,1.2L194,460l1,0.3
	l0.2,0.6l0.5-0.7l0.4,0.5l0.9-0.3l0,0.7l2,0.6l0,0.7l-0.8-0.2l0.1-0.5l-0.3,0.6l-0.6,0.1l0,0.6l-0.8-0.2l0,0.5l-1.3,0l0.5,0.5
	l-0.2,0.7l-0.6,0.4l-1-0.4l-0.4,1.8l0.4,0.3l-1.6,1.2l0.4,0.2l-0.8,1l2.1,1.3l0.8,2.1l-1,2.1l0.4,2.8l-0.7-0.1l-0.3,1.5l0.9,0.1
	l0,0.7l-1,0.3l0.3,0.5l0.8-0.2l-0.1,1.4l-1.5,0.4l0.5,1l-0.8,0.2l-0.3,0.6l-1.5-0.2l-0.1,0.4l-1.2,0.1l1,1.4l1.2,0.5l1.4,0.4
	l1.7-0.3l2,0.8l0,1.1l-0.5-0.2l-0.7,0.8l-0.7-0.1L195,489l0,0.6l0.5,0l-0.6,1.4l0.1,0.9l0.5,0.3l-0.4,1.6l0.4,0.6l0,1.8l0,0
	l-5.5-0.8l-2.2,0.4l-1.6,0.9l-0.9,1.5l0.9,0.2l-0.4,1.9l1.7,1.6l-0.2,0.7l-0.7-0.6l-1.1,0.4l-0.1,2.9l-1.1-0.1l0,0.3l1.2,1.2
	l0.7,2.4l1-0.1l0.1,0.8l0.7,0.1l0.3,0.6l-0.9,0.8l0.8,0.6l0,1l-0.5,0.1l0.5,0.5l-1.6,2.6l-0.8-0.1l0.1-0.5l-1,0l-0.4,0.4l-2.2-0.4
	l-1.7-1.3l-0.5,0.4l0.2,1.2l-0.4,1l1.3,0.4l0.8-0.3l-0.3,3.4l-1.4,0.5l0.4,1l-0.8,2.9l0.8,1.6l0.6,0.1l0.9,1.2l2.2-0.2l-0.6,0.7l0,1
	l-0.6-0.3l-0.6,0.5l-0.1,0.9l1.5,1.1l-0.5,0.5l0.3,0.7l2.3,0l0.5,0.6l0.6-0.1l0.1-1.6l0.8-1.1l1.7,0.6l1-0.4l0,1.2l1.7,0.1l-0.1,0.8
	l0.6,0.8l0.7-0.4l-0.9-1.8l0.2-0.6l1.2,0.3l0.3,0.8l0.9,0l0.1,2.6l-2.3-0.3l-0.3,0.8l-0.6,0.1l-0.1,0.6l0.9-0.5l0.1,0.3l-1.4,1.7
	l1.2,0.3l-0.2,0.8l1.2,0l-0.5,0.7l0.4,0.6L193,540l0-0.4l-0.9,0l0.1-1.8l-0.8-0.9l-3.5,0.7l-0.5-1.1l-2-0.2l-0.3-1l0.2-1.6l-1.6-0.4
	l-0.1,0.5l-1,0.1l-0.2,0.6l0.9,0.1l1,1.3l-0.9,0.9l2.2,2.1l0.1,0.6l-0.5,0.1l-1,1.7l0.5,1.5l0.4,0.2l0.3-0.8l0.7,0.7l0.7-0.5
	l1.5,0.1l-0.1-1.4l-0.8-0.6l0.8-0.2l-0.1-0.9l0.4-0.4l0,1.2l0.5-0.5l0.1,0.4l0.5-0.7l0.3,1.2l1.2-0.4l0.3,0.7l0.8-0.4l1.4,0.2
	l-0.3,0.8l1,0l-0.2,2.6l0.7-0.1l0.1-0.6l0.5,0.5l0.2-1.2l0.8,0.6l0.8-0.6l0.5,0.3l0.3-0.2l-0.6-0.4l0.8-0.4l0.4,0l-0.1,0.5l0.7-0.2
	l0.3,0.6l0.1-1.2l1.4-0.5L201,541l1.1-0.5l-0.4-1l0.3-0.6l1.4,0.1l0.5,0.7l1.1-1.1l0.2,1.2l-0.7,0.3l0,1.3l0.4,0l0.4-0.9l1.1,0.2
	l0.1-0.7l1.5,1l0.1,1.4l-0.7,0.9l0.5,0.5l-0.1,0.6l-0.9-0.1l-0.1,0.5l0.5,0.7l1.6-0.3l0.1,0.5l0.7,0.2l-0.2,1.3l0.9-0.7l3.4,0.2
	l-0.7,4.8l0.9,0.5l-0.6,0.3l0.5,0.3l0.7-0.3l0.2,0.4l0.7-0.2l1,1.1l0.7-0.9l0.5,0.8l-0.2,1.2l-0.6,0.4l0.6,0.7l-1.3,0.8l0.4,0.5
	l-0.5,0.3l0.1,0.6l-1.1,0.5l0.1,1.5l-0.7-0.1l0.3,1.5l-1.2,0.1l-0.7-0.7l-0.9,1.7l-1.3,0l-0.4,2l0,0l-2.1-0.4l-1.5-1.5l-0.7-0.1
	l-0.3,1.1l-0.4,0l-0.8-1.1l-0.4,0.8l-0.3-0.2l0.5-0.7l-0.4-0.5l-2.8,1l0.3,1l-1.4,2.6l-0.6-0.2l-0.5,0.5l-0.5-0.5l-1.3,0.4l0.2,0.8
	l-0.6,1.3l0.2,1.1l0.6,0.2l-0.6,0.7l1-0.2l-0.1,1.5l-0.3,1.2l-1.3,1.5l-1.5,0.5l-0.1,1.3l5.5,0.7l0.9,1.3l-1.7,2l-0.6,1.5l-3.7,0.1
	l-0.2,1.2l-0.5-0.3l0.1,1.1l-0.8,1.9l-1.3-0.6l-0.7,0.4l-0.9-0.8l-0.9-0.1l-0.3,0.4l-2.6,0.4l0.1,1.1l-0.8-0.3l-0.3-1.1l-0.7,0.3
	l0.2-0.4l-0.6-0.4l-0.7,0l-0.3,0.8l-1.3-0.4l-1.5,3l0.5,0.9l-0.3,0.6l-0.4-0.5l-1.5-0.3l-3.9,0l-0.4-1.3l-0.8-0.6l-1.1,0.9l-0.6-0.1
	l0,0l-0.6-0.9l0.5-0.3l-0.2-0.8l-1.5,0.5l-1.3-1.5l-1.1,0.1l-0.7-1.4l-1.6,0.3l0-2.5l-2.4,1l-2.5-0.4l-1.1-0.9l-0.5-1.8l-1.7,0.2
	l-0.3-0.8l-0.8,0.2l-0.6-1.1L155,577l-2-2.9l-1.3,0l0-1.7l-1.2-0.9l0-1l1.2-0.2l-0.2-0.8l-1.5,0.9l-0.1-0.7l-1.1-0.6l-0.1-1l1.1-0.4
	l-1.1-0.6l-1.1,1l-0.4-1.3l-0.9,0.2l-0.3-0.3l0.2-0.9l-1.4-0.5l-0.1,0.7l-0.7,0.1l0-1.2l-0.9,0.1l0.1-0.3l-0.6-0.1l0.5-0.7l-0.3-0.6
	l-2.6,0.8l0,0l-1-2.1l-2.6-10.6l-0.5-6.1l-1.3-5l-0.8-1.7l-0.8-0.4l-0.6-1.2l-0.6-3.4l-0.6-0.9l-1.8-6l0.8-0.6l-0.6-0.5l-0.2,0.7
	l-1,0l-0.3-1.7l-0.5-0.5l0.3-0.3l-0.4-1.6l-0.7-0.7l-0.6,0.6l-2.3-1.7l0.6-0.1l0.2-0.9l-0.4,0l-0.3-1.1l0,0l0.9-0.5l0.8,0.2
	l-0.1-0.9l0.8,0.6l1.2-1l-0.2-0.5l0.9-1.1l-0.5-1.2l0.2-1l0.7-0.9l-0.3-0.8l-1-0.7l1.8-0.8l-0.3-1.6l-1-0.5l0-1.2l-0.5-1l0.6-0.8
	l-0.7-0.9l0.3-0.9l-0.3-1l-0.5-0.3l-0.4,0.4l-0.5-0.7l-0.3,0.6L124.6,502L124.6,502z"/>
<path id="IN-KL" class="st0" d="M140.1,564.1l2.6-0.8l0.3,0.6l-0.5,0.7l0.6,0.1l-0.1,0.3l0.9-0.1l0,1.2l0.7-0.1l0.1-0.7l1.4,0.5
	l-0.2,0.9l0.3,0.3l0.9-0.2l0.4,1.3l1.1-1l1.1,0.6l-1.1,0.4l0.1,1l1.1,0.6l0.1,0.7l1.5-0.9l0.2,0.8l-1.2,0.2l0,1l1.2,0.9l0,1.7l1.3,0
	l2,2.9l1.2,0.2l0.6,1.1l0.8-0.2l0.3,0.8l1.7-0.2l0.5,1.8l1.1,0.9l2.5,0.4l2.4-1l0,2.5l1.6-0.3l0.7,1.4l1.1-0.1l1.3,1.5l1.5-0.5
	l0.2,0.8l-0.5,0.3l0.6,0.9l0,0l0,0.8l-0.9,0l-0.6,0.8l-1.1,0.4l-0.6-0.6l-0.9,0.6l0.3,2.2l0.8-0.3l0.9,0.6l0.3-0.3l1.6,0.5l0.8,1.1
	l1.3,0.7l0.6-0.1l0,1.3l-2,1.3l0.1,1.1l0.7-0.5l2.8,0.4l1.5-1l0.6,0.5l-0.7,1.4l1,0.5l0,1.6l1.2,0.1l-1.8,0.2l-1.2,2.3l3.5,1.3
	l0.5,1.1l1,0.2l0.2,0.6l-0.9,2l0.4,1l-1.4,0.1l0.5,0.9l-0.5,3.6l0.7,1.2l-0.4,1.4l0.4,0.4l0.5-0.3l0,0.5l0.9,0.9l1.4,0.3l1.4-0.8
	l0.3-0.8l2.3-1.3l1.2,0.1l-0.2,0.7l0.8,1.1l-0.1,0.7l0.7,0.3l-0.4,1.9l-1.5,0.6l1.3,1.5l0.2,1.4l-0.5,0.2l-0.7,1.6l0.5,0.4l-0.3,0.7
	l0.5,0.5l-0.5,0.2l0,1.2l-0.4,0.1l-0.8,2.3l0.9,0l1.2,0.8l1-0.6l0.4,0.6l0.3-0.7l0.2,1.5l1,0.6l-0.4,1l-0.9,0.4l-0.5,2.2l-0.6,0
	l-0.4,0.8v1.7l-0.6,0.6l0.3,0.8l-1.2,1.1l-0.3,1.1l-1,0.5l1,1.4l0,0.7l0.5,0l0.8,1.2l-0.6,1.8l-0.8,0.9l-0.4-0.1l2.3,4.2l-0.4,0.8
	l-1.3,0.2l0.5,1.2l-1.6,1.2l0.5,1.4l-0.8-0.2l-0.5,0.5l0,0l-2.5-1.8l-7.2-9.5l-1.8-1.4l-0.6-2.4l-3.8-8.4l-2.1-11.6l0.3-0.1l0.9,1.7
	l1.4,1.4l0,2.6l0.6,0.4l-0.7,3.3l0.5,0.4v-0.4l2.5-0.1l-1.8-0.7l0.3-1l-0.2-0.8l-0.4,0.1l0.2-1l-0.7-0.1l-0.1-3.4l-0.8-1.2l-0.3,0.1
	l0.2,0.6l-0.3-0.1l-1.4-3l0.3-1l-1.2-1.4l0.8,3.5l-0.4,0.1l-2.6-8.5l-4-8.7l-1.1-4.8l-2.6-7.1l-1.1-2l-1.4-0.6l-1.6-4.3l-2.9-3.3
	l-1-0.5l-1.9-3.1l-0.7-0.4l-0.6,0.4l-0.4-1.9l-4.4-8.6L140.1,564.1L140.1,564.1z"/>
<path id="IN-LD" class="st0" d="M102.6,658.2l0,0.5l-0.4,0.4l-0.4,0l-0.3-0.1l0-0.1l0.1,0.1l0.4,0l0.3-0.2L102.6,658.2L102.6,658.2z
	 M114.8,620.4l-0.1,0.9l-0.1,0.1l-0.1-0.3l0.1,0l0.1-0.1L114.8,620.4L114.8,620.4z M87,619.7l0.1,0.2l-0.1,0L87,619.7z M115,619.3
	l0.1,0.3l-0.1,0.3L115,619.3L115,619.3z M93.6,610.4l0.2,0.1l0,0.2l-0.7,0.4L93.6,610.4L93.6,610.4z M115.3,605.2L115.3,605.2
	l0.5,0.1l-0.6,0.2l-0.2-0.1l0-0.2L115.3,605.2L115.3,605.2z M83.8,605.2l0.3-0.6l0.1-0.5l0.1-0.1l0.1,0
	C84.5,604,83.8,605.2,83.8,605.2z M86.3,602.6L86.3,602.6l0,0.2l-0.1,0l0-0.2C86.2,602.6,86.3,602.6,86.3,602.6z M87,602.4l-0.3,0.2
	l0-0.1L87,602.4z M95.5,598.5l0,0.2l-0.3,0.4l-0.1-0.1l0-0.2L95.5,598.5z M82.3,596.9L82.3,596.9L82.3,596.9L82.3,596.9z
	 M96.7,595.9l-0.3,0.9l-0.4,0.8l0.3-1.3L96.7,595.9z M101.1,590.9l0.2,0.2l0.1,0.3l-0.1,0.1l-0.1-0.5L101.1,590.9L101.1,590.9z
	 M84.1,588.7l0.1,0.1L84.1,588.7L84.1,588.7z M95.1,586.4l0.1,0.3l-0.2,0.2L95.1,586.4z"/>
<path id="IN-MH" class="st0" d="M125,363.3l1.1,0.6l1.9-0.2l0.3-0.7l1.1-0.3l0.7-0.9l1.2-0.1l0.1,1.2l0.9,0.4l0.7,1l-0.5,2.3
	l0.2,1.8l0.9,0.2l0.1,0.8l4.9,1.6l2.3-0.4l3.3,1.5l1.2,2.4l2.2,1.1l1.7-0.1l0,0.6l1.2-0.3l0.8,0.5l1.5-0.3l1.7,0.5l1.3-0.5l1.4,0.3
	l4.5-0.4l1.7,0.1l1.8,0.9l1-0.5l1.3,2.6l-0.3,0.5l0.6,1.1l-0.1,0.4l-1.1,0.1l1.2,1.8l1.9-0.2l0.4,0.4l2,0l1.6-0.8l0.7-1.8l2.8,0.1
	l0.8-2l-0.8-1.2l3.3-2.9l0.2-0.5l-0.6-0.7l0.5-0.4l0.2-1.3l0.8,0.1l0.4-0.5l1,0.3l3.6-2.7l1.8,0.2l0.3-0.3l0.8,0.7l0.4-0.5l1.2-0.1
	l0.1-0.9l4-0.2l1.4,1.6l0.6,1.7l0,1.4l0.8,0.4l-0.8,0.3l-2.3-0.6l-0.8,0.5l0.4,1.3l0.6,0.4l0.4,1.8l2,0.3l0.4-0.1l-0.1-0.6l1,0
	l0.3,0.5l0.5-0.6l0.3,0.9l0.6-0.1l0.3-0.5l0.9-0.1l0.1-0.5l1.7,0.8l1.2-0.2l4.8-2.5l0.2-1.3l1.8-0.3l-0.1-0.5l0.8,0.5l0.7-0.4
	l0.5,0.3l0.4-0.9l0.9,0.4l0.2,2.2l1.6-0.6l1.2,0.3l0.4,0.6l2.8,0.5l0.6-0.7l0.5,0.6l0.3-0.5l2,0.1l0.3-0.3l0.8,0.3l0.2-0.6l-0.8-0.9
	l0.5-0.1l-0.3-0.7l1.7-0.6l0.3,0.4l1.6,0.1l1.3-1.4l1.5,0.2l0.2-1.6l2.5,1l1,0.1l0.4-0.4l1.5,0.4l1,2.9l2.3-0.3l1.8-1l2.6,1.6
	l1.2,0.1l0.4-0.7l1.2,0.5l1.5-0.4l1.1-1.2l1.5-0.6l1.5,0.3l2.3,2.2l0.9,1.9l-0.5,0.7l0.3,0.7l0.8,0.1l0.2-0.7l0.8,0.1l2.3,1.6
	l1.3-0.1l0,0l0.3,0.7l-0.8,1.1l-3.7,1.7l-0.5,1.7l0.3,1.3l-0.5,0.6l0.7,1.7l1.8,0l0.1,3.8l0.7,1.8l-1.5,0.6l-0.5,0.8l0.6,0.7
	l1.2-0.6l1.2,0.2l-0.8,4.6l0.7,1.4l-1.6,0.6l-0.7,0.8l-2.7,0.6l0.6,1.1l-0.6,0.6l0.2,0.4l2.2,0.1l0.9,0.6l0.1,1l0,1.7l-0.5,1.2
	l-0.8,0.1l-0.8-0.6l-0.8,0.4l0,0.6l1.6,0.2l0.3,0.7l-1.4,1.3l-0.7-0.1l-0.1,0.5l1.2,0l0.5,0.5l-0.2-1.2l1.5,0.1l-0.1,1l2.6,1.8
	l-0.2,1.8l1.3,0.1l1,0.9l1.3,0.1l0.4,0.7l0.7,0.2l0.3,1.2l-2.2,0.9l1.2,1.5l-2,1.6l-1.3,0.1l-0.3-0.9l-1.3,0.4l-0.9-2.1l-1.9,1.5
	l-0.8,1.6l-1.1,0.5l0.1,1.1l-1.3,1l-0.1,1.5l-1.1,1.9l0,1.3l1.7,2.3l-1.5,1.3l-0.7,0.1l0.5,0.9l0,0l-1.4,0.5l-0.3,0.5l-0.6-0.4
	l-1,0.4l-2.1-2l-1.7-0.4l-0.8-1l0.9-0.6l-0.1-3.6l-0.4-0.6l-1.2,0.3l0-1.5l1.8-1.5l-0.5-1.2l0.9-1.6l0.2-2.3l-0.7-1.4l-2.3-1.6
	l-0.9-1.3l-0.9-0.2l-2.1,0.6l-0.9,1.6l-1-0.4l-0.2-0.6l-1.5,1.1l-2.1-1.6l-1.1,0.1l-0.2-0.5l-1.3-0.5l-0.2,1.9l-0.6,0.8l0.3,0.5
	l-0.9,0.2l-1.6-1.5L227,417l-0.5-0.5l-0.8,0.2l0.5-0.7l-0.2-1.4l-1.1-0.4l-1.2,0.3l-0.3-2.3l-1.3-0.5l-1.4,0.3l-2.4-1.1l-1.6-0.1
	l-0.7,0.6l-0.4-0.5l-1.6-0.4l-0.3-0.9l-1-0.1l-0.4-0.7l-0.5,1.5l0.9,0.2l0.6,1.3l-0.5,1.5l-1.2,0.5l-0.3,0.6l0.9,1.3l0,0.7l-0.7,0.3
	l0.6,2.2l-2.7,1l0.3,1.8l-0.6,2.1l-1.8-0.4l-0.7,0.3l-0.1-0.6l-2-1.6l-1.8,0.9l0,0.4l0.9,0.4l-0.8,0.3l-0.4,1.3l0.2,0.4l-0.6,1
	l0.4,1l-1-0.3l-0.1,1.1l-0.7-0.2l-0.1,0.7l0.2,1l1,0l-0.1,0.7l0.9-0.1l-0.3,0.9l0.9,0.1l1.3,1.9l-2.2,0.3l-1.1,2.7l-0.6-0.5
	l-0.5,0.7l0.1,2.7l-1.7,0.6l-0.2-0.6l-1.1,0.1l0.1,1.6l-0.5-0.2l-0.6,0.4l0.8,0.4l-1.2,0.4l0.6,0.2l-0.7,1.5l1,0.7l-0.4,0.6l0,0
	l-0.8-0.3l0,0.6l-0.9,0.4l-0.6-1l-1.6-0.1l1.1-1.7l-0.8-0.3l0-1l-0.6,0.4l-0.5-0.5l-1.6,1l0.1,0.8l-1,1.3l0.2,0.8l-0.7-0.1l-0.4,1.4
	l-1.1,0.5l0.3,0.9l-1.1,0l-0.5-0.7l-0.2,0.5l-0.8-0.6l-0.7,0.1l-0.7,1.5l1,0.4l-0.4,0.5l0.2,0.7l-0.8,0.1l0,2.6l-2.4,1l-1.3-0.6
	l-0.1,0.9l1.1,0.7l-0.5,0.9l-1,0.1l0.2,1l-0.6,0.2l-0.2,1l-0.6-0.2l-1-1.8l-0.9,1.4l0-1.3l-1,0l0,1l-0.8,0l0.1,1.2l-1.3,0.4
	l-0.3,0.9l-1.8,0.2l0.2,1.1l0.5,0.4l-0.5,0.6l0.7,0l-0.9,0.5l0.1,0.8l0.8,0l-0.2,1.3l1,0.1l-0.6,1.3l-0.6,0l-0.2-0.9l-1.4,0.4
	l-0.7-1l-1.5,0.6l0.1,1.1l-0.3-1l-0.9-0.6l-0.9,0.8L165,465l-2.6,0.7l-0.8-0.6l-0.1-1.4l-0.5,0.7l-0.8-0.8l-0.5,1.1l-1.4-1.1l-1,0.2
	l-0.3-1l-0.9-0.4l-0.4,1.9l-0.8,0.2l0.1,0.7l0.6,0.2l-0.1,0.9l1.1,0.9l0,1.2l-0.7,0.8l1.1,1.7l0,0.7l-0.7,0.6l0.6,0l0,1.6l-0.6,0.2
	l-0.7-0.4l0-0.7l-0.7-0.1l-0.1,1l-1.6,0.5l-0.5-0.9l-0.8,0.5l-0.8-0.3l-1,0.5l-1.2,0l-0.1,1.8l-1.4,0.7l-0.7,0l0.1-0.7h-1l-1.1-1.6
	l-1.2,0.5l0-0.3l-1.9,0l-0.2,0.3l0.8,0.4l-0.1,0.6l-1.1,0.5l0.2,1.9l-1.4,0l-3.3,1.2l0,0.9l-0.7,0.8l0.6,0.7l-1,0l-0.1,0.7l-1.3,0.5
	l-0.5-1.8l-1.1,0.1l-0.4-0.7l-0.1,1.2l-1.4,0.6l-0.3,1.1l-0.6-0.2l0.1-0.4l-0.8,0.1l-0.3,1.1l-0.8-0.9l0.2,0.9l-0.7,0.2l0.3,0.4
	l0.7-0.6l-0.1,0.9l0.9,0.1l0.1,1.1l0.6,0.1l-0.2,0.6l-0.4-0.6l-0.4,0.2l-0.1,1.2l0.5,0.7l-0.3,0.5l0.4-0.5l1.4,0.2l0,0.5l1.7,0.6
	l0.2,0.9l-0.6,0.9l0.1,1.3l-1.1-0.5l-1.4,1.2l0.5,0.4l1-0.5l0.7,0.4l-1.6,3l0.4,1.1l-0.4,0l-0.4-0.9l-0.6,0.9l0.9,0.2l-0.5,1.5
	l-1.5,0.7l-0.9,0l-0.5-1l-0.5,0.7l-1.5,0.8l0.1,0.9l-0.8,0.2l0.6,0.4l0,0l-2.1,1l-0.6-0.1l-0.6-0.7l-0.5-2.1l-1.3-0.2l-0.4-1
	l-0.7,1.3l-3.2,0.3l0,0l-0.7-0.5l0.5-0.2l-1.8-3.4l-1.7-0.5l-0.6-2.1l-0.6-0.4l0.3-0.4l-0.7-2.8l-1-3.5l-0.4,0l0.8-0.9l-0.8,0.2
	l0-0.9l-1-1.6l0-0.9l0.5-0.2l-0.5-0.8l0.5-0.8l-0.4-0.1l-0.2-3.6l-0.7-1.9l0.4-2l-0.5,0l0.3-0.6l-0.6-0.3l0.9-1.1l-0.7-0.8l-0.9-3.3
	l-0.7-0.7l0.7-0.1l0.1,0.5l0.3-0.6l-0.8-1.7l-0.8-0.5l0.8-0.7l-0.4-0.1l0-1.4l-1-1.1l0.7-0.6l-0.9-1.2l-0.3-1.3l0.4-0.5l-1-2
	l-0.3-1.9l-0.3,0.1l-0.7-1.2l0.2-0.9l-1-1.6l0.3-0.5l-0.7-1.2l0.3-1.4l-1.2-0.6l0.1-1.3l0.6,0l0.4,0.8l1.8,0.4l-0.3,0.8l0.7,0.8
	l-0.2-1.7l-0.5-0.9l-1.3-0.1l-0.9-1.4l-0.8-0.4l0.3-0.7l-0.6-1.9l0.7-1.5l-1.5-3.4l0.3-2.4l1,0.3l0.5-0.8l0.6,0.8l0.3-0.4l0.1-1.2
	l-1.3,0.3l-0.4-1.1l1-0.1l-0.4-0.8l0.3-0.6l0.5,0.3l1.1-0.8l-0.6-0.1l-0.2-1.3l-0.6,0l-0.2,0.7l-1,0.8l-1-0.3l-0.4,1.7l-0.8,0.7
	l0.3-1.1l-0.7-0.2l0.5-1.7l0.3,0.2l0.2-0.5l-0.5-0.1l0.2-1.1l-1-1.6l0-2.5l0.4-1.2l-0.9-1l-0.3-1.9l0.7-0.6l0.1-0.8l-0.4,0.5l-1-0.8
	l-0.1-1.3l0.5,0l-1.1-4.3l-0.8-1l0-0.4l0.6-0.2l-0.4-1.5l1.1-0.9l-0.2-2.2l0.6-1.5l0,0l1.3,0.3l0-0.5l0.7,0.1l0-0.9l0.8-0.9l2,0.3
	l0,0l0.3,0.9l-0.3,0.9l0.3,0.4l0.6-0.5l-0.2,0.5l0.9,0.9l0.2-0.7l1.7,0.3l1,0.7l0.6-1.5l0,0l1.5-0.6l0.5-1.3l0.9,0.2l0.3-0.3
	l0.1,0.5l1.2-0.3l-0.1-3.2l-0.7-0.8l0.8-0.5l1.5-2.8l-0.4-0.1l0-0.9l-0.8-0.3l-0.8-1.1l0.8-0.5l0.3-1l0.6-0.1l0.3,1.4l0.8-0.5
	l1.4,0.8l0.6,1.3l0.7,0.4l0.6-0.4l1,0.2l1.9-1.1l0.1-1.1l-0.5-0.6l0.9,0l0.5-0.8l0.7,0.1l0.6-0.4l-0.1-2.2l-1-2.2l0.2-1l-1.9-0.3
	l-0.2-0.6l-0.7,0.3l-0.7-1l0.2-1.3l-1.9,0.1l-1.5-1.3l0.5-0.2l0.5,1l0.9-0.4l1.2,0.3l0.1-0.6l1.7-0.1l0.2-2.1l1.3,0.1l1.2-0.8
	l0.1-2.3l0.3,0.2l1.7-0.6l0.4-1.4l0.9,0.8l0.4-0.3l2,0.1l0.1-0.5l0.4,0.4l1.6-0.7l0-1l-0.5-0.5l-0.7,0.7l-0.7-0.3l-0.6,0.4l-0.5-0.6
	l-2.4,0l-4.4,1.4l-0.8-2.3l-0.8-0.6l2.1-0.4l0.2-1.2l-1.4-1.4l0.3-0.6l-0.7-0.7L125,363.3L125,363.3z"/>
<path id="IN-ML" class="st0" d="M454.2,281.6l3.1-1.3l-2.6-3.1l0.9-0.2l0.5-0.7l-0.2-1.2l1.3-0.5l0.3-0.4l-0.4-0.3l2.4-1.9l1.3,0.4
	l3-0.7l0.9-0.8l0.7-0.1l0.7,0.6l1-0.6l1.2,1.3l-0.5,1.4l1.5-1.5l1,0.5l-0.5,0.6l0.4,0.3l1.3-1.2l1.3-0.1l-0.1,1l0.8,0.2l0.7-1
	l0.6,0.3l1-0.3l0.8,0.9l-0.1-0.7l0.6-0.1l0.5,1.4l1.3,0l-0.6,1.5l1-0.6l0.6-0.1l-0.6,0.5l0.3,0.2l2.8-0.9l-0.3,1.9l0.3,1.1l0.7,0.1
	l1.1-0.5l1.2-2.1l1.8-0.4l0.5,0.3l1.7-0.7l0.1-0.4l-0.5,0.5l-0.7-0.1l1.2-1.2l-0.6,0.1l1.6-2.6l1.2,0.2l0.1,1.3l-0.6,0.6l1.2,0.8
	l1.1-1.1l0.2-2.4l1.8-1.4l1.2,0.5l-0.1,1.1l1.1,1.2l1.4-1l1.3,0.2l1.7-0.3l0.9-0.8l1.3,0.4l1.2-0.4l-3,3.1l0.2,0.8l1.3,0.1l-1,0.9
	l-0.6,1.3l0.2,3.3l1.4-1l2.2-0.2l1.1-0.7l1,0.5l0,0.9l0.7,0.2l0.8,1.4l1.2,0.3l0.3,1.2l0.6,0.1l1.1-0.8l-0.2,1.3l-1.6,1.6l0.6-0.1
	l0.2,1.3l0.9-0.4l0.1,0.6l0.3-0.2l0.9,1l0.4-0.1l0.5,1.1l0.5,0.1l0.2,1.1l-0.6,0.8l0.8,0.7l-2.9,1l-0.9,1.4l-2-0.5l0.4,0.9l-1.2-0.2
	l-0.4,1.6l-0.8,0.1l0,0l-1.6-0.5l0-0.6l-2.4-0.4l-3.5-2.1l-6,0.5l-0.6-0.3l-0.2,0.7l-0.8-0.2l-1.3,0.8l-0.8-0.5l0.2-0.7l-3,1
	l-1.1-0.8l-1.6,0l-1.4-0.7l-4,0.2l-4.5,1l-1.7-0.6l-1,0.7l-1-0.4l-3.7-0.1l-1.3,0.7l-2.3-1.1l-4.7-0.8l-3-1.8l-2.9,0.2l0.3-0.3
	l-0.5-1.7l0.7-2.1l0,0l0.5-0.3L454.2,281.6z"/>
<path id="IN-MN" class="st0" d="M529.6,287.1l0.1,0.7l0.7,0.1l-0.1,0.7l1-0.1l1.1,1.1l1.8-3.7h0.5l1.9-2.4l-0.1-0.8l-0.8,0l0.1-0.9
	l2.5-0.6l1.5,0.3l0.9-0.3l0.1-0.6l1.5,0.8l0.1,0.6l1,0.2l0.4-0.7l0.7,0.1l0.4,1.2l1.5-0.3l0.6,0.4l2.2-1.1l0.2-1.2l0.9-0.7l0.7,0.1
	l1.4-1.9l0.5,0.1l-0.4,1.1l0.4,0l-0.8,1.3l0,1.7l1.6,1.1l1,0.1l0,0l-0.2,1l-0.9,0.7l-1,4l3.4,1.8l-0.1,2.6l-0.8,1.1l0.3,0.8
	l-1.7,2.3l-0.6,2.8l-1.3,0.1l-0.4,1.9l-1.4,1.3l-0.8,1.9l-0.5,0.1l0,1.5l-0.8,0.5l0.4,0.5l-1.2,0.9l0,1.1l-1.4,2.8l-0.4,2.8l-1,2.4
	l-0.5,0.1l-0.2,1.9l-0.8,0.2l-0.6-1.2l-3-1.3l-1-0.2l-1.9,0.6l-1.2-1.8l-2.9-0.1l-0.4,1l-0.8-0.5l-1,1l-1-0.6l-1.1-2.4l-1.3-0.4
	l-0.4,0.2l0.1,0.8l0,0l-1,0l-0.7,0.6l0.2-0.8l-0.4-0.6l-0.5,0l-0.1,0.8l-1-0.1l-0.5-0.8l-1,1l-0.4-1.3l-0.5,0.3l-1.6-0.6l1-2.2
	l-0.3-1.6l0.7-1.4l-0.5-0.1l0.1-1l-0.5-0.3l0,0l0.8-0.2l-0.1-2l0.8-1.5l-0.2-0.3l1-0.2l-0.7-0.3l0.6-1.8l-0.6-0.8l0.7-0.7l0.1-1.6
	l0.3-0.2l0.6,0.7l0.9-0.5l0-1l0.7-0.5l0.5-1l-0.3-0.5l0.5-0.3l-0.3-1.5l0.4-0.7l0.8,0l0.7-1.1l1.1-3.5L529.6,287.1z"/>
<path id="IN-MP" class="st0" d="M210.1,251.7l1.1,0.4l0.4-1l1.4-0.2l0.8,1.2l0.8-0.2l0.5,0.8l2.4,0.9l2-0.3l1.2-0.7l0.2,0.5l0.4-0.3
	l0.5,0.7l0.9,0l1.1,1.4l0.8-0.2l0.9,0.4l-0.2,0.8l1.2-0.5l0.3,1.7l-0.5,0.8l0.2-0.2l0.1,0.7l0.5,0l0.8,1.1l-0.3,1.1l1.6,0.3
	l-0.2,0.6l-0.6,0l-0.2,1.3l1.2,0.4l-0.4,0.2l0.2,0.4l-0.7,0.1l-0.2,0.9l-0.3-0.4l-0.6,0.5l0.4,0.8l-0.8,0l-0.1,0.9l-0.8,0l0.5,0.9
	l-1.2,0.4l1.3,1.3l-1.2,1l-0.3,2l-1.1,0.8l0.1,1l-0.8,0.2l0.3,1.4l-1.1-0.7l-0.3,0.3l0.5,0.1l0,0.4l-1.5,1.2l1.4,1.7l-0.1,1.2
	l-2.7,0.7l-0.6,0.7l-0.8-0.5l-0.6,0.6l-2-0.4l-0.6,0.7l-0.5-0.3l-0.4,0.7l0.3,1.3l-0.9,0.7l-0.6-0.1l-0.4,1.2l-0.7,0.6l0.7,0.9
	l-0.5,0.6l0.8,0.3l0.2,1.2l0.9,0.7l-0.3,0.5l1.3,0.6l-0.6,0.4l0.5,0.6l-1,0l-1.4,1l0,2l-3.4,2.7l0,0.6l0.9,1l0.2,1.5l1,1.8l-0.2,2.5
	l-0.8,0.8l1,1.1l-0.1,0.7l2,1.4l-0.7,1.3l1.1,1.2l1.2-0.5l1.5-2.2l1.5,0.8l1.9,2.6l0.6,0.2l0.7-0.4l0.3,0.3l0.3-0.4l0.7,1.8l0.5-0.7
	l1.4-0.3l0.6-1.8l1.2-1.2l0.4-2l-1.6-0.6l0.1-0.8l0.4,0.4l0.7-0.3l-1.8-3.3l-2.2,1.1l-0.6-0.3l-0.2-1.3l0.7-1l-0.2-2.1l0.3-0.5
	l-0.3-1.1l-2-0.9l-0.3-1l-0.7-0.5l0.4-2.2l-0.9-0.8l-0.6-3.7l-1.5-0.8l-0.9,0.5l-0.6-0.4l0.3-0.4l0.6,0.3l0.5-0.7l0.2,0.5l0.5-0.1
	l0.3-0.5l-0.3-0.8l1.1,0.3l-0.3-1l0.6,0.1l0.3-0.6l0.5,0.2l0.5-0.9l0.7-0.1l0.3,0.4l-0.7,0.6l-0.3-0.4l0,0.7l1.1,0.2l0.1,0.6
	l1.1-0.1l-0.4-1.3l1.5-0.4l-1.2-0.1l-0.6-0.7l0.1-0.9l0.5,0.6l1.5,0.2l0.3,0.3l-0.7,0.2l0.4,0.3l0.5-0.8l-0.6-1l1-0.3l0-0.8l0.8-0.1
	l0.1,0.4l0.3-0.4l0.2,0.7l-0.5,0.2l0.4,0.9l-0.7,0.8l0.5,0.4l0.6-0.2l0.4,1.4l-1,0.6l-0.8-0.5l0.8,0l0.4-0.5l-1.6,0.3l-0.8,0.8
	l0.1,0.5l-1.1,0.4l-0.2,0.4l0.6-0.1l-0.1,0.7l0.8,1l0.7-2.7l1.1,0.3l0.5-0.4l0.4,1.5l-0.6,0.5l-0.7-0.3l-0.4,0.7l-0.3-0.2l-0.1,2.1
	l1.6-1.2l1,0.6l0-0.9l-0.5-0.3l0.7-0.7l0.1,0.7l0.9,0.5l-0.7,0.9l-0.1,1l0.4,0.1l0.9-1.3l0.8,0.7l-0.3,0.5l0.4,0.8l1-0.2l-0.3-0.6
	l0.4-0.2l0.5,0.9l0.7-0.1l0.1-0.6l-0.6-0.2l0.5-0.3l0.5,0.2l0,0.7l0.9-0.3l0.2-0.4l-0.7-1l-0.1-1.2l1.2,1.1l0.3-0.3l-0.4-0.4l0.2-1
	l-0.6,0.3l-0.5-0.7l-0.6,0.4l0-0.9l0.7-0.7l1.1,0.2l-0.3,0.9l0.5,0.7l0.3-0.7l1,0.8l0.9-0.6l0.7,0.3l-0.7,0l-0.7,1l0.3,0.3l-0.7,0.1
	l-0.5,0.9l0.3,1.3l0.3-0.6l0.3,0.7l0.8-0.6l-0.2,0.9l0.6,0.3l1.6-2.2l0.5,0.7l0.3-0.2l-0.1,0.5l3.1-0.3l2.3,1l-0.2-0.8l0.5-0.4
	l-0.5-2.1l1.2-0.4l0.2,0.5l0.6-0.9l1.1,0.1l0.5-1.7l1.3-0.3l0.8,0.4l1.4-1l0.1-0.8l1.1,0.3l0.2-0.5l1.1,1l-0.1,2.3l1.5,1.2l0.4-0.1
	l0.5,1.6l-1.5,0.7l-1.8,2.6l1,0.6l0.9-0.5l0.5,0.4l-0.3-1.1l1.6-0.6l0.6,0.9l0.5,0l0.1-1l-0.5-0.3l0.7,0l0.7,0.8l0.4-0.5l0.9,0.4
	l-0.3-1.9l0.8,0.7l-0.6,0.4l1.2,0.7l0.5-0.2l-0.1,0.6l1.1-0.4l1,0.2l0-0.5l-1.1-0.3l0-0.6l-0.5-0.3l2.1-0.2l0.6,0.8l0.2-1.9l0.9-0.1
	l0.6,0.8l-0.8,0.8l0.1,1.2l-0.9,0.7l0.5,0.9l-1.2,0.6l0.3,0.6l0.7,0.2l1-0.3l0,0l0.3,0.2l-0.1-0.4l0,0l0.8-0.4l0.4,1.1l1.3-0.2
	l-0.2-0.5l1.4,0l1.2,1.4l0.6-1.5l0.8,0.5l-0.3,0.1l0.6-0.1l-0.2-1.4l1.3-1.7l-0.3-0.9l0.5-1.4l0.8,0l0.2,1.1l0-1.1l0.4-0.2l1.3,1.1
	l0.8-0.2l0.2,0.5l-0.8,0.1l1.7,0.8l0.5-0.7l-0.7-0.7l0.5-0.4l0.6,0.2l-0.3-1l1.2-0.2l0.3,0.6l0.8,0.2l-0.6,0.5l0.2,0.8l0.3-0.5
	l0.3,0.4l-0.8,0.5l0.2,0.4l1.1-0.4l0.5,0.8l1.1-0.1l1.2,0.9l0.8-0.2l1.2,0.6l0.3-0.4l0.3,1.8l-0.3,0.9l1.3,1.4l1-0.5l2.2,1.3h1
	l0.8-0.7l-0.4,0.5l0.6,0.5l-0.4,0l-0.3,1l0.9,0.3l-0.3-0.5l0.5,0l0-0.4l0.4,0.3l0.1-0.5l-0.3,2.4l0.5,0.1l0.2-0.5l0.7,0.4l-0.1,1.3
	l0.8-0.2l1.7,0.6l-0.2-2l0.6-0.5l0.3,0.6l1.5,0l0.2,0.6l2.7-1.1l0.8,0.6l0,0.7l1.4,0l-0.1,1l0.8,0l0.1,1.1l-1.1,0.3l-0.7-0.3l0.1,1
	l0.4,0.3l-0.6,2.6l1.1,0.3l0.1,1.8l-0.3,1.3l-0.5,0.3l-0.1,1.9l-1-0.4l-0.3,0.5l1.1,1.2l1.2,0.1l-0.5,1.3l1.2,0.4l0.2,1l0,0
	l-1.2,0.9l-1.9,0.3l-0.1,1.2l-1.4,0.8l-1.2,0l0.4,0.7l-0.6,0.2l-1.2-0.6l-2.8,0.2l-1.5-0.4l-0.6,0.3l-0.6-0.6l0.1-0.5l-0.9,0.8
	l-2.4,0l-0.9-1l-1,0.2l-0.7-0.5l-1.3,1.1l-1.5,0.3l-1.3-0.6l0.1-0.4l-1.3-1.5l-1.1,0.4l-0.3,1.2l0.7,0.5l0.2,1.4l0.7,0.4l0.3,0.7
	l-0.9,1.4l-0.6,0l-0.2,1.4l-0.7,0.3l0.2,0.8l0.6,0.1l0,1l0.4,0.4l0.6-0.9l0.8,0.2l0.9-1l1.4,0.5l0.5,0.8l1.9-0.5l1.3,2.7l0.8-0.2
	l0,0.8l0.7,0.2l1.1-0.4l0.3,0.9l0.6-0.1l1,0.8l0.1,0.9l-1,1.3l0.2,1.9l-0.7,0.9l-1-0.3l-0.9,0.8l-1.8,0.1l-0.4,0.8l0.5,1.9l-1.7,1
	l-0.1,0.5l-1.8,0.4l-0.2,0.9l0.5,1.5l-0.8,0.9l0.3,1.4l-0.5,0.4l-0.4-0.6l-0.3,0.6l-1.1,0.4l-0.2,1.4l-0.5,0.1l-0.2,0.6l-2,0
	l-0.8,1.1l-0.9,0l0.2,0.6l-0.5-0.3l-0.6,0.9l-0.4-1.4l-1.2-0.4l-0.4,1l-0.6-0.4l-1.2,1.1l-0.8-0.9l-1.5,1.1l0.1,3.3l-0.6,1.1
	l-1.4,0.4l-0.1,2.2l-0.9,0.4l0.7,0.4l-0.1,0.8l-0.7,0.1l-0.3-1.2l-0.8-0.1l-1.4,3.6l-0.6,0.1l0.4,0.5l-0.1,2.9l-0.4,1.3l-1.4-0.2
	l-0.5,1l-0.2,2.8l0.4,2.6l-1.5,3.2l0,0l-1.3,0.1l-2.3-1.6l-0.8-0.1l-0.2,0.7l-0.8-0.1l-0.3-0.7l0.5-0.7l-0.9-1.9l-2.3-2.2l-1.5-0.3
	l-1.5,0.6l-1.1,1.2l-1.5,0.4l-1.2-0.5l-0.4,0.7l-1.2-0.1l-2.6-1.6l-1.8,1l-2.3,0.3l-1-2.9l-1.5-0.4l-0.4,0.4l-1-0.1l-2.5-1l-0.2,1.6
	l-1.5-0.2l-1.3,1.4l-1.6-0.1l-0.3-0.4l-1.7,0.6l0.3,0.7l-0.5,0.1l0.8,0.9l-0.2,0.6l-0.8-0.3l-0.3,0.3l-2-0.1l-0.3,0.5l-0.5-0.6
	l-0.6,0.7l-2.8-0.5l-0.4-0.6l-1.2-0.3l-1.6,0.6l-0.2-2.2l-0.9-0.4l-0.4,0.9l-0.5-0.3l-0.7,0.4l-0.8-0.5l0.1,0.5l-1.8,0.3l-0.2,1.3
	l-4.8,2.5l-1.2,0.2l-1.7-0.8l-0.1,0.5l-0.9,0.1l-0.3,0.5l-0.6,0.1l-0.3-0.8l-0.5,0.6l-0.3-0.5l-1,0l0.1,0.6l-0.4,0.1l-2-0.3
	l-0.4-1.8l-0.6-0.4l-0.4-1.3l0.8-0.5l2.3,0.6l0.8-0.3l-0.8-0.4l0-1.4l-0.6-1.7l-1.4-1.6l-4,0.2l-0.1,0.9l-1.2,0.1l-0.4,0.5l-0.8-0.7
	l-0.3,0.3l-1.8-0.2l-3.6,2.7l-1-0.3l-0.4,0.5l-0.8-0.1l-0.2,1.3l-0.5,0.4l0.6,0.7l-0.2,0.5l-3.3,2.9l0.8,1.2l-0.8,2l-2.8-0.1
	l-0.7,1.8l-1.6,0.8l-2,0l-0.4-0.4l-1.9,0.2l-1.2-1.8l1.1-0.1l0.1-0.4l-0.6-1.1l0.3-0.5l-1.3-2.6l-1,0.5l-1.8-0.9l-1.7-0.1l-4.5,0.4
	l-1.4-0.3l-1.3,0.5l-1.7-0.5l-1.5,0.3l-0.8-0.5l-1.2,0.3l0-0.6l-1.7,0.1l-2.2-1.1l-1.2-2.4l-3.3-1.5l-2.3,0.4l-4.9-1.6l-0.1-0.8
	l-0.9-0.2l-0.2-1.8l0.5-2.3l-0.7-1l-0.9-0.4l-0.1-1.2l-1.2,0.1l-0.7,0.9l-1.1,0.3l-0.3,0.7l-1.9,0.2l-1.1-0.6l0,0l0.2-0.7l-1.2-0.7
	l1.7-1.6l-0.5-0.4l-0.5,0.2l-0.2-2.6l-1-0.2l0.3-0.5l-0.7-0.9l0.3-1.7l0.8-0.3l0.5,0.9l1.2,0.2l0.3-1l0.4,0.2l0.6-0.9l0.8,0.1
	l-0.8-0.9l-1-0.1l-0.3-0.9l-0.1,0.8l-0.5,0.3L125,352l-0.4,0.8l-0.4-1.1l-0.5,0l0.2-1l-0.9,0.4l-0.2-0.4l0.7-1l1.8,0.8l2.3-2.9
	l2.5,0l0.4-2l1.6-2.9l-0.6-1.5l-1.1,0.6l-0.8-0.8l-0.4-0.7l0.6-0.3l-1-1.9l0,0l1.4-1.1l2.5,0.5l0.7-1l1.3-0.3l1.3-1.3l1,0.2l0.6-0.4
	l0-0.5l-1.1,0.2l0.6-0.4l-0.4-0.7l-1.1,0.3l-1.6-0.9l-0.4,0.4l-0.7-1l1.1-1.1l0.1-1l0.8-0.9l0.9-0.1l1-0.9l0.7,0.1l1.1-1.1l0.4,0.3
	l0.9-0.5l1.3-1.6l0.7-0.2l-0.7-1.2l0.7-1.2l-0.7-3.2l0.3-1.4l1.5-2.1l-2.3-4.2l0.5-0.5l-0.2-0.6l-0.5-0.4l-2.4,0l0.6-0.8l0.1-1.3
	l1.5-2.2l-0.8,0.1l0-0.7l-0.8,0.2l-1.4-0.6l0.9-1l-0.2-1l0.9-0.3l-0.1-0.6l0.7-0.8l-0.9-0.4l0.5-2.5l2,3.2l1-0.1l0.4-0.9l0.8-0.2
	l-0.1-1l0.6,0l-0.3-1l-1.9,0.2l-1.2-0.6l-0.2,0.5l0.1-1.4l-0.7-1.7l0.5-1.1l0.4,0.9l0.4-0.3l0.6,0.5l0.1,0.8l2.6,0.7l0.3-0.5
	l1.3-0.2l-0.1-1.8l1-0.6l-0.1-1.2l3.9,0.1l0.1,0.4l-0.7,0.4l0.4,1l-0.5,1.4l-0.8-1.8l-0.2,0.3l0.6,0.9l-0.7,0.8l1,0.5l0.3-0.4
	l2.1-0.1l-0.1,0.7l-2.3,1.2l-0.6-0.9l-1.1-0.1l0.5-0.8l-0.6,0.1l-0.3-0.5l-0.1,0.6l1.1,1.1l-1,0.6l-0.4,1l0.7,1l1.1-0.2l3.9,0.9
	l2.7-0.7l0.7,0.8l3.1-1.8l1.7,0.8l-0.2,1.3l0.5,0.4l-0.4,0.9l0.2,0.4l0.5-0.4l1.1,0.9l-0.2,0.4l0.4,0.4l-0.7,0.5l0.4,0.4l-0.1,0.8
	l-1.3,0.9l-1.2-1.3l-0.9,1.1l0.1,0.4l-0.6,0.1l0.2,1.3l0.6,0.9l1,0.2l0.3,1.3l-1.1,0.6l-0.6,1.9l0.7,0l0.3,0.7l1,0l0,0.8l-1.1,0.3
	l-0.4,1.5l-1.3,0.7l-0.7-1.5l-0.7,0.8l-1.1,0.2l-0.4-0.7l-1.1-0.6l-1,1.5l-0.2,1.4l2.2,1.4l0.3,0.4l-0.4,0.4l0.6,0.6l1.4,0l0.7,0.9
	l0.1-1.3l0.6,0l0.2-0.9l-0.6-0.4l0.1-0.6l1,0.3l0.6,0.8l0.4-0.5l1.4-0.5l0.4,0.3l2-1.1l-0.3-2.1l1.8-1.1l1.8-0.4l-0.3-2.3l0.7-1.1
	l-0.2-0.9l0.9-1.1l0.4,0.5l-0.2,0.6l0.4,1.6l1.4,0l0.9-0.9l1.8,1.1l0.2-0.4l0.6,0.2l0.4-0.3l1.3,1.6l1-0.4l-0.3-0.5l0.7-0.7
	l-0.2-0.4l0.5,0.2l0-0.5l1.6-0.5l0.2,0.8l-0.6,1.3l0.6,0.5l1.1,0l1,1.2l1.1-0.4l0.9,0.2l0.3-1.3l0.6-0.4l-1.5-1.5l-0.7-1.5l0.2-3
	l-0.8-1.5l1.1-0.3l0.3,0.6l0.7-0.4l0,1.3l1.1,0.6l0.8-0.4l0.6-1.2l0.4,0.1l0.3-1l-0.1-1.7l-0.7-1.6l-1.1-0.5l-0.4-0.8l-0.9,0.4
	l-1.3-0.1l-1-1.6l0.6-0.5l2-0.2l0.5-0.5l-0.7-0.3l0.1-0.7l-0.6-0.1l-0.8-2.1l2.9-1.6l1.7,0.5l0.8-0.3l1.2-1l1.9-0.1l0.8,0.8l2-0.7
	l-0.2-1.7l0.6-0.1l-0.2-0.8l-1.2-1l0.5-1.1l-0.7-0.1l0.5-2l-1.2-0.5l-0.5,0.3l-1.3,1.2l-0.3,1.4l-2.7-0.7l-1.1,0.9l-1.4,0.1
	l-0.4,0.5l-1-1.1l-1.1-0.2L180,287l-0.1-0.6l-1.8-0.2l-1.6-1l-0.3-1l-0.5-0.3l-0.9-2l-0.2-3.3l-0.7-0.5l0.1-0.5l1-0.4l0-1.5l1.3-1.8
	l0.7,0.1l0.4-0.9l1.8,0.1l0.6-0.5l-0.1-0.5l1.1-0.3l0.7-1.4l-0.2-0.4l1.2-1.5l2.1-0.9l1-1.1l1.2-0.2l0.7-1.1l1.7,0l1.8-1.4l0.9-1.4
	l2-0.2l-0.1-1l2-0.2l3-2.2l1,0.1l0.6-1l1.4-0.2l0.2-1l1.2-0.5l0.3-1l1.1-0.1l0.9-0.9l2,0.5l0.1-1.3l0.6-0.4l-0.3-1l1.6,0.1l-0.3-0.8
	L210.1,251.7z"/>
<path id="IN-MZ" class="st0" d="M505,311.3l2.6,0l0.3,2.3l0.9,0.3l0.1-0.5l1-0.3l0.4-1.6l1.3-0.2l0.3-1.8l1.4-0.5l1.6-3.8l1.3,3.3
	l0.7-0.5l0.9,0.1l0.1-0.4l0.5,0.4l1.4-0.2l0,0l0.5,0.3l-0.1,1l0.5,0.1l-0.7,1.4l0.3,1.6l-1,2.2l1.6,0.6l0.5-0.3l0.4,1.3l1-1l0.5,0.8
	l1,0.1l0.1-0.8l0.5,0l0.4,0.6l-0.2,0.8l0.7-0.6l1,0l0,0l-0.1,1.5l1.3,1.3l0.1,3.8l0.8,1.8l-1,5.7l0.4,1l-1,0.8l0.6,3l-0.4,1.7
	l0.4,0.3l-2,3l-0.9,0l-1.2-1.2l-1.3,0.3l-0.1,1.1l0.8,1.8l-0.6,0.1l-0.5,2.2l-0.4,0.1l0.3,1.5l-0.4,0.8l1.1,2.5l-0.7,1.5l0.5,0.3
	l0.2,1.3l1,0.8l0.4,3.7l-1.3,0.3l0.5,1l-0.3,0.5l-1.6-0.7l-0.6,0.3l0.4,2.1l-1.1,0l-0.1,2.7l-0.4,0l-0.7-1.1l-0.5,0.3l-0.4,1.6
	l-0.9-2.7l-0.5,0l-2.7-2l-0.4,0.1l-0.3,2.9l-1.6,0.9l-0.1-1.8l-0.7-1.6l0.4-0.2l0.5,0.4l0.1-1.2l-1.7-8.8l0-2.1l-0.4-1.8l-0.6-0.3
	l-0.6-1.6l-0.2-1.6l-0.3,0.1l-0.2-0.8l-1-0.3l0.4-2.8l-0.6-1.1l-0.1-3l1-0.2l-0.7-1.7l0.2-0.9l-1.2-2.5l-0.5-3.4l-0.4-0.1l0.3-1.4
	l-0.6-0.8l0,0l-0.2-2l0.6,0l-0.3-0.7l0.4-0.5l0.6,0.1l0.2-1l-0.4-1.1l0.4-0.7l-0.3-1l0.5-2.6L505,311.3z"/>
<path id="IN-NL" class="st0" d="M565.7,246.8l0.8,3.6l-1,0.6l0.5,0.3l0.1,1.2l0.6,0.3l-0.6,1.2l0.4,1.1l0,0l-1.7,1.6l0,0.9l-1.8,2.8
	l0.8,0.7l0,0.7l0.6,0.3l-0.3,3.5l0.4,0.6l-0.5,1.1l0.1,1.4l1.4,0.7l-1.7,2.6l-1.5,0.8l-0.3,0.6l-0.1,0.9l0.8,2.5l-2.4,2.2l-0.4,1.3
	l-0.6,0.4l0.3,0.6l-1.2,0.1l-0.8,1.5l-2.7,0.8l0,0l-1-0.1l-1.6-1.1l0-1.7l0.8-1.3l-0.4,0l0.4-1.1l-0.5-0.1l-1.4,1.9l-0.7-0.1
	l-0.9,0.7l-0.2,1.2l-2.2,1.1l-0.6-0.4l-1.5,0.3l-0.4-1.2l-0.7-0.1l-0.4,0.7l-1-0.2l-0.1-0.6l-1.5-0.8l-0.1,0.6l-0.9,0.3l-1.5-0.3
	l-2.5,0.6l-0.1,0.9l0.8,0l0.1,0.8l-1.9,2.4h-0.5l-1.8,3.7l-1.1-1.1l-1,0.1l0.1-0.7l-0.7-0.1l-0.1-0.7l0,0l-0.5-0.8l0.6-0.8l-0.3-1.3
	l-1.4-0.7l-1.3-1.9l2-2l1.5-0.6l1.5-2.4l2.8-2l-0.4-1.4l1.3-0.6l0.4-0.7l0.5,1.3l-0.4,1.5l0.3,0.7l1-1.1l0.8,0.4l0.7-1l1.3-0.7
	l-0.5-2l0.8-1.5l0.3-2.3l2.2-3.6l1.4-0.4l0.2-2.7l1.9-2.3l0.3-0.1l0.1,1.9l0.5,0.4l0.7-1.1l1-0.6l0.2-1.9l1.1-0.5l0.1-0.8l1.6-1
	l0.6,0.5l0.6-1.1l0.5,0.5l1.2-0.3l2.4-1.7l1.8-3l0.9-0.5l1.2,0.8l0.7-0.2l1.9-1L565.7,246.8z"/>
<path id="IN-OR" class="st0" d="M391.4,389.7l2.5,0l0.2,1.2l-1.4,0.1l0,0l-1.9,1.3l-0.3-0.5l0,0l-0.7,0.1l0.5,0.6l-0.9-0.1l1-2.5
	L391.4,389.7L391.4,389.7z M331.4,350.6l2.8,1.1l0.4,1.6l0.9,0.7l1.1,0l0.9,0.8l2.9-0.3l0.5-0.7l0.6-0.1l0-0.5l1-0.3l4.5,0.1
	l0.2-0.6l1.2-0.1l0.5,0.5l0.9-0.4l0.4,0.6l1.1-0.7l0.2,0.3l2.3-0.9l0.2,2.9l0.4,0.2l-0.1,0.6l0.5,0l0,0.5l-0.9,0.4l-1,3.6l-0.9,0.6
	l0.5,0.1l0.9-0.7l1.1,0.3l0.5,0.7l0.8-0.1l0.3,0.5l0-0.4l0.8,0.6l0.4,1l1.4-2.4l0.5-0.4l0.7,0.1l0.1-0.8l0.7-0.1l3,1.6l1.1,0.3
	l1.1-0.4l0.8,0.9l2.5-1.4l0.6,0.8l-0.9,0l-0.6,2l3,0.5l0.1-0.9l0.6-0.3l1.2-2l0.5-1.7l-1.2-1.3l1.5-1.4l-0.7-0.1l0.3-0.4l-0.6-0.2
	l0.6-0.8l-0.3-1.1l-1.2-0.7l0.3-1l1.1-0.5l0.3-1l1.4,1.8l3.6,0.9l1.5,2.3l1.7,1l0.1-0.5l1.3-0.4l0.7,1l1,0l0.3,0.5l1.1,0.3l0.1,0.6
	l1.5,0.4l0,0l-0.2,1.6l1.6-0.2l0.9,1.3l2.6,0.3l1.3,0.9l0.4,1.2l-0.8,1.8l0.7,0.9l1.3,0.1l0-1.1l1.4-0.5l0.2-1l1.4,0.4l0.6,3.2
	l1.9,0.6l0.4,0.6l1.5,0l0,0.7l0.6,0.5l-0.3,1.4l0.5,0.8l0,0l-2.1,1.4l-3.7-0.1l-1.8,0.9l-2.8,2.2l-1.9,2.1l-1.5,2.7l0,1.2l3.1,7.1
	l-0.3,0.8l-1.6-0.3l-1.1,0.6l-1.1,2.8l1,0.1l-0.5-0.6l0.7-0.1l0,0l0.3,0.5l1.9-1.3l0,0l1.4,0.3l0.9-0.3l-5.5,3.9l-1.2,2.9l1.1,0.3
	l0,1l-2.1,1.8l-2.6,1.2l-3,3.8l-0.5,1.3l-1-0.2l-1.1-1.7l-0.9,0.2l-0.2,0.6l1.2,0.1l1.5,1.6l-14.7,4.7l-5.8,2.9l-5.1,3.6l-1.6,1.8
	l-3.2,2.3l-1.9,1.9l-1.3,2.2l-0.9-0.5l0,0l-0.5-0.5l0.2-0.7l-0.8-0.1l-0.1,0.8l-1.5,0l0.6,1l0.7-0.1l0,0.6l-0.9-0.1l-0.5,0.9
	l-0.5-1.1l-1.6,1l-0.4,0.9l-1.2-0.7l0.5,1l-0.5,0.6l0.3,0.5l-0.7,0.6l-0.7-0.2l0.5,0.4l-0.8-0.1l0.4,0.4l-0.2,0.4l-0.6-0.3l-0.1,1.6
	l-3.8,0.4l-0.6,0.6l-0.9,0.1l-1.1-1.3l-1.8,0.1l-1.5-0.5l-1.7-4.2l-1,0.7l0.8,1.6l-0.7-0.2l-0.8-1.5l0.4-0.6l-0.5-0.1l-1.5-3
	l-0.6,0.7l0.2,0.7l-0.5,0.8l-0.7-0.5l-0.3,1.5l-0.8-0.1l0-0.3l0.4,0l-0.2-0.9l-0.2,0.3l-0.4-0.5l-0.3,0.2l0.4,1.1l-0.1,0.5l-0.5,0
	l0.1,1.2l-1-1.1l-1.3-0.3l-0.9,0.4l0.5,1.6l0.4-0.9l0.7,0.7l-0.7-0.1l1.4,1.5l-0.3,0.6l-0.8,0l-0.1,0.7l-1.6,0.2l-0.3,0.7l-1-0.2
	l-0.3,1.1l-0.1-0.6l-1.4-0.7l-1.7,2.6l-0.8,0.3l-0.1,1.1l1,0l-0.6,0.4l0.1,0.4l1.2,0.2l-1.5,2.1l0.5,0.6l0.4-0.2l-0.1,1.2l-0.8-0.2
	l-1.8,0.7l-0.9-0.3l-0.2-1l-0.8,0.1l-1-0.6l-0.5,0.4l0.4,0.5l-0.5,1.4l-2.3,1l-0.7,1.3l-1-0.9l-0.1-0.8l0.7-0.9l-0.2-0.5l-1.4-0.5
	l0.4-1.1l-0.5,0.1l-0.1-1.5l-0.5,0l-0.5-0.8l-2.4,2.8l0.5,0.9l-1,1.1l1.2,0.2l-0.4,0.7l-0.7,0.2l-0.1,1.1l-0.6,0.4l1.2,1.2l-0.2,0.3
	l-0.5-0.4l-0.1,2.2l-0.5,0.1l-0.2-0.5l-0.6,0.3l0,1.4l-0.5,0.1l-1.3-0.7l-0.4-0.7l-2.8-0.3l-1.5,1.4l-3.2,1.2l-0.9,0.9l0,0l-1.2,0.7
	l-0.3-0.5l-0.5,0.2l-1.1,1.3l-0.9-0.3l-1.8,0.5l-0.5-0.5l-1.6,0.4l0,0l0.2-1.7l0.9,0.2l0.8-2.1l-0.1-1.3l0.7-1.4l0.3-1.4l-0.4-0.6
	l0.5-1.6l1.4-0.9l1.4-0.2l0-0.6l1.8-0.1l0.4-1.4l2-2.2l0.8-0.3l0.2-0.8l0.8,0.1l0.2-0.6l-1.4-0.8l-0.1-0.6l1.3,0.5l0.4-1.4l1.4-0.6
	l0.9,0.1l0.1-1l1,0l0.7-0.7l0.2-2.3l1.4-0.3l-0.3-2.3l-0.6-1l0.4-0.7l-0.3-0.6l-0.8-0.2l0.4-0.7l-0.6-2.4l0.7-1.2l-0.9-0.9l0.5-0.1
	l0.3-1.1l-1.3-0.1l-0.6-1.9l-1.5,0.2l0.5-0.8l-0.2-3.7l0.5-1.8l-1.7-0.3l-0.4-1.3l-2.3-1.2l-0.3-0.9l0.6-1.9l1.6-1.5l1.7,2l0.7-0.9
	l2.5,1.6l1.1-0.4l2.3,3.7l1-1.1l1.1-0.5l3.2,0.9l-0.5,0.9l0.3,1.1l1.3-1.2l1.2-0.1l0.3-0.9l-0.4-0.5l0.1-2.1l-1.6-0.2l-0.7,0.3
	l-4.3-1.6l-0.3-1.9l0.7-1.3l-0.2-1.4l0.5-0.4l-0.7-1.2l0.7-2l-0.4-1.1l-0.5,0.5l-0.2-1.3l-1.2-1l0.9-1.6l-0.7-3l0.2-2.8l1.1,0.5
	l0.3,0.8l0.9,0.1l0.6-1.8l1.4-0.8l1.5-2.1l-0.3-0.8l0.7-0.7l-0.2-1.1l2.4-0.2l0.8,0.5l0.5-0.4l1.4,0.2l1.6-0.6l1.8,1.3l1.7,0.4
	l1.5-0.8l0.6-2.8l1.2-0.6l-0.4-0.6l0.3-1.4l2.2,0.8l0.6-0.2l-0.2-1.1l-0.9-1l-0.3-1.2l1-2.6l1.3-0.8l0.2,1l0.7-0.5l-1.4-1.1l1.3-1.5
	l-0.4-0.9l0.5-0.7l1,0.5l-0.1-0.9l1.1-0.3l-0.3-0.6l0.6-0.9l-1-0.5l-0.4-0.7l0.1-2.1l1.3-0.2l-0.9-0.9l1.8-2.7l1-0.5l1.3,0.1
	l2.3-2.3l3-0.5l0.8-2.2l-1.4-0.9l0.1-0.4L331.4,350.6L331.4,350.6z"/>
<path id="IN-PB" class="st0" d="M161.2,113.9l-0.5,1.7l1.7,2.2l-1.8,0.9l-2.3,2.6l-2.4,1l0,1.2l0.9,0.5l-1.7,2l0.4,0.4l1.1-0.3
	l0.8,0.4l2,1.6l2.3,1.1l1.6,3.3l-1-0.1l1.7,4.2l3.2,5.7l-0.4,1.3l0.7,0.5l0.1,0.8l2.6-0.3l0-0.6l0.9-0.3l-0.4-1.2l0.9-0.3l0.1-0.6
	l0.3,1.2l1.4,2.1l-0.4,0.6l0.7-0.7l0.5,0.9l0.5-0.2l0.1,0.5l0.4-0.5l0,0.7l0.7-0.6l0.7,0.7l-0.4,0.8l0.9-0.3l0.2,0.3l-0.9,0.7l0,1.3
	l0.8,0.4l-0.6,1.4l0.2,1.2l2.1,1l1.2,1.4l0,0l0,0.7l1.2,1.1l0.4,1l-0.4,0.7l0,0l-0.7-0.1l0.1-0.5L180,158l-0.2-0.5l-1.4,0.9l0.7,1.6
	l1.4,0.6l0.5-0.4l0,0l0.3,0.7l0.6-0.6l-0.1,0.9l1.1,1l-0.6,1.4l0.7,0.5l-0.7,0.8l0,1.1l0.8,1.3l-1,0.7v-0.6l-1-1.2l-0.5,0.5
	l-1.1-0.7l-1.2,1.1l0.2,0.7l0.6,0.1l-0.5,0.6l-0.8,0.2l-1.4,1.3l-1.3,0.1l-0.3,0.9l1.1-0.7l0.6,0.6l-0.2,0.4l0.7,0.2l-0.3,2.4
	l-0.5,0.6l-0.5,0.1l-0.5-0.6l-1.1,0.5l-0.2-0.5l-0.8-0.1l-0.9-2.4l-0.6,0.5l0.4,0.6l-0.2,0.7l-1.3-0.5l0.5,0.5l-0.5,0.5l-1.5-0.3
	l-1-1l0.2,0.6l-0.4,0l1.3,0.7l-1.2,1.6l0.4,0.3l-0.5,0.3l0.3,1.7l-0.8,0.4l0.4,1l1.2,0.5l-2.6,1.7l-0.8-0.2l-0.9,1.4l-0.4-0.2
	l-1.1,0.6l-1.8-0.4l-1.1-1.6l-0.7,0.1l-0.5-0.4l-1.4,0.4l-0.2,1.3l-1.5-0.4l-0.3,0.6l-0.9,0.1l-0.3-0.6l-0.9,0.1l-1.4-1.1l-1.4,2.3
	l-0.9,0.4l0.3,0.8l-0.7-0.3l-0.8,1.5l0.5,0.5l-0.2,0.5l-1.5,0.5l0-1.4l-1-0.6l-0.3-0.8l0.8-0.6l0-0.9l0.8-0.6l-1-2.1l-0.6,0.5l0,0.9
	l-1.3-0.6l0.4-0.5l-0.5-0.5l0.5-0.6l-0.4-1l-0.4,0.9l-1.6,0.5l-1.6-2.2l-0.6,0.2l-0.1-0.7l-0.7,0.2l-1-0.8l-1.6,0.7l-0.7-0.2
	l-1.1,1.1l0.1,0.4l-2.7-0.9l0,0l-13.1-0.6l0.1-1.8l1.5-1.8l0-1.8l0,0l-0.2-1.6l-1.8-2.6l0.7-1.2l0.5-0.1l0.2-1l0.6,0.1l0.4-1
	l1.1-0.9l0.9,0.2l-0.2-0.6l0.5-0.5l0-0.9l0.4,0.2l0.2-0.6l0.7,0l1.7-2.1l1-0.3l-0.4-0.9l0.7-0.4l-0.2-0.4l0.6-1.2l1,0l0.1-1l1.1-0.5
	l1.1-1.5l1.4-0.7l0.4-1.8l1.3,0.5l1-0.4l0.5-0.8l-0.4-0.9l-1,0.2l-0.2-0.4l-0.6,0.1l-0.1,0.9l-0.7,0.2l-0.2-0.9l-0.8-0.4l0.1-3.3
	l0.9-0.6l1.9-3.9l-0.3-0.7l-1.3-0.4l0.8-0.8l-0.1-0.8l-1.8-3.8l0-0.5l0.7-0.2l0.1-1.9l0.9-1.4l0.5,0.1l0.8-0.9l0.9-0.2l0.1-0.8
	l0.6,0.5l0.2-0.4l1.3-0.1l0.2-1l1-0.7l0.2-0.7l1.1-0.4l1.7,0.9l2.3-1.3l1,0.4l0.6-1.2l0.9,0.7l2.6-3.6l0.1-0.8l-0.9-1.7l0,0l1.9,0.3
	l1.2-0.4l-0.1,0.6l0.5,0.2l0.2,0.8l0.6-1.8l3.8-1.7l0.7-1.4l1.2-0.3L161.2,113.9z"/>
<path id="IN-PY" class="st0" d="M244.5,605.3l-0.8,0l-0.1-1.1l-1.7-0.6l-0.5-1.2l0.9,0.2l-0.3-0.9l1.1,0.4l0.4-0.4l1.1,0.2l0,0
	L244.5,605.3z M243.4,584.2l-0.4-0.7l-0.6,0.3l0-0.8l-1,0.5l-0.9-0.6l0.5-0.8l0.7,0.6l0.2-0.4l-0.4-0.8l-0.6-0.2l0.4-0.8l-1.1-0.3
	l0.7-0.7l0.6,0.9l0.6-0.4l0.4,0.3l-0.8,0.3l0.4,1.3l1.3-1.2l0.8,0.5l0,0L243.4,584.2L243.4,584.2z M294.8,479.4l-1.7-0.8l0.9-0.6
	l0.1,0.7l1.3-0.1l0.3-0.4l0.1,0.6l0,0l0,0l0,0l0,0l0,0l-1.1,0.1L294.8,479.4z"/>
<path id="IN-RJ" class="st0" d="M121.3,172l0,1.8l-1.5,1.8l-0.1,1.8l13.1,0.6l0,0l-0.3,0.9l0.6,0.1l0.4,0.9l-1.8,1.9l0.1,1l1.1,0.1
	l1.3-0.7l0.4,0.4l-0.8,4.5l1,0.9l-0.7,1.6l-0.8-0.2l-0.3,0.4l0,0.6l0.6,0.2l0.8,1.4l0,0.8l1-0.1l0.2-1l2.2,0.4l1.8-1.1l1.8,0.9
	l0.5,2l0.8,0.2l1-0.4l0.8,1.3l0.6,0.1l1.5-1l0.9,0.8l2-1.4l-0.1,1.4l0.6,0.2l0.3-0.7l0.8-0.2l0.1,1.7l-0.8,1.1l0.7,0.3l-0.3,1.4
	l1,0.1l0.1,1.1l1.6,0.1l0.1,0.8l-1,1.2l1,2.1l-0.3,1.2l0.6,0.9l0.6,3.2l1.3,0.3l0.2,1.3l3.1,2.1l-0.2,1.2l2.5,0.3l0.7,0.6l0.7,1.2
	l1.3,0.9l-0.2,0.9l0.9,0.4l-0.2,0.5l1,1.1l-0.6,0.3l0-0.6l-0.8-0.1l-1.9,1.9l1,0.3l0.1,0.7l0.7-0.9l0.4,0.4l-0.6,0.5l0.1,0.4
	l-0.8,0.1l0.4,0.5l-0.7,0.2l0.6,0.4l-0.5,1.1l-0.5-0.3l-0.3,0.4l0.1,0.4l1,0.2l-0.3,1.1l1.8,0.4l0.8-0.5l1.8,1.4l1.1-0.8l-0.6-0.5
	l0.1-0.8l-0.7-0.4l0.3-1.4l-0.5-0.6l1.2-0.8l-0.8-0.7l1.5-0.3l0.6,0.3l0.3,0.8l0.9-0.2l0.3-0.9l-1.2-0.6l1.2-0.6l-1.6-1.2l1.2,0
	l0.9,0.9l2-0.4l0.6,1.1l-0.8-0.1l-0.3,0.4l1,0.7l-0.9,0.4l1.8,0.2l0,1.6l1.3-0.9l1.3-0.2l-0.2-1.8l2.9-1.4l0.2-1.3l1-0.4l2.3,2
	l-0.9,3.5l0,1.7l0.4,0.1l-0.3,2l-0.5,0l-0.4,2.4l0.6,0.7l-0.7,0l0.5,1l0.7-0.4l0.8,0.4l0.5-2l1.8,0.1l-0.2-0.6l-1-0.3l0.4-1l1.8,1
	l0.5-0.4l0-0.6l0.6,0.2l-0.3,0.6l0.5-0.9l0.8,0.9l0.6-0.7l0.3,0.2l0,0l0.6,0.4L191,231l0.8,0.5l0.1,1l-0.7,1l0.8,0.4l-0.4,0.5l0.1,1
	l1,0.3l0.3,0.9l0.7,0.4l-0.3,0.9l0.4,0.6l1.4,0.4l1.6,1.3l0.8-0.4l-0.5,1l1.1,1.4l-0.1,0.5l0.7,0.4l-0.4,0.6l-1,0.2l-0.3,1.1
	l-1.9,0.7l0.5,0.7l0.9-0.3l-0.2,1l1.5,0.5l1-0.8l0.6,1.2l0.4,0l0.1-0.7l0.6,0.2l-0.4,0.8l-1.8,0.3l-4.7,2.5l0.4,1.1l-0.2,1.1l0.7,0
	l-0.3,0.5l0.9-0.5l-0.3-0.5l0.4-1.4l0.5,0.6l1.8-0.3l2.3-1.1l0.1-0.8l0.7-0.5l2.9,1.1l0.2-0.8l0.9,0.6l1.4-0.3l0.3,1.2l0.5-0.3
	l-0.1-0.9l1.2,0.2l0.2-1.1l2,0.3l0.2-0.4l1,0.7l-0.7,1l-0.7-0.1l0.4,1.2l0,0l-1,0.2l0.3,0.8l-1.6-0.1l0.3,1l-0.6,0.4l-0.1,1.3
	l-2-0.5l-0.9,0.9l-1.1,0.1l-0.3,1l-1.2,0.5l-0.2,1l-1.4,0.2l-0.6,1l-1-0.1l-3,2.2l-2,0.2l0.1,1l-2,0.2l-0.9,1.4l-1.8,1.4l-1.7,0
	l-0.7,1.1l-1.2,0.2l-1,1.1l-2.1,0.9l-1.2,1.5l0.2,0.4l-0.7,1.4l-1.1,0.3l0.1,0.5l-0.6,0.5l-1.8-0.1l-0.4,0.9l-0.7-0.1l-1.3,1.8
	l0,1.5l-1,0.4l-0.1,0.5l0.7,0.5l0.2,3.3l0.9,2l0.5,0.3l0.3,1l1.6,1l1.8,0.2l0.1,0.6l1.5-0.4l1.1,0.2l1,1.1l0.4-0.5l1.4-0.1l1.1-0.9
	l2.7,0.7l0.3-1.4l1.3-1.2l0.5-0.3l1.2,0.5l-0.5,2l0.7,0.1l-0.5,1.1l1.2,1l0.2,0.8l-0.6,0.1l0.2,1.7l-2,0.7l-0.8-0.8l-1.9,0.1l-1.2,1
	l-0.8,0.3l-1.7-0.5l-2.9,1.6l0.8,2.1l0.6,0.1l-0.1,0.7l0.7,0.3l-0.5,0.5l-2,0.2l-0.6,0.5l1,1.6l1.3,0.1l0.9-0.4l0.4,0.8l1.1,0.5
	l0.7,1.6l0.1,1.7l-0.3,1l-0.4-0.1l-0.6,1.2l-0.8,0.4l-1.1-0.6l0-1.3l-0.7,0.4l-0.3-0.6l-1.1,0.3l0.8,1.5l-0.2,3l0.7,1.5l1.5,1.5
	l-0.6,0.4l-0.3,1.3l-0.9-0.2l-1.1,0.4l-1-1.2l-1.1,0l-0.6-0.5l0.6-1.3l-0.2-0.8l-1.6,0.5l0,0.5l-0.5-0.2l0.2,0.4l-0.7,0.7l0.3,0.5
	l-1,0.4l-1.3-1.6l-0.4,0.3l-0.6-0.2l-0.2,0.4l-1.8-1.1l-0.9,0.9l-1.4,0l-0.4-1.6l0.2-0.6l-0.4-0.5l-0.9,1.1l0.2,0.9l-0.7,1.1
	l0.3,2.3l-1.8,0.4l-1.8,1.1l0.3,2.1l-2,1.1l-0.4-0.3l-1.4,0.5l-0.4,0.5l-0.6-0.8l-1-0.3l-0.1,0.6l0.6,0.4l-0.2,0.9l-0.6,0l-0.1,1.3
	l-0.7-0.9l-1.4,0l-0.6-0.6l0.4-0.4l-0.3-0.4l-2.2-1.4l0.2-1.4l1-1.5l1.1,0.6l0.4,0.7l1.1-0.2l0.7-0.8l0.7,1.5l1.3-0.7l0.4-1.5
	l1.1-0.3l0-0.8l-1,0l-0.3-0.7l-0.7,0l0.6-1.9l1.1-0.6l-0.3-1.3l-1-0.2l-0.6-0.9l-0.2-1.3l0.6-0.1l-0.1-0.4l0.9-1.1l1.2,1.3l1.3-0.9
	l0.1-0.8l-0.4-0.4l0.7-0.5l-0.4-0.4l0.2-0.4L161,303l-0.5,0.4l-0.2-0.4l0.4-0.9l-0.5-0.4l0.2-1.3l-1.7-0.8l-3.1,1.8l-0.7-0.8
	l-2.7,0.7l-3.9-0.9l-1.1,0.2l-0.7-1l0.4-1l1-0.6l-1.1-1.1l0.1-0.6l0.3,0.5l0.6-0.1l-0.5,0.8l1.1,0.1l0.6,0.9l2.3-1.2l0.1-0.7
	l-2.1,0.1l-0.3,0.4l-1-0.5l0.7-0.8l-0.6-0.9l0.2-0.3l0.8,1.8l0.5-1.4l-0.4-1l0.7-0.4l-0.1-0.4l-3.9-0.1l0.1,1.2l-1,0.6l0.1,1.8
	l-1.3,0.2l-0.3,0.5l-2.6-0.7l-0.1-0.8l-0.6-0.5l-0.4,0.3l-0.4-0.9l-0.5,1.1l0.7,1.7l-0.1,1.4l0.2-0.5l1.2,0.6l1.9-0.2l0.3,1l-0.6,0
	l0.1,1l-0.8,0.2l-0.4,0.9l-1,0.1l-2-3.2l-0.5,2.5l0.9,0.4l-0.7,0.8l0.1,0.6l-0.9,0.3l0.2,1l-0.9,1l1.4,0.6l0.8-0.2l0,0.7l0.8-0.1
	l-1.5,2.2l-0.1,1.3l-0.6,0.8l2.4,0l0.5,0.4l0.2,0.6l-0.5,0.5l2.3,4.2l-1.5,2.1l-0.3,1.4l0.7,3.2l-0.7,1.2l0.7,1.2l-0.7,0.2l-1.3,1.6
	l-0.9,0.5l-0.4-0.3l-1.1,1.1l-0.7-0.1l-1,0.9l-0.9,0.1l-0.8,0.9l-0.1,1l-1.1,1.1l0.7,1l0.4-0.4l1.6,0.9l1.1-0.3l0.4,0.7l-0.6,0.4
	l1.1-0.2l0,0.5l-0.6,0.4l-1-0.2l-1.3,1.3l-1.3,0.3l-0.7,1l-2.5-0.5l-1.4,1.1l0,0l-0.8-0.7l0.1-0.5l-0.9-1.6l-0.8-0.1l-0.5,0.9
	l-1.2-0.6l0.1-2.1l-0.7-0.6l-1.2,0l-0.2-0.8l-0.9-0.1l-0.4-0.9l-0.5,0.1l-0.2,0.7l-0.9,0.1l-1.3-2.5l-1,0.3l-0.4-0.5l-0.8,1l-0.5-1
	l-1.1,0.3l-0.4-0.3l0.5-1.2l-0.4-1l0.5-1.7l-1.7-0.7l-1.3,0.9l-0.1-2l-0.6-0.1l-1.2-1.6l-0.9,0.3l-0.3-0.5l0-1.7l1.3-1.6l-0.4-1.4
	l0.2-1.4l-0.9-0.8l0.1-0.9l-0.8,0.3l-0.1,0.9l-0.9,1.1l-0.9,0.4l-1-0.9l0.5-1.1l-2.3-0.9l-0.7-1.1l1.3-2.8l0.7,0.1l0.3-1l0.4,0.2
	l0.4-0.7l-0.4-0.2l-0.9,0.6l-1.8-1l0.5-0.7l-0.3-1.6l-0.9,0.7l-0.8-0.4l-0.3,0.3l-0.8,2l0.6,0.5l-1.4,0.9l-1.2-0.9l-2.8,0.1
	l-0.8-1.3l0.1-0.9l-2.3-0.4l-0.9-0.8l-0.9,1.3l0.2,0.9l-0.9,0.1l-0.6-1.2l0.1-1l0,0l-1.1,0.1l-0.7-1.2l0,0l-1.3,0.3l-0.9-1l0.6-0.5
	l1,0.3l0.6-0.7l-0.8,0.2l-1.8-0.5l-0.4,0.5l-0.9,0l-1.7-0.9l0-1l-0.7-0.2l-2.3,1.8l-0.5-0.9l-0.9-0.2l-0.4,1.6l-1-0.4l-0.3-1.1
	l-2.9,0.9l-0.9-0.9l-2.7-0.1l-2.2,1.2l-0.7-0.7l-1.1,1l-4-1.7l0,0l-3.4-5.8l-1.1-4.8l-2.7-2.8l-0.5-1.3l-1.5-1.6l0.3-3l-0.5-4.2
	l-1-0.2l-1.7,0.7l-2.9,0.3l-2.5-0.9l-3.8-5.6l-0.3-3l1.9-4l0.2-5.6l-0.3-1.5l-2.1-1.1l-3.9,0.4l-1.3-0.3l-2-1.4l-4.5-2.2l-0.5-1.3
	l0.6-4.9l1.4-3.5l5.9-5.6l1.6-2.3l1.7-1.3l1.9-5l1-1.6l4.4-4.1l2.5-0.6l1.7,0.3l2.3,2.5l0.1,1.8l1.7,2.9l2.6,0.4l8.1-3.4l2.9-0.6
	l5.2-0.1l5-2.1l0.8-4l1.3-1.9l3.9-3.6l2.5-7.3l1.7-2.4l6.8-4.1l4.8-2.2l1.2-2.9l1.9-2.4l3.8-7.4l2.5-9.1l4.6-2l3.7-1.1L121.3,172z"
	/>
<path id="IN-SK" class="st0" d="M428.6,222l0.4,0.6l1.8,0l1.7,1.5l0.1,1.9l0.5,0.2l0.5,1.5l-0.7,1.1l-0.2,3.5l-1.7,2.4l0.9,3.8
	l2.4,1.8l-0.5,1.2l-2.1,0.6l-0.3,1.4l-0.8,0.9l0,0l-0.6,0.2l-0.8-1l-0.6,0.4l-0.8-0.6l-1.3,0l-0.8,0.2l0.2,0.7l-2.1,1.6l-2.3-0.5
	l-0.4-0.6l-1.5,0.2l-0.8-0.4l-1.2,0.5l-1.1-0.6l-0.2-1.4l-1.2-0.4l0,0l1.1-2.7l-0.5-0.8l0.1-0.8l0.7-0.5l-0.8-1.6l3.2-6.9l-0.5-0.7
	l0.6-0.4l-0.1-0.4l-1.4-0.7l-0.1-1.6l0.3-0.3l1,0.5l0.9-0.6l0.3,0.5l2.1-1l0.9,0.3l2-1.6l1.2,0.2l0.3-1.1l1.3-0.4l-0.1-0.6
	L428.6,222z"/>
<path id="IN-TG" class="st0" d="M196.3,444.5l0.4-0.6l-1-0.7l0.7-1.5l-0.6-0.2l1.2-0.4l-0.8-0.4l0.6-0.4l0.5,0.2l-0.1-1.6l1.1-0.1
	l0.2,0.6l1.7-0.6l-0.1-2.7l0.5-0.7l0.6,0.5l1.1-2.7l2.2-0.3l-1.3-1.9l-0.9-0.1l0.3-0.9l-0.9,0.1l0.1-0.7l-1,0l-0.2-1l0.1-0.7
	l0.7,0.2l0.1-1.1l1,0.3l-0.4-1l0.6-1l-0.2-0.4l0.4-1.3l0.8-0.3l-0.9-0.4l0-0.4l1.8-0.9l2,1.6l0.1,0.6l0.7-0.3l1.8,0.4l0.6-2.1
	l-0.3-1.8l2.7-1l-0.6-2.2l0.7-0.3l0-0.7l-0.9-1.3l0.3-0.6l1.2-0.5l0.5-1.5l-0.6-1.3l-0.9-0.2l0.5-1.5l0.4,0.7l1,0.1l0.3,0.9l1.6,0.4
	l0.4,0.5l0.7-0.6l1.6,0.1l2.4,1.1l1.4-0.3l1.3,0.5l0.3,2.3l1.2-0.3l1.1,0.4l0.2,1.4l-0.5,0.7l0.8-0.2l0.5,0.5l1.8,0.3l1.6,1.5
	l0.9-0.2l-0.3-0.5l0.6-0.8l0.2-1.9l1.3,0.5l0.2,0.5l1.1-0.1l2.1,1.6l1.5-1.1l0.2,0.6l1,0.4l0.9-1.6l2.1-0.6l0.9,0.2l0.9,1.3l2.3,1.6
	l0.7,1.4l-0.2,2.3l-0.9,1.6l0.5,1.2l-1.8,1.5l0,1.5l1.2-0.3l0.4,0.6l0.1,3.6l-0.9,0.6l0.8,1l1.7,0.4l2.1,2l1-0.4l0.6,0.4l0.3-0.5
	l1.4-0.5l0,0l1.6,2.9l3-0.9l3.1,2.4l0.4,1l1,0.8l-0.2,0.4l0.7,0.2l-0.2,0.6l0.6,1.8l0.9,1.1l-1.1,0.8l0,1l1.3,0.1l0.7-1.5l0.8,0.6
	l-0.4,0.2l0.3,1.4l2.3-0.8l-0.6,1.9l1.9,6.4l0.9,0.1l1.8-1.5l2,0.9l2.7,0.1l0,0l1.6-0.4l0.5,0.5l1.8-0.5l0.9,0.3l1.1-1.3l0.5-0.2
	l0.3,0.5l1.2-0.7l0,0l0.7,0.9l-0.2,0.5l-4.3,2.3l-0.1,0.8l-1.4,2.1l0.4,0.4l-0.5,0.7l-0.2,2l-1.6,1.9l-0.9,0.1l-1-0.7l-1.2,1.5
	l-1.8,0l-0.4,2l-2.4,0.4l-1.2,0.7l-1.8-0.5l0.2,1.2l-0.9,0l-0.2,2.1l-0.6,0.5l-2.2-0.8l-1.8,0.2l0.4-0.7l-2-1.1l-1.3,0.7l-0.3,1.3
	l-0.8,0.7l-0.5-0.2l-0.5-1.1l-0.6,0.5l0.5,0.9l-0.6,0.9l2.7,1.2l0.1-0.7l1.9,0.5l0.1,1.1l-0.5,0.1l-0.2,1l1,0.8l-0.9,0.5l-2.2-0.6
	l-0.1-0.5l-1.1-0.7l-0.6,0.8l-0.3-1l-0.8-0.3l-0.4-1.8l-0.8-1.2l-1.3-0.1l-0.4-0.7l-1,1.3l-1.8,0.4l-0.8,1.3l-0.4,1l0.9,0.2l0.8,0.8
	l-0.5,1.5l-1.9,2.2l-1.2,0.1l-0.8-1.3l-1.1,0.2l-0.7-0.8l-2.7,1.5l-3.2,0.7l-1.5,1l-3.4,0.5l-0.9,1.2l-0.1,5.8l-0.9,0.5l-3-0.6
	l-2.2,0.9l-0.4,0.4l0.1,1.7L224,492l-0.2-0.9l-0.5-0.1l0,1.5l-1.3,1.4l-1.3-0.1l-2-1.6l-1.2,0.9l-3.2-0.5l-1.9,1.1l-1.2,0l-0.4,2.2
	l-1.2,0.6l-0.3,1.1l-0.8,0l-0.3,0.5l-1-0.4l-0.6-1.2l-0.7,0.9l-2.4-0.8l-1.9,0.7l-1.7-0.5l-1.2,0.2l-1.1-0.8l-2-0.2l0,0l0-1.8
	l-0.4-0.6l0.4-1.6l-0.5-0.3l-0.1-0.9l0.6-1.4l-0.5,0l0-0.6l0.3-0.4l0.7,0.1l0.7-0.8l0.5,0.2l0-1.1l-2-0.8l-1.7,0.3l-1.4-0.4
	l-1.2-0.5l-1-1.4l1.2-0.1l0.1-0.4l1.5,0.2l0.3-0.6l0.8-0.2l-0.5-1l1.5-0.4l0.1-1.4l-0.8,0.2l-0.3-0.5l1-0.3l0-0.7l-0.9-0.1l0.3-1.5
	l0.7,0.1l-0.4-2.8l1-2.1l-0.8-2.1l-2.1-1.3l0.8-1l-0.4-0.2l1.6-1.2l-0.4-0.3l0.4-1.8l1,0.4l0.6-0.4l0.2-0.7l-0.5-0.5l1.3,0l0-0.5
	l0.8,0.2l0-0.6l0.6-0.1l0.3-0.6l-0.1,0.5l0.8,0.2l0-0.7l-2-0.6l0-0.7l-0.9,0.3l-0.4-0.5l-0.5,0.7l-0.2-0.6l-1-0.3l0.2-2.4l2.3-1.2
	l0.1-0.4l-1.3-0.4l0.1-0.4l0.3-0.6l0.5,0.2l0.5-1.2l0.5,0.1l-0.2-0.8l0.7,0.1l0.2-1.2l0.4,0.2l0.2-0.5l-0.2-0.5l-1.1-0.4l-1-1l1.1-1
	l-0.1-1.1l-0.7-1.1l0.8-1.7L196.3,444.5z"/>
<path id="IN-TN" class="st0" d="M233.2,636.7l0.5,0.4l-0.4,0.6l0.2,0.4l2.4,2.2l-3-1.9l-1.8-0.2l-0.2-0.5l0.3-0.3l1,0L233.2,636.7
	L233.2,636.7z M210.3,564.1l0.1,0.8l-0.8,0.7l1.6-0.2l0.5,0.8l1.6,0.9l1.9-0.1l0-1l0.6,0l0.1-0.9l0.4,0l0.1,0l0.2,0.5l0.5-0.1l0-1.2
	l0.8-0.6l0.9-3.2l0.4,0l-0.7-1.3l0.8-0.8l0.9,0.3l0.2-1.1l0.9,0.2l2.7-0.9l0.1,1.4l0.9,0l-0.7-0.4l0.4-0.7l1.4-0.2l1.9,1.3l1.8,0.1
	l0.8-1.7l0.6-0.4l0-0.7l1-0.1l0.8,0.9l1-0.7l-0.1-0.7l1.6-0.5l0-0.5l0.5-0.2l-0.2-0.3l-0.5,0.4l0.3-1.5l-1.1-0.5l1.1-0.4l2.2,0.3
	l0.3,0.9l0.7,0.5l1.8-0.8l0.1,1.1l0.5-0.1l-0.2,0.6l0.7-0.3l0.5,0.6l0.8-0.6l-1.3-1l0.7-0.7l0.5,0.4l0.4-0.5l1.1,0l1.6-0.7l0.6-0.8
	l-0.4-0.6l0.6-0.3l0-0.7l0.7-0.2l0.2-0.6l0.6,0.1l-0.1-0.4l-0.9-0.2l0.1-0.4l1.6-0.2l1.7,1.3l1.6,0l1,1.9l0.8,0.4l0-1.1l0,0l0.7,3.2
	l-1,2.9l-0.9,7.6l-2,6.7l-5.7,8.6l-1,2.6l0,0l-0.8-0.5l-1.3,1.2l-0.4-1.3l0.8-0.3l-0.4-0.3l-0.6,0.4l-0.6-0.9l-0.7,0.7l0,0l0,0l0,0
	l1.1,0.3l-0.4,0.8l0.6,0.2l0.4,0.8l-0.2,0.4l-0.7-0.6l-0.5,0.8l0.9,0.6l1-0.5l0,0.8l0.6-0.3l0.4,0.7l0,0l-0.9,5.2l1.7,4.4l0.3,8l0,0
	l-1.1-0.2l-0.4,0.4l-1.1-0.4l0.3,0.9l-0.9-0.2l0.5,1.2l1.7,0.6l0.1,1.1l0.8,0l0,0l0.6,10.9l-0.9,0.4l-1.9,0l-7.5-0.9l-1.9,1.2
	l-1.4,2.5l0,1.1l0.8,1.1l-2.4,2.2l-0.7,1.6l-2.7,3.1l-1.2,2.1l-0.8,2.7l0.9,1.6l2.6,2.2l2.7,0.4l-2,0.5l-2.9-0.3l-1.7,0.3l-3,1
	l-0.2,0.4l-1.3,0l-0.3,0.4l0.3,0.3l-1.7,0.6l-3.5,0.4l-4.2,3.2l-0.8,1.6l-0.2,2.3l0.6-0.1l0.9,0.6l-1.3,0.1l-1.3,1.9l-0.2,1.5
	l0.9-0.2l-0.2,1.9l-1.4,1.6l-0.3,0.8l0.4,0.2l-5.5,2.6l-1.2,1.5l-3.6,0.9l-0.5,1.2l-4.9-0.9l-4.6-3.7l0,0l0.5-0.5l0.8,0.2l-0.5-1.4
	l1.6-1.2l-0.5-1.2l1.3-0.2l0.4-0.8l-2.3-4.2l0.4,0.1l0.8-0.9l0.6-1.8l-0.8-1.2l-0.5,0l0-0.7l-1-1.4l1-0.5l0.3-1.1l1.2-1.1l-0.3-0.8
	l0.6-0.6v-1.7l0.4-0.8l0.6,0l0.5-2.2l0.9-0.4l0.4-1l-1-0.6l-0.2-1.5l-0.3,0.7l-0.4-0.6l-1,0.6l-1.2-0.8l-0.9,0l0.8-2.3l0.4-0.1
	l0-1.2l0.5-0.2l-0.5-0.5l0.3-0.7l-0.5-0.4l0.7-1.6l0.5-0.2l-0.2-1.4l-1.3-1.5l1.5-0.6l0.4-1.9l-0.7-0.3l0.1-0.7l-0.8-1.1l0.2-0.7
	l-1.2-0.1l-2.3,1.3l-0.3,0.8l-1.4,0.8l-1.4-0.3l-0.9-0.9l0-0.5l-0.5,0.3l-0.4-0.4l0.4-1.4l-0.7-1.2l0.5-3.6l-0.5-0.9l1.4-0.1l-0.4-1
	l0.9-2l-0.2-0.6l-1-0.2l-0.5-1.1l-3.5-1.3l1.2-2.3l1.8-0.2l-1.2-0.1l0-1.6l-1-0.5l0.7-1.4l-0.6-0.5l-1.5,1l-2.8-0.4l-0.7,0.5
	l-0.1-1.1l2-1.3l0-1.3l-0.6,0.1l-1.3-0.7l-0.8-1.1l-1.6-0.5l-0.3,0.3l-0.9-0.6l-0.8,0.3l-0.3-2.2l0.9-0.6l0.6,0.6l1.1-0.4l0.6-0.8
	l0.9,0l0-0.8l0,0l0.6,0.1l1.1-0.9l0.8,0.6l0.4,1.3l3.9,0l1.5,0.3l0.4,0.5l0.3-0.6l-0.5-0.9l1.5-3l1.3,0.4l0.3-0.8l0.7,0l0.6,0.4
	l-0.2,0.4l0.7-0.3l0.3,1.1l0.8,0.3l-0.1-1.1l2.6-0.4l0.3-0.4l0.9,0.1l0.9,0.8l0.7-0.4l1.3,0.6l0.8-1.9l-0.1-1.1l0.5,0.3l0.2-1.2
	l3.7-0.1l0.6-1.5l1.7-2l-0.9-1.3l-5.5-0.7l0.1-1.3l1.5-0.5l1.3-1.5l0.3-1.2l0.1-1.5l-1,0.2l0.6-0.7l-0.6-0.2l-0.2-1.1l0.6-1.3
	l-0.2-0.8l1.3-0.4l0.5,0.5l0.5-0.5l0.6,0.2l1.4-2.6l-0.3-1l2.8-1l0.4,0.5l-0.5,0.7l0.3,0.2l0.4-0.8l0.8,1.1l0.4,0l0.3-1.1l0.7,0.1
	l1.5,1.5L210.3,564.1L210.3,564.1z"/>
<path id="IN-TR" class="st0" d="M502.7,305.1l1,0.4l0,0l0,1l0.9,1.9l-1.2,3l1.8-0.1l0,0l0.8,2.4l-0.5,2.6l0.3,1l-0.4,0.7l0.4,1.1
	l-0.2,1l-0.6-0.1l-0.4,0.5l0.3,0.7l-0.6,0l0.2,2l0,0l-0.4,0.1l-0.5,1.5l-0.1-0.9l-0.7-0.3l-0.1-0.7l-0.4,0.1l-1.9,2.2l-1-0.3
	l-0.8-1.6l-0.4,0l-0.4,1l0.7,4.5l-0.7,0.3l0,0.7l-0.8-0.1l-1.2,0.9l-1.5,2.8l1.3,4.1l-0.4,0.6l-0.8,0.1L493,340l-0.5-0.3l-1,0.2
	l-1,0.8l-0.8-0.4l-1.5-4.1l0.3-0.7l-0.8-0.2l0.2-0.5l-0.5-1l-0.8,0l-0.7,1.7l0.7,2.7l-0.9-0.1l-1-2.1l0-2.2l-0.5-0.9l0.3-0.3
	l-0.5-0.4l0.6-0.9l-0.6,0.2l-0.9-3.1l-1-0.6l0.2-0.7l-0.4,0l-0.7-1.2l-0.1-1.6l0.8,0.5l0.2-0.9l-1.1-0.1l0-1.1l0.7-0.3l0.6,0.3
	l0.7-2.3l-0.5-1l0.4-0.7l-0.3-0.3l0.9,0.1l-0.1-0.9l0.2-0.4l0.3,0.2l0.1-0.6l1.5,0.5l0.4-1.7l-0.4-1.3l3.5,0.8l1.9-0.6l0.5-1.9
	l-0.3-0.6l0.4-0.4l0.4,1.4l1,0.6l0.6,0l-0.4-2.4l1.5,0.9l0.7-0.4l-0.1,0.7l1,1.4l0.5-0.1l0.7-2.9l-0.4-1.6l0.8-0.5l0.8,0.8l-0.4-1.5
	l3,0.1l0.4-0.9l0.7-0.1l-0.4-1.6l0.1-0.5L502.7,305.1z"/>
<path id="IN-UP" class="st0" d="M196.6,167l1.5-0.2l1.6,1.7l4.6,2.2l-1.9,3.2l-0.5,0.5l-0.6-0.2l-0.6,1.2l0.3,0.5l-0.9,0.9l0.3,0.5
	l-0.6,0.8l0.3,0.5l-0.6,1l1.3,2.1l-0.1,1.7l0.8,0.4l-0.1,0.4l0.8,0.3l0.9-0.8l1.6-0.1l0.5,2.2l-0.5,0l-0.1,0.6l0.8,0.1l0.1,1l1-0.2
	l0.1-1l0.8-0.2l1.2-1.8l1.1-0.8l0.8,0.1l2.1-2.2l1.7,0.6l1.6,0.7l0.8,2.8l1.6,1.5l3.8,2.1l2.9,0.5l-1.1,1.5l-0.9,0.6l-0.4-0.4
	l-0.4,1.3l-0.7-0.5l-0.9,0.8l1.8,1.4l1.1-0.1l1,1.4l0,1.2l0.9,0l0.4-0.4l1.1,1.2l0.2-1.3l2.2,1l0.1,1.4l0.6,0.4l-0.1,0.7l1-0.1
	l2,1.8l1.1,0l0.2-0.4l0.4,0.8l0.5,0.1l0.2,1.8l2-0.2l0.6-0.7l0.3,1.1l1.3-0.5l1.1,0.5l1-0.8l1.3-0.3l0.7,0.7l-0.5,1.4l0.7-0.2
	l0.2-0.8l0.6,0l0.5,0.6l-0.7,0.2l1.3,0.2l-0.3,0.4l0.7,1.3l1,0.4l1-0.5l0.6-1.1l-0.3-0.4l1-0.7l0,0l1,0l2.1,1.7l0.7-0.1l0.1,0.7
	l1.3,0.7l0.9,1.5l1.9,0.2l1.4,1.8l0.3-0.5l-0.6-2.2l1.4-0.5l0.9,1.2l1.2-0.1l0.5,1.3l1.6,0.5l0.4,1l1.6,0.8l0.2-0.5l0.7,0.3l0.1,0.7
	l1.4,0.8l0.8-0.4l0.4,0.9l0.9,0.7l2.7,0.6l0.5,1.7l1.8,2.2l0,0.7l-0.4,0l0.5,0.4l-0.2,0.3l1.1-0.2l0.1-0.8l1.4,0.3l0.8,1l-0.1,0.8
	l3,1.9l1.6,0.4l3.8,3l0.9-0.1l0.9-1.6l2.1,0.1l1.2,1.4l1.8,0.5l5,3.9l5.4-1l0.1,1.3l0.9,1.8l-0.4,2l4.1,0.1l0.5,0.8l1.7,0.4l3.2-0.1
	l2.4,2.9l1.1-0.3l1.1-1.6l-0.5-0.5l0.4-0.5l-0.3-0.5l4.7,0.2l5.1,2.8l0,0l-0.6,0.7l0.5,0.3l1.3-0.3l0.2,0.5l-0.6,1l1.2,0.6l0.5,0.8
	l-0.8,2.5l1.7-0.1l-0.6,0.6l1,0.6l0.1,1.9l-0.5,0.4l0.5,0.3l0.1,0.9l0.8,0.3l0.2-0.6l0.8,0.3l-0.2,0.7l0.8,0.5l0.8-0.9l0.7,0.2
	l0.2,1.3l-0.6,1.2l0.2,0.4l0.3,0.2l1.1-0.6l0.6,1.6l1.6,0.3l0.3,1l-3,0.6l-4-1l0,1l-0.7,1.3l-1.5,0.3l-0.2,0.5l-1.3-0.2l0,1.6
	l1.7,0.4l0.6-0.3l1.3,1.5l2.1,0.2l0.2,1.3l-0.5,1.7l-1-0.4L333,266l-1.4-0.5l0.1,2.2l0.6,1.1l0.9,0.1l1.6,1.6l0,0.8l0.7-0.2l2,1.2
	l1.2-0.3l1.2,0.6l0.3,0.9l2.2,0.3l0,1l0.6-0.1l1.3,1l-0.4,0.8l0.6,0.7l-1.6-0.2l-0.1,1.2l-0.4-0.2l0.1-0.8l-0.2,1l-0.8,0.1l-0.8-0.8
	l-1,0.3l-0.5-1.1l-1,0.1l-0.3,1.7l-0.7-0.1l0,0.4l-1.7-0.2l-0.2-0.8l-1-0.6l-1.1,0.2l-0.5,0.6l0.1,1.3l-3.3,1.8l-1.4,2l-0.9,0.2
	l0.6,0.7l-0.9,0.1l0.1,0.5l-0.8,0.5l-0.6-0.5l-0.6,0.6l-0.2-0.2l-0.4,0.4l0.3,0.2l-0.8,0.1l-0.6,0.9l-1.2,0.5l-0.5-0.2l-1.7,1.5
	l-1.1,0.1l-0.4,1l-0.8,0.2l-0.3,0.4l0.5,1.3l-0.8,2.5l0.5,0.2l0.2,3.2l0.8,0.9l-0.1,1.1l1.4,1.2l0.6-0.1l0,0.7l0.7,0.6l-0.3,0.7
	l0.9,0.6l-0.9,2.3l0,0l-2.2,0.6l-0.2,1l0.4,1.1l0.6,0.1l0.5,0.9l-1.6,1.1l0.5,1.1l-1.6,3.8l0,0l-0.7,0.6l-0.3,1.1l-1.3,0.8l-0.6,1.6
	l-2.2,1l-3.1,0.1l-2.7-2l0,0l-0.2-1l-1.2-0.4l0.5-1.3l-1.2-0.1l-1.1-1.2l0.3-0.5l1,0.4l0.1-1.9l0.5-0.3l0.3-1.3l-0.1-1.8l-1.1-0.3
	l0.6-2.6l-0.4-0.3l-0.1-1l0.7,0.3l1.1-0.3l-0.1-1.1l-0.8,0l0.1-1l-1.4,0l0-0.7l-0.8-0.6l-2.7,1.1l-0.2-0.6l-1.5,0l-0.3-0.6l-0.6,0.5
	l0.2,2l-1.7-0.6l-0.8,0.2l0.1-1.3l-0.7-0.4l-0.2,0.5l-0.5-0.1l0.3-2.4l-0.1,0.5l-0.4-0.3l0,0.4l-0.5,0l0.3,0.5l-0.9-0.3l0.3-1l0.4,0
	l-0.6-0.5l0.4-0.5l-0.8,0.7h-1l-2.2-1.3l-1,0.5l-1.3-1.4l0.3-0.9l-0.3-1.8l-0.3,0.4l-1.2-0.6l-0.8,0.2l-1.2-0.9l-1.1,0.1l-0.5-0.8
	l-1.1,0.4l-0.2-0.4l0.8-0.5l-0.3-0.4l-0.3,0.5l-0.2-0.8l0.6-0.5l-0.8-0.2l-0.3-0.6l-1.2,0.2l0.3,1l-0.6-0.2l-0.5,0.4l0.7,0.7
	l-0.5,0.7l-1.7-0.8l0.8-0.1l-0.2-0.5l-0.8,0.2l-1.3-1.1l-0.4,0.2l0,1.1l-0.2-1.1l-0.8,0l-0.5,1.4l0.3,0.9l-1.3,1.7l0.2,1.4l-0.6,0.1
	l0.3-0.1l-0.8-0.5l-0.6,1.5l-1.2-1.4l-1.4,0l0.2,0.5l-1.3,0.2l-0.4-1.1l-0.8,0.4l0,0l0.1,0.4l-0.4-0.2l0,0l-1,0.3l-0.7-0.2l-0.3-0.6
	l1.2-0.6l-0.5-0.9l0.9-0.7l-0.1-1.2l0.8-0.8l-0.6-0.8l-0.9,0.1l-0.2,1.9l-0.6-0.8l-2.1,0.2l0.5,0.3l0,0.6l1.1,0.3l0,0.5l-1-0.2
	l-1.1,0.4l0.1-0.6l-0.5,0.2l-1.2-0.7l0.6-0.4l-0.8-0.7l0.3,1.9l-0.9-0.4l-0.4,0.5l-0.7-0.8l-0.7,0l0.5,0.3l-0.1,1l-0.5,0l-0.6-0.9
	l-1.6,0.6l0.3,1.1l-0.5-0.4l-0.9,0.5l-1-0.6l1.8-2.6l1.5-0.7l-0.5-1.6l-0.4,0.1l-1.5-1.2l0.1-2.3l-1.1-1l-0.2,0.5l-1.1-0.3l-0.1,0.8
	l-1.4,1l-0.8-0.4l-1.3,0.3l-0.5,1.7l-1.1-0.1l-0.6,0.9l-0.2-0.5l-1.2,0.4l0.5,2.1l-0.5,0.4l0.2,0.8l-2.3-1l-3.1,0.3l0.1-0.5
	l-0.3,0.2l-0.5-0.7l-1.6,2.2l-0.6-0.3l0.2-0.9l-0.8,0.6l-0.3-0.7l-0.3,0.6l-0.3-1.3l0.5-0.9l0.7-0.1l-0.3-0.3l0.7-1l0.7,0l-0.7-0.3
	l-0.9,0.6l-1-0.8l-0.3,0.7l-0.5-0.7l0.3-0.9l-1.1-0.2l-0.7,0.7l0,0.9l0.6-0.4l0.5,0.7l0.6-0.3l-0.2,1l0.4,0.4l-0.3,0.3l-1.2-1.1
	l0.1,1.2l0.7,1l-0.2,0.4l-0.9,0.3l0-0.7l-0.5-0.2l-0.5,0.3l0.6,0.2l-0.1,0.6l-0.7,0.1l-0.5-0.9l-0.4,0.2l0.3,0.6l-1,0.2l-0.4-0.8
	l0.3-0.5l-0.8-0.7l-0.9,1.3l-0.4-0.1l0.1-1l0.7-0.9l-0.9-0.5l-0.1-0.7l-0.7,0.7l0.5,0.3l0,0.9l-1-0.6l-1.6,1.2l0.1-2.1l0.3,0.2
	l0.4-0.7l0.7,0.3l0.6-0.5l-0.4-1.5l-0.5,0.4l-1.1-0.3l-0.7,2.7l-0.8-1l0.1-0.7l-0.6,0.1l0.2-0.4l1.1-0.4l-0.1-0.5l0.8-0.8l1.6-0.3
	l-0.4,0.5l-0.8,0l0.8,0.5l1-0.6l-0.4-1.4l-0.6,0.2l-0.5-0.4l0.7-0.8l-0.4-0.9l0.5-0.2l-0.2-0.7l-0.3,0.4l-0.1-0.4l-0.8,0.1l0,0.8
	l-1,0.3l0.6,1l-0.5,0.8l-0.4-0.3l0.7-0.2l-0.3-0.3l-1.5-0.2l-0.5-0.6l-0.1,0.9l0.6,0.7l1.2,0.1l-1.5,0.4l0.4,1.3l-1.1,0.1l-0.1-0.6
	l-1.1-0.2l0-0.7l0.3,0.4l0.7-0.6l-0.3-0.4l-0.7,0.1l-0.5,0.9l-0.5-0.2l-0.3,0.6l-0.6-0.1l0.3,1l-1.1-0.3l0.3,0.8l-0.3,0.5l-0.5,0.1
	l-0.2-0.5l-0.5,0.7l-0.6-0.3l-0.3,0.4l0.6,0.4l0.9-0.5l1.5,0.8l0.6,3.7l0.9,0.8l-0.4,2.2l0.7,0.5l0.3,1l2,0.9l0.3,1.1l-0.3,0.5
	l0.2,2.1l-0.7,1l0.2,1.3l0.6,0.3l2.2-1.1l1.8,3.3l-0.7,0.3l-0.4-0.4l-0.1,0.8l1.6,0.6l-0.4,2l-1.2,1.2l-0.6,1.8l-1.4,0.3l-0.5,0.7
	l-0.7-1.8l-0.3,0.4l-0.3-0.3l-0.7,0.4l-0.6-0.2l-1.9-2.6l-1.5-0.8l-1.5,2.2l-1.2,0.5l-1.1-1.2l0.7-1.3l-2-1.4l0.1-0.7l-1-1.1
	l0.8-0.8l0.2-2.5l-1-1.8l-0.2-1.5l-0.9-1l0-0.6l3.4-2.7l0-2l1.4-1l1,0l-0.5-0.6l0.6-0.4l-1.3-0.6l0.3-0.5l-0.9-0.7l-0.2-1.2
	l-0.8-0.3l0.5-0.6l-0.7-0.9l0.7-0.6l0.4-1.2l0.6,0.1l0.9-0.7l-0.3-1.3l0.4-0.7l0.5,0.3l0.6-0.7l2,0.4l0.6-0.6l0.8,0.5l0.6-0.7
	l2.7-0.7l0.1-1.2l-1.4-1.7l1.5-1.2l0-0.4l-0.5-0.1l0.3-0.3l1.1,0.7l-0.3-1.4l0.8-0.2l-0.1-1l1.1-0.8l0.3-2l1.2-1l-1.3-1.3l1.2-0.4
	l-0.5-0.9l0.8,0l0.1-0.9l0.8,0l-0.4-0.8l0.6-0.5l0.3,0.4l0.2-0.9l0.7-0.1l-0.2-0.4l0.4-0.2l-1.2-0.4l0.2-1.3l0.6,0l0.2-0.6l-1.6-0.3
	l0.3-1.1l-0.8-1.1l-0.5,0l-0.1-0.7l-0.2,0.2l0.5-0.8l-0.3-1.7l-1.2,0.5l0.2-0.8l-0.9-0.4l-0.8,0.2l-1.1-1.4l-0.9,0l-0.5-0.7
	l-0.4,0.3l-0.2-0.5l-1.2,0.7l-2,0.3l-2.4-0.9l-0.5-0.8l-0.8,0.2l-0.8-1.2l-1.4,0.2l-0.4,1l-1.1-0.4l0,0l-0.4-1.2l0.7,0.1l0.7-1
	l-1-0.7l-0.2,0.4l-2-0.3l-0.2,1.1l-1.2-0.2l0.1,0.9l-0.5,0.3l-0.3-1.2l-1.4,0.3l-0.9-0.6l-0.2,0.8l-2.9-1.1l-0.7,0.5l-0.1,0.8
	l-2.3,1.1l-1.8,0.3l-0.5-0.6l-0.4,1.4l0.3,0.5l-0.9,0.5l0.3-0.5l-0.7,0l0.2-1.1l-0.4-1.1l4.7-2.5l1.8-0.3l0.4-0.8l-0.6-0.2l-0.1,0.7
	l-0.4,0l-0.6-1.2l-1,0.8l-1.5-0.5l0.2-1l-0.9,0.3l-0.5-0.7l1.9-0.7l0.3-1.1l1-0.2l0.4-0.6l-0.7-0.4l0.1-0.5l-1.1-1.4l0.5-1l-0.8,0.4
	l-1.6-1.3l-1.4-0.4l-0.4-0.6l0.3-0.9l-0.7-0.4l-0.3-0.9l-1-0.3l-0.1-1l0.4-0.5l-0.8-0.4l0.7-1l-0.1-1L191,231l0.1-1.6l-0.6-0.4l0,0
	l1.3-1.2l1.5,0l0-0.9l1,0.3l0.2-1.1l1.1,0l0.4-0.6l-0.6-0.2l0.5-0.6l-1.2-1.2l-0.2-1l0.2-0.5l0.3,0.2l0.1-1.5l1-0.5l-1.1-0.1
	l-0.1-0.6l0.6,0.2l-0.1-0.7l0.5-0.4l-1.5-0.5l0.5-0.3l0.1-0.6l-0.7-0.7l0.6-0.5l-0.4-1.3l-2.9-2.3l0,0l-0.9-1.4l0.9-1l-0.5-0.8
	l0.3-1.7l-0.8,0.1l-1.3-1.8l-0.6-0.2l0.4-1l-0.6-0.8l0,0l-0.1-0.5l0.8-0.3l-0.6-1.2l0.5-1.2l-1.9-2.4l0.4-1.8l-0.3-1l0.4-0.4
	l-0.3-0.7l0.5-1.5l-0.7-0.3l-0.1-0.6l0.6-0.3l-0.4-0.5l0.3-0.8l-1.1-2.2l0.5-0.5l-0.5-1.1l1.2-2.5l-0.6-1.6l0.7-0.5l0.6-2.7l1.7-2.3
	l0.2-1.1l3-1.4l-0.3-0.3l0.5-1.2l1-0.5l1.1-2.3l0.9-0.7l0.5-1.4l-0.4-0.3l0,0L196.6,167z"/>
<path id="IN-UT" class="st0" d="M230.7,143.9l1.1,1.4l-0.3,1l0.8,0.6l0.3,1.5l0.8,1l1.2,0.3l0.7,2l1.8,0l0.6,1.6l1.2,0.8l1.4-1
	l1.1,0.1l0.8-0.6l1.3,0.7l1,0l1.3,2.1l2.7,1.2l1.2,1.6l1.1-0.8l0.7,1.2l0.7,0l0.3,0.7l-0.4,1l-0.8,0.7l0.6,0.6l0.1,1.6l1.9,0.3
	l1.3,1l0.7-0.1l2.6,1.9l1.2-0.8l3.2,2.2l1.5,1.9l4.4,1.6l0,0.4l-0.6-0.2l-1.6,0.6l-1,1.3l0.3,1l-2.4,1.9l-0.3,1l-1.5,1.2l-1.5,0
	l-1.1,2.6l-1.2,1.2l-1.2-0.2l-1.4,1.3l0.3,1.8l0.8,0.9l-0.3,1.1l-0.6,0.8l-0.8,0.2l0.1,0.8l-1.3,1l0.3,0.6l-1.2,0.2l0,0.8l0.7,0.5
	l0.1,1.1l0.8,0.8l-0.4,2.6l-1-0.4l0.5,1.9l-0.8,0.6l-1-0.5l-0.8,0.8l-0.2,2.3l-0.4,0.6l-0.4-0.1l-0.9,1.7l0.3,2.1l0,0l-1,0.7
	l0.3,0.4l-0.6,1.1l-1,0.5l-1-0.4l-0.7-1.3l0.3-0.4l-1.3-0.2l0.7-0.2l-0.5-0.6l-0.6,0l-0.2,0.8l-0.7,0.2l0.5-1.4l-0.7-0.7l-1.3,0.3
	l-1,0.8l-1.1-0.5l-1.3,0.5l-0.3-1.1l-0.6,0.7l-2,0.2l-0.2-1.8l-0.5-0.1l-0.4-0.8l-0.2,0.4l-1.1,0l-2-1.8l-1,0.1l0.1-0.7l-0.6-0.4
	l-0.1-1.4l-2.2-1l-0.2,1.3l-1.1-1.2l-0.4,0.4l-0.9,0l0-1.2l-1-1.4l-1.1,0.1l-1.8-1.4l0.9-0.8l0.7,0.5l0.4-1.3l0.4,0.4l0.9-0.6
	l1.1-1.5l-2.9-0.5l-3.8-2.1l-1.6-1.5l-0.8-2.8l-1.6-0.7l-1.7-0.6l-2.1,2.2l-0.8-0.1l-1.1,0.8l-1.2,1.8l-0.8,0.2l-0.1,1l-1,0.2
	l-0.1-1l-0.8-0.1l0.1-0.6l0.5,0l-0.5-2.2l-1.6,0.1l-0.9,0.8l-0.8-0.3l0.1-0.4l-0.8-0.4l0.1-1.7l-1.3-2.1l0.6-1l-0.3-0.5l0.6-0.8
	l-0.3-0.5l0.9-0.9l-0.3-0.5l0.6-1.2l0.6,0.2l0.5-0.5l1.9-3.2l-4.6-2.2l-1.6-1.7l-1.5,0.2l0,0l0.4-0.6l2.1-0.5l2.5-1.4l0.2-0.5
	l-0.2-0.7l-0.9,0l-0.7-0.9l1.1-0.5l-0.1-1.1l-1-0.5l0.2-0.6l-1.1-1.4l1.2-1.5l0-1.2l0.9,0.5l0.1-1.6l-1,0l-0.2-0.9l0.6-0.4l1.1,0.6
	l-0.4-0.4l0.6-0.9l-0.5-1.3l0.9-0.5l0.9-1.8l1.4-0.6l1.2,0.6l0.3-0.7l1.2-0.1l1.3-1l1.8-0.1l0.8-0.9l0.5,0.1l0.1-0.5l1.2-0.1
	l0.9,1.1l0.5-0.3l0.5,0.4l0.5,1l1.4-0.1l1.2-0.7l0.8,0.4l0.3,0.7l3.1-0.3l0.5,1.4l1.1,1l2.6-0.2l-0.5-1.5l-1.2-1.1l-0.2-0.8l0,0
	l0.4-1.8l1.4-0.8l1.2-2.6l1.7,0.8L230.7,143.9z"/>
<path id="IN-WB" class="st0" d="M425.5,371.2l0.6,0.6l0.1,0.7l-1-0.3L425.5,371.2z M432.5,371.1l1.4,1.1l-1.3,0L432.5,371.1z
	 M430.2,370.6l0.6,0.5l-0.3,0.7l-0.6-0.5L430.2,370.6L430.2,370.6z M426.3,370.4l1.1,0.8l-0.8,0.9l-0.8-0.9l0.3-1.1L426.3,370.4z
	 M431.2,370l0.5,1.4l-1,0.3l0.3-0.6l-0.5-0.6L431.2,370z M435.3,370.3l0.4,0.5l-0.6,0.1l-0.1-1.1L435.3,370.3L435.3,370.3z
	 M427.5,369.5l0,1.3l-0.8-0.5L427.5,369.5L427.5,369.5z M435.7,368.9l0.1,0.9l0.5,0.4l0.3,1l-0.6,0.1l0-0.6l-0.6-0.5L435,369
	L435.7,368.9L435.7,368.9z M431.9,369.1l-0.2,0.9l-0.8-0.5L431.9,369.1L431.9,369.1z M421.6,368.9l0.7,0.4l0.3,0.9l-0.9,0.9
	L421.6,368.9z M424.6,368.8l0.3,0.8l-0.5,1.1l-0.3-1.1L424.6,368.8z M419.3,368.5l0.3,0.5l-0.2,0.4l0.3,0.4l0.1,0.5l-0.2,0.9
	l-0.6-1.9L419.3,368.5L419.3,368.5z M437.2,368.5l0.7,1.7l-0.9,0.6l-1.1-1.4l0.2-0.6L437.2,368.5L437.2,368.5z M426.5,368.6l0.6-0.1
	l0.3,0.7l-1,1l-0.5-1.2L426.5,368.6z M433.5,368l1.2,1.1l-0.4,1.4l-1-1.4L433.5,368L433.5,368z M423.7,368.3l0.3,0.7l-0.4,1l0.4,0.7
	l-0.7,0.7l-0.4-1.9l0.5-0.8l-0.5-0.3l0.3-0.5L423.7,368.3z M419.6,367.9l1,0.2l0.7,1.6l-0.3,1.5l0.4,0.5l-0.6,0.5l-0.7-0.2
	L419.6,367.9L419.6,367.9z M434.6,367.7l0.8,0.9l-0.9-0.2L434.6,367.7z M422.8,367.7l-0.1,0.8l0.4,0.4l-0.5,0.4l-0.2-1.4
	L422.8,367.7L422.8,367.7z M436.3,367.7l0.8,0.6l-0.5,0.3L436.3,367.7L436.3,367.7z M432.5,367.7l0.6,0l-0.5,1.2l0.4,1.6l-0.3,0.2
	l-0.7-0.3l0.1-1.6l-0.8,0.1l0.4-0.9L432.5,367.7z M427.2,367.3l0.8,1.1l-0.3,0.8l-0.6-1.3L427.2,367.3z M435.5,367.1l0.8,1.3
	l-0.2,0.2l-1.1-1.2L435.5,367.1z M427.8,367l0.2,0.9l-0.4-0.3l-0.2-0.5L427.8,367z M424.9,367l0,1.2l-0.7,0.4l0.1-1.1L424.9,367
	L424.9,367z M430,366.6l0.9,1.1l-0.1,0.6l0.3,0.1l-0.1,0.7l-0.7,0.1l0.4,0.6l-1.3-0.4l0.2-1.5L430,366.6L430,366.6z M426.5,366.5
	l0.6,0.5l0,1.2l-1.1,0.4l-0.3-1.2L426.5,366.5L426.5,366.5z M423.9,366.5l0.4,0.3l-0.4,1.3l-0.5-1L423.9,366.5L423.9,366.5z
	 M436,366.5l0.4,0l0.1,1.1l-0.7-0.6L436,366.5L436,366.5z M432.4,366.7l0,0.8l-0.8,0.4l0.6-1.6L432.4,366.7z M434.8,365.7l0.7,0.6
	l-0.3,0.7l-1,0.4l-0.3-0.9L434.8,365.7z M427.4,365.6l0.3,0.4l-0.1,0.7l-0.6-0.4L427.4,365.6L427.4,365.6z M422,365.8l0.5,1.1
	l0.5,0.1l-0.1,0.4l-0.7,0.2l-0.2,0.8l-0.8-0.2l-0.4-1.5L422,365.8L422,365.8z M433,365.3l0.4,0.3l0.7,2.6l-1.4-1.2L433,365.3z
	 M417.9,365.1l0.7,1.4l0,1.6l-0.6,1.4l0.2,0.7l-1,0.5l-1.4-0.5l-0.1-0.6l0.8-2.4L417.9,365.1L417.9,365.1z M431.6,365.5l0.7-0.8
	l0.4,0.4l-1.1,1.5l-0.2-0.8L431.6,365.5L431.6,365.5z M435.5,364.7l1,0.6l-0.3,0.9l-1.3-0.4L435.5,364.7L435.5,364.7z M428.1,364.6
	l0.7,0.7l-0.3,1.9l-0.8-1.8L428.1,364.6z M426.8,364.6l0.3,0.4l-0.4,1.2l-0.3-0.5L426.8,364.6L426.8,364.6z M424.4,364.4l0.7,0.4
	l0.2,0.7l-0.9,0.9l-0.9,0l0.4-1.7L424.4,364.4z M430,364.5l0.7,0.1l0.7,0.8l-0.5,1.8l-1.3-1.3L430,364.5z M428.4,364l0.6,0.2
	l-0.4,0.5L428.4,364z M432.6,364.1l1.6-0.2l1.1,0.6L435,365l-1,0.8L432.6,364.1L432.6,364.1z M430.2,363.8l1.6,0.3l0.2,0.8l-0.4,0.4
	l-0.4-0.8l-1.1-0.2L430.2,363.8L430.2,363.8z M430.7,362.7l0.1,0.6l0.7,0.1l0.2,0.3l-1-0.1l-0.4-0.8L430.7,362.7L430.7,362.7z
	 M428.9,361.8l1.2,0.4l-0.8,1.3l-1-0.3L428.9,361.8z M418,361.7l-1.1,2.1l-0.8,0.5l0.5-1.9L418,361.7L418,361.7z M432.1,361.8
	l1.9,0.2l-0.1,1.7l-0.9,0.2l-2-0.9l0.3-1L432.1,361.8L432.1,361.8z M436.8,361.2l0.8,1.4l-0.3,1.2l-0.6,0.2l-1.1-2.1l0.1-0.8
	L436.8,361.2L436.8,361.2z M433.3,360.5l0.3,1l-1.9-0.3L433.3,360.5z M432.7,359.9l0.3,0.4l-1.3,0.4l-0.2,0.5l-0.5-0.1l0.5-1.2
	l0.8-0.3L432.7,359.9z M433,358l1.2,2.3l-0.9,0.1l-0.9-0.9l0.9-0.3l-0.7-1.2L433,358L433,358z M435.1,358.2l0.6,0.8l-0.4,1.3
	l-0.8,0.6l0,0.9l0.5,0.5l-0.2-1.2l0.6,0l0.2,1.6l1,1.5l-0.2,0.4l-1.6-0.8l-0.5-1.3l-0.2-1.6l0.6-0.7l-0.8-1.6l0.5,0.2L435.1,358.2
	L435.1,358.2z M436,357.8l1,1.5l-0.3,1.5l-1.5-0.2l0.6-1.5l-0.5-1.2L436,357.8z M429.6,357.8l2,0.7l-2.2,2l1.1,1.1l-0.2,0.5
	l-1.4-0.5l-0.6-1.7L429.6,357.8L429.6,357.8z M432.9,358.9l-1.6,0.9l-0.8,1.2l-0.3,0l-0.4-0.5l2.3-2.1l0.4-0.1L432.9,358.9z
	 M434.9,357.2l0.3,0.6l-0.6,0.5l-0.1-0.4l0-0.5L434.9,357.2L434.9,357.2z M432.1,355.9l0.3,0.9l-0.6,0.3l0.5,0.9l-0.7,0.1l-0.9-0.6
	l0.1-0.5L432.1,355.9L432.1,355.9z M432.7,354.5l1.1,0.1l0.4,0.8l0.5,0.1l0.2,1.4l-0.9,0.4l0.2,1.1l-2.1-1.1l0.5-0.3l-0.3-2
	L432.7,354.5L432.7,354.5z M435.7,353.7l0,1.3l0.8,0.6l-0.6,0.3l1.5,2l0,1.1l0.6-0.2l-0.7,0.6l-0.9-1.7l-1-0.1l-0.4-1.1l0.4-3.2
	L435.7,353.7L435.7,353.7z M433.8,350.2l0,1.6l0.6,1.4l-0.7,0.5l-0.5-2.9L433.8,350.2L433.8,350.2z M434.6,349.7l0.5,0.2l0.8,2.7
	l-0.8,0.4l-0.4,2.3l-0.7-0.6l0-0.9l0.5-0.4l-0.6-1.6l0-1.9L434.6,349.7L434.6,349.7z M415.4,242.7l1.2,0.4l0.2,1.4l1.1,0.6l1.2-0.5
	l0.8,0.4l1.5-0.2l0.4,0.6l2.3,0.5l2.1-1.6l-0.2-0.7l0.8-0.2l1.3,0l0.8,0.6l0.6-0.4l0.8,1l0.6-0.2l0,0l2.5,0.9l0.1,3.7l0.9-1l0.7,0.7
	l-0.3,0.6l0.5,0.4l1.3-0.4l0.5,0.9l0.9,0.2l0.2,1.3l0.6,0.7l2.6-0.2l2.5-1.2l0.3,0.6l1.2,0.2l0.2,0.6l2.1-0.2l1.3,0.9l0.5-0.1
	l0.2,0.4l-0.9,0.8l0.4,0.2l0.6,0l0.3-0.5l1.1,0.4l0.6-0.3l0.4,0.9l0.7-0.4l1,0.3l0,0l0.4,1.3l-0.4,0.6l0.4,0.9l-0.3,0.1l-0.2,2.1
	l0.4,0.6l-0.9,1.5l0.4-0.1l0.2,0.4l-1.6,0.7l0,0.5l-0.6,0.2l0.2,0.7L451,264l0.4,0.8l-0.3,0.3l-0.4-0.3l0.5,0.7l-0.7,0.5l0.7,0.1
	l-0.8,0.5l0.8,0.3l-0.3,0.2l0,0l-0.4-0.1l-0.5-0.8l-0.1-0.4l-0.7-0.2l0.5,1.2L449,267l-0.1,0.6l-0.4-0.1l0.8,0.9l-0.8,0.4l0.3,0.3
	l0.4-0.4l0.4,1l-1.5,0.9l0,1.3l-0.8-0.1l0-0.8l-2.2-0.1L445,270l-0.7,0.9l-1-0.1l-1.5-0.9l0-0.4l-0.5,0l0.2-0.6l-0.9-0.7l-1.4-0.4
	l-0.5-1l0.1-1.3l-0.8-1.1l0.8-0.9l-1.1,0l0.3-0.4l-0.4-0.6l0.1-0.8l-1.1,0l-1.6-1.5l-0.3,0.8l-0.4-0.2l-0.5,0.6l0.2,1l0.9,0.1
	l0.1,0.3l0.5,0l0.3,0.5l-0.3,0.6l0.9,0.4l0.7-0.2l0.1,0.9l-2.1,0.3l-0.7-1.1l-1-0.1l-0.4,0.3l0.4,0.9l-0.8,0.1l-0.6-0.6l0-1
	l-0.5-0.3l-0.8,0.3l-0.3-1.2l-0.9,0.4l-0.5-1.1l0.4-0.2l-1.6-1.1l-0.1-0.8l-0.5,0l0,0.5l-0.8-0.2l0.1-0.7l-0.7,0.2l-0.9-1.4
	l-1.1-0.1l-0.4-2l-0.8,0.9l-0.9,2.7l0.4,0.7l0.2-1l2.4,0.6l0.9,2.4l-0.8,0.2l-0.6-0.6l-0.4,0.9l-0.7,0.2l0.2,0.3l-1.3,0.8l0,1.4
	l-2.1,0.7l-1.5,1l-0.4,1.6l0.5,0.2l-0.3,0.9l0.3,0.2l-0.9,0.3l-1.2,2.3l0.5,0.5l0.2,2.1l0.7,0.5l0.7-0.6l0.5,0.3l1.3-0.5l0,0.7
	l2.2,1.6l0.6,1l1,0.2l-0.2,1.5l1.1,0.4l-0.1,0.5l1.7,1.2l0.7-0.2l0.8,0.8l1,0.2l0.3-0.6l1.2,0.1l-0.1-0.7l1,0l0.6,1.2l-0.5,1.4
	l0.6,0.4l0,0.7l0.9,0.9l0.4-0.3l0.4,0.7l1.8,0.3l-1.1,0.8l0,0.9l-0.5,0l0.3,0.8l-0.5,0.4l-1.6-1l-0.9,0.9l-0.6-0.4l-0.4,0.3
	l-0.9-0.7l-1.9,0.1l-1.1,0.7l-1.4-0.8l-1.1,0.4l0.4,1.2l-0.4,0.4l0.2,1.1l-0.3,0.7l0.4,0.3l-1.2,1.5l0.1,0.5l-1.3,0.2l-0.3,0.7
	l0.5,0.4l-0.5,0.6l-1-0.7l-0.3,0.5l0-1l-0.7-0.9l-1.8,0.5l0.8,1.7l-0.6,0.2l-0.2,1l-0.3-0.4l-0.3,1l-0.7,0.2l-0.1,1.1l-1.1,1.3
	l2.9,3.7l1.1,1l1.6,0.5l1.2,1.3l2.4,0.1l1.7,0.8l0.6,1.1l0.3-0.7l0.4,0l0.9,0.5l1.5-0.1l0.7,0.8l-0.1,1.8l-0.7,0.7l0.2,1.1l-0.3,0.1
	l0.1,0.4l0.5,0l0,2.3l0.7-0.3l0.3,0.5l-0.8,0.2l-0.1,1.5l-0.6,0l-0.9,1l-1.7,0.2l0.5,1l-0.9,0.7l0.4,0.5l-0.4,2.8l0.6,0.1l-0.2,0.8
	l1.3-0.2l0.3,1.3l1.8,1.6l1.2-0.3l-0.2,1.2l-0.5,0l-0.2,0.5l0.1,1.3l-0.6,0.4l0.3,0.8l-1,0.3l0.5,1l1.6,0.8l0.4,0l0.1-0.8l0.7,0.6
	l1.3-0.1l0.1,0.5l1.6-0.1l-0.3,0.7l-0.4-0.2l-0.9,1.4l-1.1,0.7l0.1,2.1l-0.6,0l0.4,0.3l-0.1,0.8l0.7,0.1l0.4,0.7l-0.1,0.9l0.8,0
	l0.5,0.8l-0.2,1.1l-0.8,0.7l0.8,1.6l-0.6,1.6l0.5,0.2l-0.4,0.9l-1.4,0.5l-0.5,0.9l0.3,0.6l-0.3,2.1l0.6,0.7l-1.2-0.2l-0.4,1.7
	l-1.2,1.1l-0.1,0.7l-1.1-0.1l-1.3,2.3l0.4,1.4l-0.8,1.6l0.2,1.4l-0.6,0.5l-0.1-0.4l-0.7,0.1l-0.3,1.1l-0.7-0.6l0.7-1.1l-2.2,0.5
	l-0.5,0.5l-0.1,1.9l-0.6,0l-0.2-1.3l-0.8,0.2l-1.1,0.9l0.3,1.2l-1.2-0.2l-1.1-2.6l0.3-1l-0.5-0.7l1.1-1.4l0.3-1.2l-0.4-2.1l-0.8-0.7
	l-2-0.3l0.7-2.1l-1.2,1.9l-1.3-0.6l-0.5-0.9l-0.3-2.7l-0.5-0.6l-0.8-0.1l1.2,1.7l0,2.4l1.4,1.3l2.7,0.4l1.1,1.9l-2.7,1.9l-0.2,0.1
	l-1.5,3.4l-1.1,1.3l-0.8,0.2l-2.1,2.2l-0.8-0.1l-1.3,0.9l-4.3,1.1l0,0l-0.5-0.8l0.3-1.4l-0.6-0.5l0-0.7l-1.5,0l-0.4-0.6l-1.9-0.6
	l-0.6-3.2l-1.4-0.4l-0.2,1l-1.4,0.5l0,1.1l-1.3-0.1l-0.7-0.9l0.8-1.8l-0.4-1.2l-1.3-0.9l-2.6-0.3l-0.9-1.3l-1.6,0.2l0.2-1.6l0,0
	l0.9,0.1l0.2-0.1l0.5,0l0.2-0.5l0-0.6l0.1,0.3l1.5-0.1l0-0.9l-1.2-0.7l0.3-1.6l-1.7-0.7l-0.4-1.1l0.9,0l0.2-0.5l-0.8-1.7l-2.3-0.1
	l-0.7-2.2l-1.6-1.1l-0.7,0.4l-1.9-1.7l0.3-1.9l0.6-0.8l-0.6-0.6l0.8-0.6l0.3,0.3l0.7-0.2l0.5-1l-0.6,0.5l-0.3-0.5l-1.7-0.1l-0.5,0.5
	l-2-0.9l-1.8,0.5l-1.3-1.1l-0.3-1l-1.9-0.6l-0.2-0.8l-2.6,0.3l-1.2-1.5l-0.5,0l-0.1-1.5l1.1-1.4l-0.2-0.9l0.6-0.1l-0.7-0.9l0.1-1.4
	l1.6,0.4l2.2-0.9l-0.8-1.3l0.8-0.7l2,0.4l0,2.1l1.6,0.4l0.4-0.3l-0.3,0.8l0.4,0.4l0.7-0.5l0.5,0.5l0.3-0.2l-0.3-0.4l1.5-0.9
	l-0.4-0.3l0.1-1.1l0.5-0.9l1.2-0.6l0-0.5l1.9,0l1.3-1l2.1-0.5l0.8,0l0.1,0.4l1.1-0.2l0.6-1.7l-0.6-1.6l0.6,0.5l1.1-0.7l0.1-0.4
	l0.4-0.4l0.9,0.8l0.6-0.5l3.3,1.6l0.5,0l0.4-0.6l-0.7-1.1l1.4,0.3l-0.1,0.3l0.6,0.2l0.5,0.1l0.1-1.8l0.5,0.8l0.5-0.6l-0.1-1.3
	l-0.6-0.2l-0.5-1.7l2,0.2l-0.4,0.6l0.3,0.2l0.6-0.3l2.1,0.6l-0.5-0.6l1-0.1l0.6-0.6l-0.4-0.3l0-1.4l1.7,0.7l-0.1-0.5l0.8-0.5
	l-0.8-0.6l2.5,0.1l0.1-0.8l-1.1-0.6l0-0.7l1-0.1l0.6-1l1-0.3l1.1-2.4l-0.5-0.2l0.8-1.8l-0.3-0.4l-0.2,0.4l0.2-1.2l-0.8-0.8l1.6,0.7
	l0.8-0.3l0.5-0.7l-0.8-0.4l0.6,0l-0.4-0.3l0.6-0.7l-0.6-0.4l0.3-1.1l-1.3-0.4l-0.5-0.6l0.4-0.5l0,0.6l0.4,0l0.5-0.7l-0.2-0.7l0.6,0
	l-0.2-0.7l1.8-1l-0.1-0.8l-1.9-2.3l-2.1-1.5l0.2-3l0,0l1,0.5l-0.3-0.8l0.7-1l-1.5-1.3l0.1-0.9l-0.5-0.1l-0.1-0.6l0.5-0.9l0.6,0.2
	l0.5-0.7l0.6,0l0.3-1.2l0.4,0.3l0.6-0.7l1.3,0.3l0,0.5l0.4,0.2l0.1-0.4l0.4,0.6l0.9,0.1l0.1-0.5l-0.8-0.8l-0.3-1.2l0.7-1.1l-0.4-0.1
	l0.3-1.2l-1.8-0.8l-0.6-1.1l-0.7,0l0.3-1l-0.6-0.3l0.6-0.5l-1.8-0.5l-0.4-0.9l0.5-0.5l0.3-2.5l1.5-1.1l0.4,0.5l0.1-0.4l0.6,0.1
	l-0.1-1.6l1,0.3l0.5-0.9l0.7,0l1.6-1.8l1.5-0.7l1.6-1.7l-0.5-0.6l-0.6,0.1l-0.1-0.4l0.8-0.6l-0.8-0.6l-0.1-0.7l-0.7,0.1l-0.3-0.4
	l1.1-1l0-0.5l-1.3,0.3l-0.5,0.6l-0.8-0.6l0,0l0,0l0,0l0-0.1l0,0l1.2-2.3l0.6-3.1l-0.3-2.2l-0.8-0.8l0.2-0.5l-0.5-0.7l0.3-0.8
	l-0.9-0.4l-0.3-0.7l-0.8,0l-0.3-1.2l-0.6-0.4l0.6-1.5L415.4,242.7L415.4,242.7z"/>
</svg>
