<?xml version="1.0" encoding="utf-8"?>
<!-- Generator: Adobe Illustrator 23.0.3, SVG Export Plug-In . SVG Version: 6.00 Build 0)  -->
<svg version="1.1" id="Layer_1" xmlns="http://www.w3.org/2000/svg" xmlns:xlink="http://www.w3.org/1999/xlink" x="0px" y="0px"
	 viewBox="0 0 275.2 168.3" style="enable-background:new 0 0 275.2 168.3;" xml:space="preserve">
<style type="text/css">
	.st0{fill:#FFFFFF;}
</style>
<title>Asset 1</title>
<g>
	<g id="Layer_1-2">
		<path d="M273.2,168.3H1.9c-1.1,0-1.9-0.9-1.9-1.9c0,0,0,0,0,0v-27.4c0-1.1,0.9-1.9,1.9-1.9h271.3c1.1,0,1.9,0.9,1.9,1.9l0,0v27.4
			C275.2,167.4,274.3,168.3,273.2,168.3C273.2,168.3,273.2,168.3,273.2,168.3"/>
		<path class="st0" d="M41.2,155.5c0,1.2-0.4,2.3-1.2,3.2c-0.8,0.8-1.9,1.2-3,1.1c-1.2,0-2.3-0.5-3-1.5c-0.8-1.2-1.2-2.6-1.1-4V152
			c-0.1-1.4,0.3-2.8,1.1-4c0.8-1,1.9-1.5,3.2-1.5c1.1-0.1,2.1,0.3,2.9,1.1c0.7,0.9,1.1,2,1.1,3.2h-1.6c0-0.8-0.2-1.6-0.7-2.2
			c-0.4-0.5-1.1-0.7-1.7-0.7c-0.8,0-1.6,0.3-2,1c-0.5,0.9-0.8,2-0.7,3v2.4c-0.1,1,0.2,2.1,0.7,3c0.4,0.7,1.1,1,1.9,1
			c0.7,0.1,1.3-0.2,1.8-0.6c0.5-0.7,0.7-1.4,0.7-2.3L41.2,155.5z"/>
		<path class="st0" d="M69.8,154.3c0.1,1.4-0.3,2.9-1.1,4.1c-1.6,1.7-4.3,1.9-6,0.3c-0.1-0.1-0.2-0.2-0.3-0.3
			c-0.8-1.1-1.3-2.5-1.2-3.9V152c-0.1-1.4,0.3-2.8,1.1-4c0.8-1,1.9-1.5,3.2-1.5c1.2-0.1,2.4,0.5,3.2,1.4c0.8,1.2,1.2,2.6,1.2,4
			V154.3z M68.2,152c0.1-1-0.2-2.1-0.7-3c-0.5-0.7-1.2-1.1-2.1-1c-0.8,0-1.6,0.3-2,1c-0.5,0.9-0.8,2-0.7,3v2.3c-0.1,1,0.2,2.1,0.7,3
			c0.9,1.1,2.5,1.3,3.6,0.5c0.1-0.1,0.3-0.2,0.4-0.4c0.5-0.9,0.7-1.9,0.7-2.9L68.2,152z"/>
		<path class="st0" d="M98.8,159.6h-1.6l-5.1-9.9v9.9h-1.6v-12.8H92l5.2,9.9v-9.9h1.6V159.6z"/>
		<path class="st0" d="M127.7,155.5c0,1.2-0.4,2.3-1.2,3.2c-0.8,0.8-1.9,1.2-3,1.1c-1.2,0-2.3-0.5-3.1-1.5c-0.8-1.2-1.2-2.6-1.1-4
			V152c-0.1-1.4,0.3-2.8,1.2-4c0.8-1,2-1.5,3.2-1.5c1.1-0.1,2.1,0.3,2.9,1.1c0.7,0.9,1.1,2,1.1,3.2H126c0-0.8-0.2-1.6-0.7-2.2
			c-0.4-0.5-1.1-0.7-1.7-0.7c-0.8,0-1.6,0.3-2,1c-0.5,0.9-0.8,2-0.7,3v2.4c-0.1,1,0.2,2.1,0.7,3c0.4,0.7,1.1,1,1.9,1
			c0.7,0.1,1.3-0.2,1.8-0.6c0.5-0.7,0.7-1.4,0.7-2.3L127.7,155.5z"/>
		<path class="st0" d="M149.5,158.2h5v1.4h-6.7v-12.8h1.6L149.5,158.2z"/>
		<path class="st0" d="M180.7,156.2h-4.3l-1,3.4h-1.7l4.1-12.8h1.4l4.1,12.8h-1.7L180.7,156.2z M176.8,154.8h3.5l-1.8-5.8
			L176.8,154.8z"/>
		<path class="st0" d="M206.1,157.1l2.9-10.4h1.8l-4,12.8h-1.4l-4-12.8h1.8L206.1,157.1z"/>
		<path class="st0" d="M236.7,153.6h-4.5v4.6h5.3v1.4h-6.9v-12.8h6.8v1.4h-5.2v4.1h4.5V153.6z"/>
		<rect x="108" y="23.4" width="12.1" height="96.6"/>
		<path d="M202,89.2c-0.5,10.4-3.4,18.3-8.7,23.8s-12.8,8.3-22.4,8.3c-9.7,0-17.4-3.7-23.1-11s-8.6-17.3-8.6-29.9V62.8
			c0-12.6,2.9-22.5,8.8-29.8c5.9-7.3,13.9-10.9,24-10.9c9.3,0,16.6,2.8,21.7,8.4c5.1,5.6,7.9,13.6,8.3,24h-12.3
			c-0.5-7.9-2.2-13.5-5-16.8s-7-5-12.7-5c-6.6,0-11.7,2.6-15.2,7.7c-3.5,5.2-5.3,12.7-5.3,22.6v17.6c0,9.8,1.6,17.3,4.9,22.5
			c3,5.1,8.5,8.1,14.4,7.8c6.3,0,10.9-1.6,13.7-4.7s4.5-8.8,5.2-16.9L202,89.2z"/>
		<polygon points="264.7,75.3 230.6,75.3 230.6,109.5 270.4,109.5 270.4,119.9 218.4,119.9 218.4,23.4 269.7,23.4 269.7,33.8 
			230.6,33.8 230.6,64.9 264.7,64.9 		"/>
		<polygon points="70.9,23.4 45.7,102.2 29.1,50.3 23.9,34 20.5,23.4 4.8,23.4 4.8,34 4.8,50.3 4.8,119.9 17,119.9 17,82.3 16,50.3 
			16,45.1 17.6,50.3 41,119.9 50.3,119.9 75.5,44.7 74.4,82.3 74.4,119.9 86.5,119.9 86.5,23.4 		"/>
		<path d="M4.4,1.2c1.2-0.4,2.4-0.6,3.7-0.6c1-0.1,2,0.2,2.9,0.8c0.7,0.6,1,1.5,0.9,2.4c0,0.4-0.1,0.9-0.3,1.3
			c-0.1,0.3-0.3,0.6-0.6,0.8c-0.2,0.2-0.5,0.4-0.7,0.6c0.5,0.2,1,0.6,1.4,1c0.3,0.5,0.5,1.1,0.4,1.7c0.1,1-0.3,2.1-1,2.8
			c-0.8,0.7-1.9,1-3,0.9c-0.6,0-1.2,0-1.8-0.1c-0.7-0.1-1.2-0.2-1.6-0.3l-0.6-0.1l0.2-1.6c1.2,0.2,2.3,0.4,3.5,0.4
			c1.4,0,2.2-0.7,2.2-1.9c0-0.5-0.2-1-0.6-1.3C9.1,7.7,8.6,7.5,8,7.5H5.6V5.9h2.4c0.5,0,0.9-0.2,1.2-0.6C9.7,5,9.9,4.5,9.9,4
			c0-0.4-0.2-0.9-0.5-1.2C9,2.5,8.5,2.4,8,2.4c-1,0-2,0.1-3,0.3L4.5,2.8L4.4,1.2z"/>
		<path d="M14.7,12.8v-9h2v1c0.9-0.6,2-1.1,3.1-1.3v2C18.9,5.7,18,6,17.1,6.4l-0.4,0.2v6.3L14.7,12.8z"/>
		<path d="M28.7,0v12.8h-1.9v-0.5C26,12.8,25.2,13,24.4,13c-1,0.1-1.9-0.3-2.6-1c-0.6-1.1-0.9-2.3-0.8-3.6c-0.1-1.3,0.2-2.6,0.9-3.7
			c0.7-0.8,1.8-1.2,2.9-1.1c0.7,0,1.4,0.1,2.1,0.2V0H28.7z M26.5,10.9l0.3-0.1V5.4c-0.7-0.1-1.3-0.2-2-0.2c-1.2,0-1.8,1-1.8,3
			c-0.1,0.8,0.1,1.6,0.4,2.3c0.3,0.4,0.8,0.7,1.4,0.6C25.3,11.2,25.9,11.1,26.5,10.9z"/>
		<path d="M35.7,12.8V0.4h7.8v1.8h-5.8v3.5h4.7v1.7h-4.7V11h5.8v1.8H35.7z"/>
		<path d="M52.9,0v12.8H51v-0.5c-0.7,0.4-1.6,0.6-2.4,0.7c-1,0.1-2-0.3-2.6-1c-0.6-1.1-0.9-2.3-0.8-3.6C45,7.1,45.3,5.8,46,4.7
			c0.7-0.8,1.8-1.2,2.8-1.1c0.7,0,1.4,0.1,2.1,0.2V0H52.9z M50.6,10.9l0.3-0.1V5.4c-0.7-0.1-1.3-0.2-2-0.2c-1.2,0-1.8,1-1.8,3
			c-0.1,0.8,0.1,1.6,0.4,2.3c0.3,0.4,0.8,0.7,1.3,0.6C49.5,11.2,50.1,11.1,50.6,10.9z"/>
		<path d="M55.5,2.2V0.1h2v2.1H55.5z M55.5,12.8v-9h2v9.1L55.5,12.8z"/>
		<path d="M64.9,5.4h-2.5v4c0,0.5,0,1,0.2,1.5c0.1,0.3,0.4,0.4,0.8,0.4l1.5-0.1l0.1,1.6c-0.6,0.1-1.2,0.2-1.8,0.2
			c-0.8,0.1-1.5-0.2-2.1-0.7c-0.5-0.8-0.7-1.7-0.6-2.7V5.4h-1.2V3.8h1.2V1.1h2v2.6h2.5L64.9,5.4z"/>
		<path d="M66.7,2.2V0.1h2v2.1H66.7z M66.7,12.8v-9h2v9.1L66.7,12.8z"/>
		<path d="M71.7,4.7c1.8-1.6,4.4-1.6,6.2,0c0.7,1,1,2.3,0.9,3.5c0.1,1.3-0.2,2.5-0.9,3.6c-0.8,0.9-2,1.3-3.1,1.2
			c-1.2,0.1-2.3-0.3-3.1-1.2c-0.7-1.1-1-2.3-0.9-3.6C70.7,7,71,5.8,71.7,4.7z M73.2,10.6c0.8,0.9,2.2,1,3.1,0.2
			c0.1-0.1,0.1-0.1,0.2-0.2c0.3-0.7,0.5-1.6,0.4-2.4c0.1-0.8-0.1-1.6-0.4-2.3C75.6,5,74.2,5,73.3,5.8c0,0-0.1,0.1-0.1,0.1
			c-0.4,0.7-0.5,1.5-0.4,2.3C72.7,9.1,72.8,9.9,73.2,10.6z"/>
		<path d="M82.9,12.8H81v-9h2v0.6c0.8-0.5,1.6-0.7,2.5-0.8c0.9-0.1,1.9,0.3,2.5,1c0.5,1.1,0.7,2.2,0.6,3.4v4.9h-2V8
			c0-0.7-0.1-1.4-0.3-2.1C86,5.5,85.5,5.3,85,5.3c-0.6,0-1.2,0.1-1.8,0.4L83,5.8L82.9,12.8z"/>
	</g>
</g>
</svg>
