<svg xmlns="http://www.w3.org/2000/svg" viewBox="0 0 275.17 168.3"><defs><style>.cls-1{fill:#fff;}.cls-2{fill:#1a1a1a;}</style></defs><title>Asset 1</title><g id="Layer_2" data-name="Layer 2"><g id="Layer_1-2" data-name="Layer 1"><path class="cls-1" d="M273.23,168.3H1.94A1.93,1.93,0,0,1,0,166.37V138.93A1.94,1.94,0,0,1,1.94,137H273.23a1.94,1.94,0,0,1,1.94,1.94v27.44a1.93,1.93,0,0,1-1.94,1.93"/><path class="cls-2" d="M41.21,155.49a4.75,4.75,0,0,1-1.16,3.16,3.92,3.92,0,0,1-3,1.1A3.67,3.67,0,0,1,34,158.28a6.34,6.34,0,0,1-1.14-4V152A6.15,6.15,0,0,1,34,148a3.87,3.87,0,0,1,3.18-1.46,3.66,3.66,0,0,1,2.88,1.12,4.86,4.86,0,0,1,1.11,3.18H39.58a4,4,0,0,0-.66-2.24,2.08,2.08,0,0,0-1.7-.67,2.28,2.28,0,0,0-2,1,5.23,5.23,0,0,0-.71,3v2.35a5.59,5.59,0,0,0,.66,3,2.1,2.1,0,0,0,1.92,1,2.29,2.29,0,0,0,1.81-.62,4,4,0,0,0,.69-2.25Z"/><path class="cls-2" d="M69.82,154.28a6.46,6.46,0,0,1-1.12,4.05,4.27,4.27,0,0,1-6.32,0,6.09,6.09,0,0,1-1.2-3.9v-2.42a6.43,6.43,0,0,1,1.14-4,3.81,3.81,0,0,1,3.17-1.46,3.86,3.86,0,0,1,3.17,1.4,6.34,6.34,0,0,1,1.16,4ZM68.2,152a5.54,5.54,0,0,0-.66-3,2.31,2.31,0,0,0-2.05-1,2.26,2.26,0,0,0-2,1,5.22,5.22,0,0,0-.69,3v2.3a5.42,5.42,0,0,0,.68,3,2.57,2.57,0,0,0,4,.08,5.35,5.35,0,0,0,.68-2.92Z"/><path class="cls-2" d="M98.76,159.57H97.14L92,149.68v9.89H90.38V146.73H92l5.16,9.94v-9.94h1.6Z"/><path class="cls-2" d="M127.66,155.49a4.75,4.75,0,0,1-1.16,3.16,4,4,0,0,1-3,1.1,3.68,3.68,0,0,1-3.07-1.47,6.34,6.34,0,0,1-1.14-4V152a6.15,6.15,0,0,1,1.17-4,3.87,3.87,0,0,1,3.19-1.46,3.69,3.69,0,0,1,2.88,1.12,4.86,4.86,0,0,1,1.11,3.18H126a4,4,0,0,0-.67-2.24,2.05,2.05,0,0,0-1.69-.67,2.29,2.29,0,0,0-2,1,5.31,5.31,0,0,0-.7,3v2.35a5.6,5.6,0,0,0,.65,3,2.12,2.12,0,0,0,1.92,1,2.32,2.32,0,0,0,1.82-.62,4,4,0,0,0,.69-2.25Z"/><path class="cls-2" d="M149.53,158.19h5v1.38h-6.66V146.73h1.62Z"/><path class="cls-2" d="M180.7,156.21h-4.33l-1,3.36h-1.66l4.14-12.84h1.38l4.15,12.84h-1.66Zm-3.91-1.38h3.5L178.54,149Z"/><path class="cls-2" d="M206.08,157.09,209,146.73h1.77l-4,12.84h-1.41l-4-12.84h1.76Z"/><path class="cls-2" d="M236.73,153.64h-4.54v4.55h5.29v1.38h-6.91V146.73h6.82v1.39h-5.2v4.13h4.54Z"/><rect class="cls-1" x="107.97" y="23.37" width="12.14" height="96.58"/><path class="cls-1" d="M202,89.24q-.79,15.53-8.72,23.78t-22.39,8.26q-14.52,0-23.08-11t-8.56-29.95V62.77q0-18.84,8.79-29.78t24-10.94q14,0,21.66,8.35t8.32,24H189.69q-.8-11.81-5-16.85t-12.73-5q-9.89,0-15.19,7.73t-5.31,22.65V80.55q0,14.67,4.94,22.49a16,16,0,0,0,14.43,7.83q9.48,0,13.67-4.71t5.17-16.92Z"/><polygon class="cls-1" points="264.71 75.31 230.55 75.31 230.55 109.54 270.35 109.54 270.35 119.95 218.41 119.95 218.41 23.37 269.69 23.37 269.69 33.79 230.55 33.79 230.55 64.9 264.71 64.9 264.71 75.31"/><polygon class="cls-1" points="70.89 23.37 45.68 102.18 29.08 50.28 23.86 33.98 20.47 23.37 4.82 23.37 4.82 33.98 4.82 50.28 4.82 119.95 16.96 119.95 16.96 82.34 15.99 50.28 15.99 45.07 17.62 50.28 40.97 119.95 50.26 119.95 75.53 44.66 74.4 82.34 74.4 119.95 86.54 119.95 86.54 23.37 70.89 23.37"/><path class="cls-1" d="M4.4,1.25A11.26,11.26,0,0,1,8.1.67,4.55,4.55,0,0,1,11,1.44a3,3,0,0,1,.91,2.44,2.92,2.92,0,0,1-.28,1.3,2.75,2.75,0,0,1-.57.84,6.24,6.24,0,0,1-.73.56,3.88,3.88,0,0,1,1.39,1,2.83,2.83,0,0,1,.43,1.73,3.73,3.73,0,0,1-1,2.82,4.24,4.24,0,0,1-3,.91,13.11,13.11,0,0,1-1.79-.13c-.65-.09-1.17-.19-1.56-.28l-.56-.15L4.4,10.9a19.26,19.26,0,0,0,3.52.37c1.45,0,2.17-.66,2.17-1.92A1.64,1.64,0,0,0,9.53,8a2.42,2.42,0,0,0-1.48-.47H5.64V5.87H8.05a1.8,1.8,0,0,0,1.24-.55A1.81,1.81,0,0,0,9.86,4a1.38,1.38,0,0,0-.5-1.17A2.17,2.17,0,0,0,8,2.43,17.8,17.8,0,0,0,5,2.68l-.47.09Z"/><path class="cls-1" d="M14.73,12.82v-9h2V4.85a8.54,8.54,0,0,1,3.08-1.28v2a12.86,12.86,0,0,0-2.67.8l-.4.16v6.32Z"/><path class="cls-1" d="M28.73,0V12.82H26.78v-.47a5.45,5.45,0,0,1-2.43.67A3.07,3.07,0,0,1,21.75,12a6,6,0,0,1-.83-3.59,5.85,5.85,0,0,1,.92-3.66,3.44,3.44,0,0,1,2.85-1.14,14.9,14.9,0,0,1,2.07.23V0ZM26.45,10.94l.31-.13V5.45a12.47,12.47,0,0,0-2-.18c-1.22,0-1.83,1-1.83,3a4.48,4.48,0,0,0,.42,2.31,1.52,1.52,0,0,0,1.35.65A4.74,4.74,0,0,0,26.45,10.94Z"/><path class="cls-1" d="M35.7,12.82V.42h7.83V2.17H37.71V5.69h4.73V7.43H37.71v3.62h5.82v1.77Z"/><path class="cls-1" d="M52.91,0V12.82H51v-.47a5.42,5.42,0,0,1-2.43.67A3.08,3.08,0,0,1,45.93,12a6,6,0,0,1-.82-3.59A5.86,5.86,0,0,1,46,4.71a3.44,3.44,0,0,1,2.85-1.14,14.9,14.9,0,0,1,2.07.23V0ZM50.63,10.94l.31-.13V5.45a12.47,12.47,0,0,0-2-.18c-1.22,0-1.83,1-1.83,3a4.48,4.48,0,0,0,.42,2.31,1.52,1.52,0,0,0,1.35.65A4.74,4.74,0,0,0,50.63,10.94Z"/><path class="cls-1" d="M55.47,2.23V.15h2V2.23Zm0,10.59v-9h2v9.05Z"/><path class="cls-1" d="M64.88,5.45H62.39v4a4.19,4.19,0,0,0,.16,1.46c.11.25.38.37.83.37l1.49-.06L65,12.79a10.21,10.21,0,0,1-1.85.23,2.6,2.6,0,0,1-2.11-.7,4.46,4.46,0,0,1-.57-2.67V5.45H59.27V3.77h1.16V1.14h2V3.77h2.49Z"/><path class="cls-1" d="M66.68,2.23V.15h2V2.23Zm0,10.59v-9h2v9.05Z"/><path class="cls-1" d="M71.71,4.75a4.68,4.68,0,0,1,6.21,0,5.62,5.62,0,0,1,.93,3.53,5.79,5.79,0,0,1-.91,3.55A3.67,3.67,0,0,1,74.81,13a3.68,3.68,0,0,1-3.13-1.19,5.79,5.79,0,0,1-.91-3.55A5.55,5.55,0,0,1,71.71,4.75Zm1.47,5.88a2.18,2.18,0,0,0,3.26,0,5,5,0,0,0,.42-2.37,4.49,4.49,0,0,0-.45-2.34,2.2,2.2,0,0,0-3.2,0,4.49,4.49,0,0,0-.45,2.34A5,5,0,0,0,73.18,10.63Z"/><path class="cls-1" d="M82.94,12.82H81v-9h2v.56a5,5,0,0,1,2.5-.76,2.73,2.73,0,0,1,2.47,1A6.49,6.49,0,0,1,88.56,8v4.85h-2V8a5,5,0,0,0-.31-2.08A1.33,1.33,0,0,0,85,5.33a4.45,4.45,0,0,0-1.77.36l-.28.11Z"/></g></g></svg>